<svg xmlns="http://www.w3.org/2000/svg" width="278.236" height="253.29" viewBox="0 0 278.236 253.29">
  <g id="error" transform="translate(-0.583 -2)">
    <g id="Group_15913" data-name="Group 15913" transform="translate(0.583 4.317)">
      <path id="Path_15074" data-name="Path 15074" d="M250.2,50.911c0,55.251,28.62,93.193,28.62,119.816s-15.3,82.537-137.78,82.537S.583,178.043.583,148.76C.583,11.635,250.2-46.938,250.2,50.911Z" transform="translate(-0.583 -2.29)" fill="#f5f6fa"/>
    </g>
    <g id="Group_15914" data-name="Group 15914" transform="translate(187.631 2)">
      <path id="Path_15075" data-name="Path 15075" d="M35.982,25.963A11.982,11.982,0,1,1,47.963,13.982,12,12,0,0,1,35.982,25.963Zm0-15.975a3.994,3.994,0,1,0,3.994,3.994A4,4,0,0,0,35.982,9.988Z" transform="translate(-24 -2)" fill="#a4afc1"/>
    </g>
    <g id="Group_15915" data-name="Group 15915" transform="translate(49.843 75.886)">
      <path id="Path_15076" data-name="Path 15076" d="M170.5,147.041H22.725A15.971,15.971,0,0,1,6.75,131.066V11.25H186.473V131.066A15.971,15.971,0,0,1,170.5,147.041Z" transform="translate(-6.75 -11.25)" fill="#f3f3f1"/>
    </g>
    <g id="Group_15916" data-name="Group 15916" transform="translate(49.843 47.929)">
      <path id="Path_15077" data-name="Path 15077" d="M186.473,35.707H6.75V23.725A15.971,15.971,0,0,1,22.725,7.75H170.5a15.971,15.971,0,0,1,15.975,15.975Z" transform="translate(-6.75 -7.75)" fill="#00adee"/>
    </g>
    <g id="Group_15917" data-name="Group 15917" transform="translate(49.843 75.886)">
      <path id="Path_15078" data-name="Path 15078" d="M26.719,131.066V11.25H6.75V131.066a15.971,15.971,0,0,0,15.975,15.975H42.695A15.971,15.971,0,0,1,26.719,131.066Z" transform="translate(-6.75 -11.25)" fill="#d5dbe1"/>
    </g>
    <g id="Group_15918" data-name="Group 15918" transform="translate(49.843 47.929)">
      <path id="Path_15079" data-name="Path 15079" d="M40.7,7.75H22.725A15.971,15.971,0,0,0,6.75,23.725V35.707H24.722V23.725A15.971,15.971,0,0,1,40.7,7.75Z" transform="translate(-6.75 -7.75)" fill="#0080c5"/>
    </g>
    <g id="Group_15919" data-name="Group 15919" transform="translate(123.729 113.828)">
      <path id="Path_15080" data-name="Path 15080" d="M33.972,71.914H29.978A13.994,13.994,0,0,1,16,57.935V27.982C16,22.454,19.658,16,29.978,16h3.994c10.32,0,13.978,6.454,13.978,11.982V57.935A13.994,13.994,0,0,1,33.972,71.914ZM29.978,27.982a5.558,5.558,0,0,0-2.364.359l.367,29.594a2,2,0,0,0,2,2h3.994a2,2,0,0,0,2-2V28.093c-.16.064-.855-.112-2-.112Z" transform="translate(-16 -16)"/>
    </g>
    <g id="Group_15920" data-name="Group 15920" transform="translate(75.803 113.828)">
      <path id="Path_15081" data-name="Path 15081" d="M41.951,47.951H23.978A13.994,13.994,0,0,1,10,33.972V16H21.982V33.972a2,2,0,0,0,2,2H41.951Z" transform="translate(-10 -16)"/>
    </g>
    <g id="Group_15921" data-name="Group 15921" transform="translate(95.772 113.828)">
      <path id="Path_15082" data-name="Path 15082" d="M12.5,16H24.482V71.914H12.5Z" transform="translate(-12.5 -16)"/>
    </g>
    <g id="Group_15922" data-name="Group 15922" transform="translate(171.656 113.828)">
      <path id="Path_15083" data-name="Path 15083" d="M53.951,47.951H35.978A13.994,13.994,0,0,1,22,33.972V16H33.982V33.972a2,2,0,0,0,2,2H53.951Z" transform="translate(-22 -16)"/>
    </g>
    <g id="Group_15923" data-name="Group 15923" transform="translate(191.625 113.828)">
      <path id="Path_15084" data-name="Path 15084" d="M24.5,16H36.482V71.914H24.5Z" transform="translate(-24.5 -16)"/>
    </g>
    <g id="Group_15924" data-name="Group 15924" transform="translate(43.852 41.939)">
      <path id="Path_15085" data-name="Path 15085" d="M175.739,182.729H27.966A21.984,21.984,0,0,1,6,160.763V28.966A21.984,21.984,0,0,1,27.966,7H175.739A21.984,21.984,0,0,1,197.7,28.966v131.8A21.984,21.984,0,0,1,175.739,182.729ZM27.966,18.982a10,10,0,0,0-9.985,9.985v131.8a10,10,0,0,0,9.985,9.985H175.739a10,10,0,0,0,9.985-9.985V28.966a10,10,0,0,0-9.985-9.985Z" transform="translate(-6 -7)"/>
    </g>
    <g id="Group_15925" data-name="Group 15925" transform="translate(49.843 69.895)">
      <path id="Path_15086" data-name="Path 15086" d="M6.75,10.5H186.473V22.482H6.75Z" transform="translate(-6.75 -10.5)"/>
    </g>
    <g id="Group_15926" data-name="Group 15926" transform="translate(11.902 205.686)">
      <path id="Path_15087" data-name="Path 15087" d="M2,27.5H257.606V39.482H2Z" transform="translate(-2 -27.5)"/>
    </g>
  </g>
</svg>
