<svg xmlns="http://www.w3.org/2000/svg" width="24.158" height="29.825" viewBox="0 0 24.158 29.825">
  <g id="Group_15225" data-name="Group 15225" transform="translate(-43.927 -6720.525)">
    <path id="Path_14341" data-name="Path 14341" d="M706.99,6704.963h16.965l4.01,5.243.8,21.345-2.591,1.049s-4.195.309-4.75,0a12.808,12.808,0,0,0-3.825-.432h-9.315l-1.789-.617Z" transform="translate(-661.576 17.106)" fill="#f5f6fa" stroke="#707070" stroke-width="1"/>
    <g id="files" transform="translate(43.927 6720.525)">
      <g id="Group_15224" data-name="Group 15224" transform="translate(0 0)">
        <path id="Path_14340" data-name="Path 14340" d="M71.888,5.844,66.313.269A.929.929,0,0,0,65.654,0H50.787A2.787,2.787,0,0,0,48,2.787V26.945a2.787,2.787,0,0,0,2.787,2.787H69.37a2.787,2.787,0,0,0,2.787-2.787V6.5A.929.929,0,0,0,71.888,5.844ZM70.3,26.945a.929.929,0,0,1-.929.929H50.787a.929.929,0,0,1-.929-.929V2.787a.929.929,0,0,1,.929-.929H64.724V5.575a1.858,1.858,0,0,0,1.858,1.858H70.3Z" transform="translate(-48 0)" fill="#98a6ad"/>
      </g>
    </g>
  </g>
</svg>
