<svg xmlns="http://www.w3.org/2000/svg" width="18" height="24" viewBox="0 0 18 24">
  <g id="lock" transform="translate(-9 -6)">
    <path id="Path_14782" data-name="Path 14782" d="M24.75,29.25H11.25a1.5,1.5,0,0,1-1.5-1.5V17.25a1.5,1.5,0,0,1,1.5-1.5h13.5a1.5,1.5,0,0,1,1.5,1.5v10.5A1.5,1.5,0,0,1,24.75,29.25Z" fill="#00adee"/>
    <path id="Path_14783" data-name="Path 14783" d="M12,27.75V17.25a1.5,1.5,0,0,1,1.5-1.5H11.25a1.5,1.5,0,0,0-1.5,1.5v10.5a1.5,1.5,0,0,0,1.5,1.5H13.5A1.5,1.5,0,0,1,12,27.75Z" fill="#0080c5"/>
    <path id="Path_14787" data-name="Path 14787" d="M24.75,30H11.25A2.252,2.252,0,0,1,9,27.75V17.25A2.252,2.252,0,0,1,11.25,15h13.5A2.252,2.252,0,0,1,27,17.25v10.5A2.252,2.252,0,0,1,24.75,30ZM11.25,16.5a.75.75,0,0,0-.75.75v10.5a.75.75,0,0,0,.75.75h13.5a.75.75,0,0,0,.75-.75V17.25a.75.75,0,0,0-.75-.75Z"/>
    <path id="Path_14788" data-name="Path 14788" d="M24,15.75H22.5V12a4.5,4.5,0,0,0-9,0v3.75H12V12a6,6,0,0,1,12,0Z"/>
  </g>
</svg>
