<svg xmlns="http://www.w3.org/2000/svg" width="210.347" height="61.842" viewBox="0 0 210.347 61.842">
  <g id="logo" transform="translate(-142.279 -79.818)">
    <g id="Group_15243" data-name="Group 15243" transform="translate(309.471 79.818)">
      <g id="Group_15234" data-name="Group 15234" transform="translate(22.14 58.632)">
        <path id="Path_14342" data-name="Path 14342" d="M632.462,232.328a1.6,1.6,0,1,1-1.6-1.605A1.6,1.6,0,0,1,632.462,232.328Z" transform="translate(-629.256 -230.723)" fill="#f6780d"/>
      </g>
      <g id="Group_15236" data-name="Group 15236" transform="translate(21.011)">
        <g id="Group_15235" data-name="Group 15235">
          <path id="Path_14343" data-name="Path 14343" d="M628.512,80.426l1-.388v2.017c0,.512.24.779.631.779.368,0,.535-.289.535-.779V80.16l1-.342v2.309a1.465,1.465,0,0,1-1.477,1.606,1.822,1.822,0,0,1-1.123-.388,1.9,1.9,0,0,1-1,.388c-.65.051-1.724-.244-1.724-1.918V80.7l1.026-.369v1.729c0,.512.239.779.6.779s.533-.289.533-.779Z" transform="translate(-626.352 -79.818)" fill="#f6780d"/>
        </g>
      </g>
      <g id="Group_15242" data-name="Group 15242" transform="translate(0 7.313)">
        <g id="Group_15237" data-name="Group 15237" transform="translate(19.172 19.089)">
          <path id="Path_14344" data-name="Path 14344" d="M621.618,152.433a4.643,4.643,0,0,1,4.6-4.665h0v2.06a2.582,2.582,0,0,0-2.542,2.605h0a2.585,2.585,0,0,0,2.542,2.6h0v2.057a4.643,4.643,0,0,1-4.6-4.661Z" transform="translate(-621.618 -147.768)" fill="#ff9d10"/>
        </g>
        <g id="Group_15238" data-name="Group 15238" transform="translate(16.6 23.754)">
          <path id="Path_14345" data-name="Path 14345" d="M615,159.775h1.266a5.938,5.938,0,0,0,5.905,5.956h0a5.937,5.937,0,0,0,5.914-5.956h1.267A7.206,7.206,0,0,1,622.168,167h0A7.206,7.206,0,0,1,615,159.775Z" transform="translate(-614.997 -159.775)" fill="#f6780d"/>
        </g>
        <path id="Path_14346" data-name="Path 14346" d="M633.482,131.875h-.034v2.4l.034,0a8.44,8.44,0,1,1,0,16.88l-.034,0v2.4h.034a10.837,10.837,0,1,0,0-21.675Z" transform="translate(-609.68 -118.962)" fill="#ff9d10"/>
        <path id="Path_14347" data-name="Path 14347" d="M611.319,148.422a10.837,10.837,0,0,1,0-21.673v-3.258a14.095,14.095,0,0,0,0,28.19Z" transform="translate(-587.55 -113.835)" fill="#006cbb"/>
        <g id="Group_15239" data-name="Group 15239" transform="translate(23.775 7.812)">
          <path id="Path_14348" data-name="Path 14348" d="M633.466,149.674a14.919,14.919,0,0,0,10.593-4.389h0a14.953,14.953,0,0,0,4.391-10.6h0a14.944,14.944,0,0,0-4.391-10.6h0a14.92,14.92,0,0,0-10.593-4.39h0v-.952a15.937,15.937,0,0,1,15.93,15.941h0a15.935,15.935,0,0,1-15.93,15.941h0v-.954Z" transform="translate(-633.466 -118.746)" fill="#006cbb"/>
        </g>
        <g id="Group_15240" data-name="Group 15240" transform="translate(23.771 4.379)">
          <path id="Path_14349" data-name="Path 14349" d="M633.454,146.756a17.4,17.4,0,0,0,12.362-5.117h0a17.4,17.4,0,0,0,5.119-12.354h0a17.387,17.387,0,0,0-5.119-12.357h0a17.419,17.419,0,0,0-12.362-5.116h0v-1.9a19.379,19.379,0,0,1,19.385,19.374h0a19.379,19.379,0,0,1-19.385,19.372h0v-1.9Z" transform="translate(-633.454 -109.91)" fill="#00a1ed"/>
        </g>
        <g id="Group_15241" data-name="Group 15241">
          <path id="Path_14350" data-name="Path 14350" d="M572.274,122.393a23.759,23.759,0,0,1,23.771-23.754h0v4.75a18.969,18.969,0,0,0-13.451,5.564h0a18.931,18.931,0,0,0-5.562,13.44h0a18.933,18.933,0,0,0,5.562,13.438h0a18.982,18.982,0,0,0,13.451,5.568h0v4.75a23.759,23.759,0,0,1-23.771-23.755Z" transform="translate(-572.274 -98.639)" fill="#00a1ed"/>
        </g>
      </g>
    </g>
    <path id="Path_14351" data-name="Path 14351" d="M142.479,205.733h.715v2.6h.1l2.733-2.6h1.029l-2.973,2.739,3.113,3.268h-1.04l-2.863-3.054h-.1v3.054h-.715Z" transform="translate(0 -76.992)" fill="#006cbb" stroke="#006cbb" stroke-miterlimit="10" stroke-width="0.4"/>
    <path id="Path_14352" data-name="Path 14352" d="M167.607,205.733h.67l2.555,6.007H170l-.61-1.476h-3l-.62,1.476h-.808Zm.324.918h-.018l-1.25,2.951h2.456Z" transform="translate(-13.746 -76.992)" fill="#006cbb" stroke="#006cbb" stroke-miterlimit="10" stroke-width="0.4"/>
    <path id="Path_14353" data-name="Path 14353" d="M183.669,213.408a1.159,1.159,0,1,1-1.157,1.158A1.158,1.158,0,0,1,183.669,213.408Z" transform="translate(-24.479 -81.685)" fill="#f6780d"/>
    <path id="Path_14354" data-name="Path 14354" d="M157.711,213.408a1.159,1.159,0,1,1-1.157,1.158A1.157,1.157,0,0,1,157.711,213.408Z" transform="translate(-8.606 -81.685)" fill="#f6780d"/>
    <path id="Path_14355" data-name="Path 14355" d="M195.3,206.732a1.841,1.841,0,0,0-1.5-.729,2.39,2.39,0,0,0-2.292,2.495,2.337,2.337,0,0,0,2.292,2.493,2.12,2.12,0,0,0,1.739-.839l.533.449a2.66,2.66,0,0,1-2.271,1.053,3.157,3.157,0,0,1,0-6.312,2.6,2.6,0,0,1,2.122.941Z" transform="translate(-29.51 -76.753)" fill="#006cbb" stroke="#006cbb" stroke-miterlimit="10" stroke-width="0.4"/>
    <path id="Path_14356" data-name="Path 14356" d="M209.82,205.733h.668l2.557,6.007h-.835l-.61-1.476h-3.008l-.618,1.476h-.806Zm.321.918h-.018l-1.249,2.951h2.454Z" transform="translate(-39.555 -76.992)" fill="#006cbb" stroke="#006cbb" stroke-miterlimit="10" stroke-width="0.4"/>
    <path id="Path_14357" data-name="Path 14357" d="M226.54,205.733h1.541c1.162,0,2.392.171,2.392,1.655a1.565,1.565,0,0,1-1.5,1.586l1.7,2.767H229.8l-1.628-2.7h-.92v2.7h-.715Zm.715,2.648h.639c.792,0,1.816,0,1.816-.993,0-.865-.753-.991-1.45-.991h-1.005Z" transform="translate(-51.4 -76.992)" fill="#006cbb" stroke="#006cbb" stroke-miterlimit="10" stroke-width="0.4"/>
    <path id="Path_14358" data-name="Path 14358" d="M243.939,205.733h3.776v.664h-3.06v1.882h2.858v.662h-2.858v2.135h3.212v.664h-3.928Z" transform="translate(-62.039 -76.992)" fill="#006cbb" stroke="#006cbb" stroke-miterlimit="10" stroke-width="0.4"/>
    <g id="Group_15244" data-name="Group 15244" transform="translate(191.272 127.857)">
      <path id="Path_14359" data-name="Path 14359" d="M268.059,211.2a2.132,2.132,0,1,0,4.225,0v-2.4h-2.13A2.177,2.177,0,0,0,268.059,211.2Zm3.633,0c0,.846-.424,1.924-1.538,1.924-1.063,0-1.513-1.058-1.513-1.924s.464-1.907,1.513-1.907h1.538Z" transform="translate(-268.059 -206.724)" fill="#464749" stroke="#464749" stroke-miterlimit="10" stroke-width="0.3"/>
      <rect id="Rectangle_6518" data-name="Rectangle 6518" width="0.631" height="0.678" transform="translate(3.399 0.025)" fill="#464749" stroke="#464749" stroke-miterlimit="10" stroke-width="0.3"/>
      <rect id="Rectangle_6519" data-name="Rectangle 6519" width="0.635" height="0.678" transform="translate(1.247 0.025)" fill="#464749" stroke="#464749" stroke-miterlimit="10" stroke-width="0.3"/>
      <rect id="Rectangle_6520" data-name="Rectangle 6520" width="0.631" height="0.684" transform="translate(26.796 8.341)" fill="#464749" stroke="#464749" stroke-miterlimit="10" stroke-width="0.3"/>
      <rect id="Rectangle_6521" data-name="Rectangle 6521" width="0.637" height="0.686" transform="translate(37.738 0)" fill="#464749" stroke="#464749" stroke-miterlimit="10" stroke-width="0.3"/>
      <rect id="Rectangle_6522" data-name="Rectangle 6522" width="0.634" height="0.686" transform="translate(35.582 0)" fill="#464749" stroke="#464749" stroke-miterlimit="10" stroke-width="0.3"/>
      <path id="Path_14360" data-name="Path 14360" d="M341.75,209.145a1.115,1.115,0,0,1-1.2,1.243H337.2a1.253,1.253,0,0,1-1.287-1.243,2.212,2.212,0,0,0-2.129-2.288,2.239,2.239,0,0,0-2.118,2.32,1.188,1.188,0,0,1-1.206,1.211h-6.307a1.339,1.339,0,0,1-1.369-1.495v-2.168h-.549v2.419a1.115,1.115,0,0,1-1.2,1.243h-7.062v-.577c0-1.793-.836-3.407-2.8-3.407a1.9,1.9,0,0,0-2.116,1.7h.508a1.431,1.431,0,0,1,1.608-1.19c1.665,0,2.266,1.553,2.25,2.894l-.011.577H298.263V207.9c0-1.039-.6-1.5-1.6-1.5a2.714,2.714,0,0,0-.4.033v.507a2.075,2.075,0,0,1,.4-.033c.633,0,.983.23,1.041.975v2.514h-2.86v.514h26.335a1.408,1.408,0,0,0,1.474-1,1.756,1.756,0,0,0,1.592,1H330.6v0a1.461,1.461,0,0,0,1.241-.6,2.025,2.025,0,0,0,1.944,1.383,2.07,2.07,0,0,0,2.025-1.633,1.818,1.818,0,0,0,1.473.857h3.409a1.6,1.6,0,0,0,1.6-1.838v-4.707h-.544Zm-7.967,2.038c-1.088,0-1.532-1.068-1.532-1.915s.444-1.917,1.532-1.917,1.544,1.081,1.544,1.917S334.884,211.182,333.783,211.182Z" transform="translate(-284.436 -204.008)" fill="#464749" stroke="#464749" stroke-miterlimit="10" stroke-width="0.3"/>
      <rect id="Rectangle_6523" data-name="Rectangle 6523" width="0.544" height="6.545" transform="translate(59.801 0.35)" fill="#464749" stroke="#464749" stroke-miterlimit="10" stroke-width="0.3"/>
      <path id="Path_14361" data-name="Path 14361" d="M428.9,211.946a2.171,2.171,0,0,0,2.234,2.178h1.2a1.194,1.194,0,0,1-1.362,1.219,2.021,2.021,0,0,1-.994-.263c.025.253.055.5.055.5a2.9,2.9,0,0,0,1,.275,1.629,1.629,0,0,0,1.847-1.725v-4.506h-1.738A2.237,2.237,0,0,0,428.9,211.946Zm3.43,1.663h-1.2a1.669,1.669,0,0,1-1.626-1.756,1.7,1.7,0,0,1,1.626-1.724h1.2Z" transform="translate(-366.407 -207.229)" fill="#464749" stroke="#464749" stroke-miterlimit="10" stroke-width="0.3"/>
      <rect id="Rectangle_6524" data-name="Rectangle 6524" width="0.636" height="0.686" transform="translate(69.478 0)" fill="#464749" stroke="#464749" stroke-miterlimit="10" stroke-width="0.3"/>
      <rect id="Rectangle_6525" data-name="Rectangle 6525" width="0.636" height="0.686" transform="translate(71.637 0)" fill="#464749" stroke="#464749" stroke-miterlimit="10" stroke-width="0.3"/>
      <path id="Path_14362" data-name="Path 14362" d="M468.545,211.843a1.114,1.114,0,0,1-1.2,1.243H449.931a1.12,1.12,0,0,1-1.2-1.211l-.01-3.1-.546.171v.435c-1.742-.123-2.969.431-2.994,1.965a1.617,1.617,0,0,0,3.046.876,1.456,1.456,0,0,0,1.562,1.384h17.7a1.6,1.6,0,0,0,1.6-1.838V209.1h-.546Zm-21.717.758c-.877,0-1.1-.907-1.081-1.271.09-1.676,1.774-1.431,2.43-1.45C448.2,210.987,448.3,212.6,446.828,212.6Z" transform="translate(-376.363 -206.706)" fill="#464749" stroke="#464749" stroke-miterlimit="10" stroke-width="0.3"/>
      <rect id="Rectangle_6526" data-name="Rectangle 6526" width="0.633" height="0.687" transform="translate(88.961 8.35)" fill="#464749" stroke="#464749" stroke-miterlimit="10" stroke-width="0.3"/>
      <rect id="Rectangle_6527" data-name="Rectangle 6527" width="0.635" height="0.687" transform="translate(91.51 8.35)" fill="#464749" stroke="#464749" stroke-miterlimit="10" stroke-width="0.3"/>
      <path id="Path_14363" data-name="Path 14363" d="M511.972,214.131a1.3,1.3,0,0,1-1.361,1.211,2.2,2.2,0,0,1-1-.263c.031.253.063.5.063.5a2.288,2.288,0,0,0,1,.275,1.777,1.777,0,0,0,1.841-1.725v-4.506h-.542Z" transform="translate(-415.759 -207.229)" fill="#464749" stroke="#464749" stroke-miterlimit="10" stroke-width="0.3"/>
      <path id="Path_14364" data-name="Path 14364" d="M532.5,209.145a1.115,1.115,0,0,1-1.2,1.243h-6.245V207.9c0-1.039-.6-1.5-1.61-1.5a2.777,2.777,0,0,0-.4.033v.507a2.159,2.159,0,0,1,.4-.033c.635,0,.987.23,1.046.975v2.514h-2.873v.514h9.825a1.6,1.6,0,0,0,1.6-1.838v-4.707H532.5Z" transform="translate(-423.098 -204.008)" fill="#464749" stroke="#464749" stroke-miterlimit="10" stroke-width="0.3"/>
      <rect id="Rectangle_6528" data-name="Rectangle 6528" width="0.54" height="6.545" transform="translate(111.887 0.35)" fill="#464749" stroke="#464749" stroke-miterlimit="10" stroke-width="0.3"/>
      <rect id="Rectangle_6529" data-name="Rectangle 6529" width="0.636" height="0.676" transform="translate(99.978 0.062)" fill="#464749" stroke="#464749" stroke-miterlimit="10" stroke-width="0.3"/>
      <path id="Path_14365" data-name="Path 14365" d="M283.519,209.6a2.7,2.7,0,0,0-.394.033v.507a2.05,2.05,0,0,1,.394-.033c.632,0,.984.23,1.043.975v2.514H281.7v.514h3.424V211.1C285.125,210.06,284.524,209.6,283.519,209.6Z" transform="translate(-276.401 -207.211)" fill="#464749" stroke="#464749" stroke-miterlimit="10" stroke-width="0.3"/>
    </g>
    <g id="Group_15258" data-name="Group 15258" transform="translate(142.536 110.59)">
      <g id="Group_15245" data-name="Group 15245" transform="translate(141.926 12.35)">
        <path id="Path_14366" data-name="Path 14366" d="M509.579,191.642a.836.836,0,1,1-.837-.839A.836.836,0,0,1,509.579,191.642Z" transform="translate(-507.907 -190.803)" fill="#464749"/>
      </g>
      <g id="Group_15246" data-name="Group 15246" transform="translate(139.667 12.35)">
        <path id="Path_14367" data-name="Path 14367" d="M503.763,191.642a.836.836,0,1,1-.835-.839A.834.834,0,0,1,503.763,191.642Z" transform="translate(-502.092 -190.803)" fill="#464749"/>
      </g>
      <g id="Group_15247" data-name="Group 15247" transform="translate(74.728 12.35)">
        <path id="Path_14368" data-name="Path 14368" d="M336.629,191.642a.837.837,0,1,1-.835-.839A.834.834,0,0,1,336.629,191.642Z" transform="translate(-334.956 -190.803)" fill="#464749"/>
      </g>
      <g id="Group_15248" data-name="Group 15248" transform="translate(130.019 2.599)">
        <path id="Path_14369" data-name="Path 14369" d="M478.935,166.547a.837.837,0,1,1-.835-.839A.837.837,0,0,1,478.935,166.547Z" transform="translate(-477.262 -165.708)" fill="#464749"/>
      </g>
      <g id="Group_15249" data-name="Group 15249" transform="translate(127.763 2.599)">
        <path id="Path_14370" data-name="Path 14370" d="M473.125,166.547a.835.835,0,1,1-.835-.839A.835.835,0,0,1,473.125,166.547Z" transform="translate(-471.455 -165.708)" fill="#464749"/>
      </g>
      <g id="Group_15250" data-name="Group 15250" transform="translate(3.246 2.599)">
        <path id="Path_14371" data-name="Path 14371" d="M152.65,166.547a.835.835,0,1,1-.835-.839A.837.837,0,0,1,152.65,166.547Z" transform="translate(-150.98 -165.708)" fill="#464749"/>
      </g>
      <g id="Group_15251" data-name="Group 15251" transform="translate(0.983 2.599)">
        <path id="Path_14372" data-name="Path 14372" d="M146.829,166.547a.836.836,0,1,1-.837-.839A.834.834,0,0,1,146.829,166.547Z" transform="translate(-145.156 -165.708)" fill="#464749"/>
      </g>
      <g id="Group_15252" data-name="Group 15252" transform="translate(10.933 1.915)">
        <path id="Path_14373" data-name="Path 14373" d="M172.437,164.781a.837.837,0,1,1-.836-.835A.835.835,0,0,1,172.437,164.781Z" transform="translate(-170.763 -163.946)" fill="#464749"/>
      </g>
      <g id="Group_15253" data-name="Group 15253" transform="translate(8.676 1.915)">
        <path id="Path_14374" data-name="Path 14374" d="M166.627,164.781a.836.836,0,1,1-.84-.835A.837.837,0,0,1,166.627,164.781Z" transform="translate(-164.954 -163.946)" fill="#464749"/>
      </g>
      <g id="Group_15254" data-name="Group 15254" transform="translate(136.46 2.599)">
        <path id="Path_14375" data-name="Path 14375" d="M495.512,166.547a.837.837,0,1,1-.837-.839A.839.839,0,0,1,495.512,166.547Z" transform="translate(-493.839 -165.708)" fill="#464749"/>
      </g>
      <path id="Path_14376" data-name="Path 14376" d="M297.01,174.722h-1.779v-8.6h1.779Z" transform="translate(-235.938 -163.362)" fill="#464749"/>
      <path id="Path_14377" data-name="Path 14377" d="M459.414,174.722h-1.776v-8.6h1.776Z" transform="translate(-335.243 -163.362)" fill="#464749"/>
      <rect id="Rectangle_6530" data-name="Rectangle 6530" width="0.634" height="1.766" transform="translate(83.744 5.293)" fill="#464749"/>
      <path id="Path_14378" data-name="Path 14378" d="M530.243,171.894a3.047,3.047,0,0,0-3.095,3.159v.611a.723.723,0,0,1-.754.824h-3.3v-1.993c0-1.591-.93-2.308-2.628-2.308h-.939v1.247h.966c.768,0,.768.624.768.624v2.43h-3.529v1.764h8.746a2.022,2.022,0,0,0,1.577-.7,3.169,3.169,0,0,0,2.191.848,3.231,3.231,0,0,0,3.141-3.344A3.088,3.088,0,0,0,530.243,171.894Zm-.005,4.978a1.607,1.607,0,0,1-1.68-1.819,1.568,1.568,0,0,1,1.68-1.712,1.539,1.539,0,0,1,1.726,1.712C531.963,176.115,531.526,176.872,530.238,176.872Z" transform="translate(-371.987 -166.891)" fill="#464749"/>
      <path id="Path_14379" data-name="Path 14379" d="M499.88,173.06V176.4a.713.713,0,0,1-.767.8h-2.391a1.189,1.189,0,0,1-1.274-1.289V173.47h-1.793v1.557A3.837,3.837,0,0,0,496.2,178.9a3.255,3.255,0,0,0,.626.06h2.445a2.34,2.34,0,0,0,2.4-2.666V173.06Z" transform="translate(-357.267 -167.604)" fill="#464749"/>
      <path id="Path_14380" data-name="Path 14380" d="M423.505,166.122v6.04a.715.715,0,0,1-.769.8H420.32c-.57,0-.8-.413-.863-.9a3.145,3.145,0,1,0-6.289.106.776.776,0,0,1-.782.8h-1.995a1.186,1.186,0,0,1-1.274-1.289v-5.548h-1.79v5.588a3.594,3.594,0,0,0,2.239,2.872,3.251,3.251,0,0,0,.931.14h2a2.518,2.518,0,0,0,1.447-.41,3,3,0,0,0,2.375,1.127,2.955,2.955,0,0,0,2.5-1.314,2.665,2.665,0,0,0,1.6.6h2.483a2.344,2.344,0,0,0,2.4-2.666v-5.934Zm-7.224,7.835a1.607,1.607,0,0,1-1.675-1.82,1.567,1.567,0,0,1,1.675-1.712,1.545,1.545,0,0,1,1.734,1.712C418.015,173.2,417.575,173.957,416.281,173.957Z" transform="translate(-304.48 -163.362)" fill="#464749"/>
      <g id="Group_15255" data-name="Group 15255" transform="translate(97.058 2.76)">
        <path id="Path_14381" data-name="Path 14381" d="M395.5,172.958a1.18,1.18,0,0,1-1.271-1.289v-5.548h-1.8v5.4a3.622,3.622,0,0,0,2.37,3.1,2.859,2.859,0,0,0,.81.1h.77v-1.764Z" transform="translate(-392.429 -166.122)" fill="#464749"/>
      </g>
      <path id="Path_14382" data-name="Path 14382" d="M340.973,176.949v-2.43s0-.624.772-.624h1.61v-1.247h-1.586c-1.7,0-2.624.716-2.624,2.308v1.993h-2.531a1.188,1.188,0,0,1-1.275-1.289v-2.444h-1.791v1.975a3.587,3.587,0,0,0,2.307,3.424,2.767,2.767,0,0,0,.744.1h7.369v-1.764Z" transform="translate(-259.367 -167.352)" fill="#464749"/>
      <g id="Group_15256" data-name="Group 15256" transform="translate(50.392)">
        <path id="Path_14383" data-name="Path 14383" d="M279,166.122v6.04a.714.714,0,0,1-.768.8h-.968a1.19,1.19,0,0,1-1.277-1.289v-5.548H274.2v4.771a3.844,3.844,0,0,0,2.5,3.754,3.1,3.1,0,0,0,.677.074H278.4a2.341,2.341,0,0,0,2.4-2.666v-5.934Z" transform="translate(-273.472 -163.362)" fill="#464749"/>
        <path id="Path_14384" data-name="Path 14384" d="M273.236,160.845a1.113,1.113,0,0,0,.577-.251.747.747,0,0,0,.6.251.99.99,0,0,0,.945-.755v-1.072h-.638v1.072a.35.35,0,0,1-.274.133c-.192,0-.282-.133-.282-.438v-.767h-.638v1.072a.359.359,0,0,1-.279.133c-.2,0-.278-.133-.278-.438v-.767h-.65v.846A.9.9,0,0,0,273.236,160.845Z" transform="translate(-272.322 -159.018)" fill="#464749"/>
      </g>
      <path id="Path_14385" data-name="Path 14385" d="M230.635,166.122v6.04a.715.715,0,0,1-.772.8h-2.387a1.186,1.186,0,0,1-1.272-1.289v-5.548h-1.792v5.523a3.709,3.709,0,0,0,2.2,2.921,3.081,3.081,0,0,0,.971.156h2.442a2.34,2.34,0,0,0,2.4-2.666v-5.934Z" transform="translate(-192.635 -163.362)" fill="#464749"/>
      <path id="Path_14386" data-name="Path 14386" d="M380.12,171.1h1.533v.9h-3.417v-.9h.953v-1.016c0-.812.471-1.177,1.335-1.177h.811v.637h-.821c-.395,0-.395.317-.395.317Z" transform="translate(-286.692 -165.067)" fill="#464749"/>
      <rect id="Rectangle_6531" data-name="Rectangle 6531" width="0.32" height="0.901" transform="translate(94.521 3.84)" fill="#464749"/>
      <g id="Group_15257" data-name="Group 15257" transform="translate(0 2.76)">
        <path id="Path_14387" data-name="Path 14387" d="M478.01,175.8a1.148,1.148,0,0,1-.661.188h-2.217a.709.709,0,0,1-.756-.8v-4.116l-1.793.439v.45c-2.217.012-3.82.758-3.78,2.854a2.456,2.456,0,0,0,2.283,2.348,2.444,2.444,0,0,1,3.888.585h2.878a2.141,2.141,0,0,0,1.192-.34A4.159,4.159,0,0,1,478.01,175.8Zm-5.427-1.545c0,.85-.495,1.275-1.074,1.261a1.1,1.1,0,0,1-1-1.22c.039-1.236,1.153-1.018,2.07-1.018Z" transform="translate(-342.07 -169.149)" fill="#464749"/>
        <path id="Path_14388" data-name="Path 14388" d="M404.546,184.953a4.15,4.15,0,0,1-1.079-1.531,1.287,1.287,0,0,1-.566.115h-1.02V185.3h1.558a1.493,1.493,0,0,0,1.117-.335Z" transform="translate(-301.151 -176.7)" fill="#464749"/>
        <path id="Path_14389" data-name="Path 14389" d="M378.851,180.138a4.011,4.011,0,0,1-1-1.48.8.8,0,0,1-.316.064H372.23a1.212,1.212,0,0,1-1.179-.917,1.552,1.552,0,0,1,.267-1.115s-.533-.45-1.286-1.143a3.316,3.316,0,0,0-.708,2.257,2.982,2.982,0,0,0,2.971,2.68h5.495a1.365,1.365,0,0,0,1.066-.343Z" transform="translate(-281.239 -171.886)" fill="#464749"/>
        <path id="Path_14390" data-name="Path 14390" d="M318.258,176.826a1.294,1.294,0,0,1-.611.122h-3.007v-1.993c0-1.591-.929-2.308-2.63-2.308h-.935v1.247h.964c.767,0,.767.624.767.624v2.43h-3.53v1.764h8.872a1.854,1.854,0,0,0,1.135-.305A3.987,3.987,0,0,1,318.258,176.826Z" transform="translate(-244.526 -170.112)" fill="#464749"/>
        <path id="Path_14391" data-name="Path 14391" d="M259.991,175.8a1.177,1.177,0,0,1-.656.181h-1.377a.711.711,0,0,1-.759-.8v-4.116l-1.79.439v.45c-2.215.012-3.818.758-3.782,2.854a2.462,2.462,0,0,0,2.285,2.348,2.082,2.082,0,0,0,1.735-.715,2.1,2.1,0,0,0,2.15,1.3h2.044a1.828,1.828,0,0,0,1.169-.367A3.98,3.98,0,0,1,259.991,175.8Zm-4.582-1.161c0,.851-.492,1.276-1.073,1.264a1.112,1.112,0,0,1-1-1.224c.041-1.234,1.151-1.621,2.07-1.621Z" transform="translate(-209.275 -169.149)" fill="#464749"/>
        <path id="Path_14392" data-name="Path 14392" d="M150.6,170.38a1.858,1.858,0,0,0,1.951,1.82,2.01,2.01,0,0,0,1.648-.7v.666a.711.711,0,0,1-.757.8h-4.487a.712.712,0,0,1-.755-.8v-4.116l-1.793.439v.45c-2.215.012-3.817.758-3.779,2.854a2.457,2.457,0,0,0,2.283,2.348,2.089,2.089,0,0,0,1.737-.715,2.09,2.09,0,0,0,2.147,1.3h4.789a2.341,2.341,0,0,0,2.4-2.666L156,168.2C153.092,168.2,150.678,168.007,150.6,170.38Zm-4.193.877c0,.85-.486,1.273-1.07,1.261a1.1,1.1,0,0,1-1-1.221c.039-1.234,1.15-1.016,2.065-1.016Zm6.783-.251a.839.839,0,0,1-.877-.851c0-.968,1.27-.954,1.895-.941C154.207,169.917,154.17,171.007,153.188,171.007Zm20.734,1.819a1.248,1.248,0,0,1-.584.133h-2.065a3.153,3.153,0,0,0,.251-1.194c0-2.071-1.994-3.106-3.634-3.106a4.524,4.524,0,0,0-1.172.179,3.764,3.764,0,0,0-2.294,3.508v-4.929h-1.62v5.542h-2.694a.711.711,0,0,1-.755-.8v-6.04H157.58v5.934a2.326,2.326,0,0,0,2.386,2.666h13.878a1.693,1.693,0,0,0,1.107-.345A3.979,3.979,0,0,1,173.923,172.826Zm-5.625.133H164.48a3.476,3.476,0,0,1,3.513-2.629c.56.04,1.688.358,1.688,1.46A1.316,1.316,0,0,1,168.3,172.958Z" transform="translate(-142.625 -166.122)" fill="#464749"/>
      </g>
    </g>
  </g>
</svg>
