<svg xmlns="http://www.w3.org/2000/svg" width="241.468" height="71" viewBox="0 0 241.468 71">
  <g id="logo-white" transform="translate(-142.279 -79.818)">
    <g id="Group_15243" data-name="Group 15243" transform="translate(334.201 79.818)">
      <g id="Group_15234" data-name="Group 15234" transform="translate(25.418 67.315)">
        <path id="Path_14342" data-name="Path 14342" d="M632.937,232.566a1.84,1.84,0,1,1-1.839-1.843A1.841,1.841,0,0,1,632.937,232.566Z" transform="translate(-629.256 -230.723)" fill="#fff"/>
      </g>
      <g id="Group_15236" data-name="Group 15236" transform="translate(24.123)">
        <g id="Group_15235" data-name="Group 15235">
          <path id="Path_14343" data-name="Path 14343" d="M628.832,80.516l1.149-.445v2.316c0,.588.276.894.724.894.422,0,.614-.331.614-.894V80.211l1.145-.393v2.651a1.682,1.682,0,0,1-1.7,1.844,2.091,2.091,0,0,1-1.289-.446,2.178,2.178,0,0,1-1.149.446c-.746.058-1.979-.28-1.979-2.2V80.825l1.178-.424v1.985c0,.588.274.894.69.894s.612-.331.612-.894Z" transform="translate(-626.352 -79.818)" fill="#fff"/>
        </g>
      </g>
      <g id="Group_15242" data-name="Group 15242" transform="translate(0 8.396)">
        <g id="Group_15237" data-name="Group 15237" transform="translate(22.011 21.915)">
          <path id="Path_14344" data-name="Path 14344" d="M621.618,153.124a5.33,5.33,0,0,1,5.28-5.356h0v2.365a2.964,2.964,0,0,0-2.918,2.991h0a2.967,2.967,0,0,0,2.918,2.989h0v2.362a5.33,5.33,0,0,1-5.28-5.351Z" transform="translate(-621.618 -147.768)" fill="#fff"/>
        </g>
        <g id="Group_15238" data-name="Group 15238" transform="translate(19.058 27.271)">
          <path id="Path_14345" data-name="Path 14345" d="M615,159.775h1.454a6.817,6.817,0,0,0,6.779,6.838h0a6.816,6.816,0,0,0,6.789-6.838h1.455a8.273,8.273,0,0,1-8.244,8.29h0a8.273,8.273,0,0,1-8.233-8.29Z" transform="translate(-614.997 -159.775)" fill="#fff"/>
        </g>
        <path id="Path_14346" data-name="Path 14346" d="M633.487,131.875h-.039v2.753l.039,0a9.69,9.69,0,1,1,0,19.38l-.039,0v2.754h.039a12.442,12.442,0,1,0,0-24.885Z" transform="translate(-606.16 -117.049)" fill="#fff"/>
        <path id="Path_14347" data-name="Path 14347" d="M613.4,152.115a12.441,12.441,0,0,1,0-24.883v-3.741a16.182,16.182,0,0,0,0,32.364Z" transform="translate(-586.113 -112.405)" fill="#fff"/>
        <g id="Group_15239" data-name="Group 15239" transform="translate(27.296 8.969)">
          <path id="Path_14348" data-name="Path 14348" d="M633.466,154.254a17.128,17.128,0,0,0,12.162-5.038h0a17.167,17.167,0,0,0,5.042-12.168h0a17.157,17.157,0,0,0-5.042-12.169h0a17.13,17.13,0,0,0-12.162-5.04h0v-1.092a18.3,18.3,0,0,1,18.289,18.3h0a18.294,18.294,0,0,1-18.289,18.3h0v-1.1Z" transform="translate(-633.466 -118.746)" fill="#fff"/>
        </g>
        <g id="Group_15240" data-name="Group 15240" transform="translate(27.291 5.028)">
          <path id="Path_14349" data-name="Path 14349" d="M633.454,152.213a19.979,19.979,0,0,0,14.193-5.875h0a19.973,19.973,0,0,0,5.878-14.184h0a19.962,19.962,0,0,0-5.878-14.187h0a20,20,0,0,0-14.193-5.874h0V109.91a22.249,22.249,0,0,1,22.255,22.244h0a22.249,22.249,0,0,1-22.255,22.241h0v-2.182Z" transform="translate(-633.454 -109.91)" fill="#fff"/>
        </g>
        <g id="Group_15241" data-name="Group 15241">
          <path id="Path_14350" data-name="Path 14350" d="M572.274,125.91a27.277,27.277,0,0,1,27.291-27.271h0v5.453a21.779,21.779,0,0,0-15.443,6.388h0a21.735,21.735,0,0,0-6.386,15.43h0a21.737,21.737,0,0,0,6.386,15.428h0a21.793,21.793,0,0,0,15.443,6.392h0v5.453a27.278,27.278,0,0,1-27.291-27.273Z" transform="translate(-572.274 -98.639)" fill="#fff"/>
        </g>
      </g>
    </g>
    <path id="Path_14351" data-name="Path 14351" d="M142.479,205.733h.82v2.98h.116l3.138-2.98h1.182l-3.413,3.144,3.574,3.752H146.7l-3.287-3.507H143.3v3.507h-.82Z" transform="translate(0 -69.747)" fill="#fff" stroke="#fff" stroke-miterlimit="10" stroke-width="0.4"/>
    <path id="Path_14352" data-name="Path 14352" d="M168,205.733h.769l2.933,6.9h-.951l-.7-1.7H166.6l-.712,1.7h-.928Zm.372,1.054h-.021l-1.435,3.388h2.82Z" transform="translate(-12.452 -69.747)" fill="#fff" stroke="#fff" stroke-miterlimit="10" stroke-width="0.4"/>
    <path id="Path_14353" data-name="Path 14353" d="M183.84,213.408a1.33,1.33,0,1,1-1.328,1.33A1.329,1.329,0,0,1,183.84,213.408Z" transform="translate(-22.175 -73.998)" fill="#fff"/>
    <path id="Path_14354" data-name="Path 14354" d="M157.883,213.408a1.33,1.33,0,1,1-1.329,1.33A1.329,1.329,0,0,1,157.883,213.408Z" transform="translate(-7.796 -73.998)" fill="#fff"/>
    <path id="Path_14355" data-name="Path 14355" d="M195.973,206.938a2.113,2.113,0,0,0-1.722-.837,2.744,2.744,0,0,0-2.632,2.864,2.683,2.683,0,0,0,2.632,2.862,2.434,2.434,0,0,0,2-.963l.612.516a3.054,3.054,0,0,1-2.608,1.209,3.625,3.625,0,0,1,0-7.247,2.981,2.981,0,0,1,2.436,1.081Z" transform="translate(-26.733 -69.531)" fill="#fff" stroke="#fff" stroke-miterlimit="10" stroke-width="0.4"/>
    <path id="Path_14356" data-name="Path 14356" d="M210.212,205.733h.767l2.936,6.9h-.958l-.7-1.7H208.8l-.709,1.7h-.925Zm.368,1.054h-.021l-1.434,3.388h2.817Z" transform="translate(-35.833 -69.747)" fill="#fff" stroke="#fff" stroke-miterlimit="10" stroke-width="0.4"/>
    <path id="Path_14357" data-name="Path 14357" d="M226.54,205.733h1.769c1.334,0,2.746.2,2.746,1.9a1.8,1.8,0,0,1-1.723,1.82l1.956,3.177h-1l-1.869-3.1h-1.057v3.1h-.821Zm.821,3.04h.734c.91,0,2.085,0,2.085-1.14,0-.993-.864-1.137-1.665-1.137h-1.154Z" transform="translate(-46.563 -69.747)" fill="#fff" stroke="#fff" stroke-miterlimit="10" stroke-width="0.4"/>
    <path id="Path_14358" data-name="Path 14358" d="M243.939,205.733h4.335v.762h-3.513v2.16h3.281v.76h-3.281v2.452h3.688v.762h-4.51Z" transform="translate(-56.201 -69.747)" fill="#fff" stroke="#fff" stroke-miterlimit="10" stroke-width="0.4"/>
    <g id="Group_15244" data-name="Group 15244" transform="translate(198.497 134.971)">
      <path id="Path_14359" data-name="Path 14359" d="M268.059,211.553a2.448,2.448,0,1,0,4.851,0V208.8h-2.445A2.5,2.5,0,0,0,268.059,211.553Zm4.171,0c0,.972-.487,2.209-1.766,2.209-1.22,0-1.737-1.214-1.737-2.209s.533-2.189,1.737-2.189h1.766Z" transform="translate(-268.059 -206.417)" fill="#fff" stroke="#fff" stroke-miterlimit="10" stroke-width="0.3"/>
      <rect id="Rectangle_6518" data-name="Rectangle 6518" width="0.725" height="0.778" transform="translate(3.902 0.029)" fill="#fff" stroke="#fff" stroke-miterlimit="10" stroke-width="0.3"/>
      <rect id="Rectangle_6519" data-name="Rectangle 6519" width="0.729" height="0.778" transform="translate(1.432 0.029)" fill="#fff" stroke="#fff" stroke-miterlimit="10" stroke-width="0.3"/>
      <rect id="Rectangle_6520" data-name="Rectangle 6520" width="0.725" height="0.785" transform="translate(30.765 9.577)" fill="#fff" stroke="#fff" stroke-miterlimit="10" stroke-width="0.3"/>
      <rect id="Rectangle_6521" data-name="Rectangle 6521" width="0.732" height="0.787" transform="translate(43.327 0)" fill="#fff" stroke="#fff" stroke-miterlimit="10" stroke-width="0.3"/>
      <rect id="Rectangle_6522" data-name="Rectangle 6522" width="0.728" height="0.787" transform="translate(40.851 0)" fill="#fff" stroke="#fff" stroke-miterlimit="10" stroke-width="0.3"/>
      <path id="Path_14360" data-name="Path 14360" d="M348.7,209.854a1.28,1.28,0,0,1-1.375,1.427h-3.85a1.439,1.439,0,0,1-1.477-1.427,2.539,2.539,0,0,0-2.445-2.627,2.571,2.571,0,0,0-2.432,2.664,1.364,1.364,0,0,1-1.384,1.391h-7.241a1.537,1.537,0,0,1-1.571-1.716v-2.489h-.63v2.778a1.28,1.28,0,0,1-1.374,1.427H316.81v-.662c0-2.059-.96-3.912-3.214-3.912a2.178,2.178,0,0,0-2.43,1.956h.583A1.642,1.642,0,0,1,313.6,207.3c1.912,0,2.6,1.783,2.584,3.322l-.013.662h-17.4v-2.862c0-1.192-.689-1.725-1.839-1.725a3.118,3.118,0,0,0-.455.038v.582a2.382,2.382,0,0,1,.455-.038c.727,0,1.128.265,1.2,1.119v2.886h-3.284v.591h30.235a1.616,1.616,0,0,0,1.692-1.147,2.017,2.017,0,0,0,1.828,1.147h7.3v0a1.677,1.677,0,0,0,1.425-.693,2.325,2.325,0,0,0,2.232,1.588,2.376,2.376,0,0,0,2.325-1.875,2.087,2.087,0,0,0,1.691.984h3.913a1.839,1.839,0,0,0,1.841-2.11v-5.4H348.7Zm-9.147,2.34c-1.249,0-1.759-1.227-1.759-2.2s.51-2.2,1.759-2.2c1.264,0,1.773,1.241,1.773,2.2S340.814,212.193,339.55,212.193Z" transform="translate(-282.895 -203.956)" fill="#fff" stroke="#fff" stroke-miterlimit="10" stroke-width="0.3"/>
      <rect id="Rectangle_6523" data-name="Rectangle 6523" width="0.625" height="7.514" transform="translate(68.657 0.401)" fill="#fff" stroke="#fff" stroke-miterlimit="10" stroke-width="0.3"/>
      <path id="Path_14361" data-name="Path 14361" d="M428.9,212.289a2.492,2.492,0,0,0,2.565,2.5h1.372a1.371,1.371,0,0,1-1.564,1.4,2.321,2.321,0,0,1-1.142-.3c.029.29.063.576.063.576a3.328,3.328,0,0,0,1.145.315,1.871,1.871,0,0,0,2.12-1.981v-5.173h-2A2.568,2.568,0,0,0,428.9,212.289Zm3.938,1.91h-1.372a1.916,1.916,0,0,1-1.867-2.016,1.955,1.955,0,0,1,1.867-1.979h1.372Z" transform="translate(-357.152 -206.874)" fill="#fff" stroke="#fff" stroke-miterlimit="10" stroke-width="0.3"/>
      <rect id="Rectangle_6524" data-name="Rectangle 6524" width="0.731" height="0.787" transform="translate(79.767 0)" fill="#fff" stroke="#fff" stroke-miterlimit="10" stroke-width="0.3"/>
      <rect id="Rectangle_6525" data-name="Rectangle 6525" width="0.731" height="0.787" transform="translate(82.245 0)" fill="#fff" stroke="#fff" stroke-miterlimit="10" stroke-width="0.3"/>
      <path id="Path_14362" data-name="Path 14362" d="M472,212.3a1.279,1.279,0,0,1-1.375,1.427H450.635a1.286,1.286,0,0,1-1.377-1.391l-.011-3.565-.627.2v.5c-2-.141-3.408.5-3.437,2.256a1.856,1.856,0,0,0,3.5,1.005,1.672,1.672,0,0,0,1.793,1.589H470.79a1.838,1.838,0,0,0,1.841-2.11v-3.054H472Zm-24.933.871c-1.007,0-1.263-1.042-1.241-1.459.1-1.924,2.037-1.643,2.79-1.665C448.644,211.316,448.76,213.169,447.072,213.169Z" transform="translate(-366.171 -206.4)" fill="#fff" stroke="#fff" stroke-miterlimit="10" stroke-width="0.3"/>
      <rect id="Rectangle_6526" data-name="Rectangle 6526" width="0.727" height="0.788" transform="translate(102.136 9.586)" fill="#fff" stroke="#fff" stroke-miterlimit="10" stroke-width="0.3"/>
      <rect id="Rectangle_6527" data-name="Rectangle 6527" width="0.729" height="0.788" transform="translate(105.062 9.586)" fill="#fff" stroke="#fff" stroke-miterlimit="10" stroke-width="0.3"/>
      <path id="Path_14363" data-name="Path 14363" d="M512.321,214.8a1.5,1.5,0,0,1-1.563,1.391,2.523,2.523,0,0,1-1.146-.3c.035.29.073.576.073.576a2.627,2.627,0,0,0,1.145.315,2.04,2.04,0,0,0,2.114-1.981v-5.173h-.623Z" transform="translate(-401.861 -206.874)" fill="#fff" stroke="#fff" stroke-miterlimit="10" stroke-width="0.3"/>
      <path id="Path_14364" data-name="Path 14364" d="M534.108,209.854a1.28,1.28,0,0,1-1.378,1.427h-7.17v-2.862c0-1.192-.695-1.725-1.849-1.725a3.19,3.19,0,0,0-.458.038v.582a2.478,2.478,0,0,1,.458-.038c.728,0,1.133.265,1.2,1.119v2.886h-3.3v.591h11.28a1.84,1.84,0,0,0,1.842-2.11v-5.4h-.628Z" transform="translate(-408.509 -203.956)" fill="#fff" stroke="#fff" stroke-miterlimit="10" stroke-width="0.3"/>
      <rect id="Rectangle_6528" data-name="Rectangle 6528" width="0.62" height="7.514" transform="translate(128.456 0.401)" fill="#fff" stroke="#fff" stroke-miterlimit="10" stroke-width="0.3"/>
      <rect id="Rectangle_6529" data-name="Rectangle 6529" width="0.73" height="0.776" transform="translate(114.784 0.072)" fill="#fff" stroke="#fff" stroke-miterlimit="10" stroke-width="0.3"/>
      <path id="Path_14365" data-name="Path 14365" d="M283.789,209.6a3.1,3.1,0,0,0-.452.038v.582a2.353,2.353,0,0,1,.452-.038c.725,0,1.13.265,1.2,1.119v2.886H281.7v.591h3.931v-3.453C285.632,210.129,284.942,209.6,283.789,209.6Z" transform="translate(-275.616 -206.858)" fill="#fff" stroke="#fff" stroke-miterlimit="10" stroke-width="0.3"/>
    </g>
    <g id="Group_15258" data-name="Group 15258" transform="translate(142.544 115.147)">
      <g id="Group_15245" data-name="Group 15245" transform="translate(162.944 14.179)">
        <path id="Path_14366" data-name="Path 14366" d="M509.826,191.767a.96.96,0,1,1-.96-.964A.96.96,0,0,1,509.826,191.767Z" transform="translate(-507.907 -190.803)" fill="#fff"/>
      </g>
      <g id="Group_15246" data-name="Group 15246" transform="translate(160.35 14.179)">
        <path id="Path_14367" data-name="Path 14367" d="M504.011,191.767a.96.96,0,1,1-.959-.964A.958.958,0,0,1,504.011,191.767Z" transform="translate(-502.092 -190.803)" fill="#fff"/>
      </g>
      <g id="Group_15247" data-name="Group 15247" transform="translate(85.795 14.179)">
        <path id="Path_14368" data-name="Path 14368" d="M336.877,191.767a.961.961,0,1,1-.959-.964A.958.958,0,0,1,336.877,191.767Z" transform="translate(-334.956 -190.803)" fill="#fff"/>
      </g>
      <g id="Group_15248" data-name="Group 15248" transform="translate(149.274 2.984)">
        <path id="Path_14369" data-name="Path 14369" d="M479.183,166.671a.96.96,0,1,1-.959-.963A.96.96,0,0,1,479.183,166.671Z" transform="translate(-477.262 -165.708)" fill="#fff"/>
      </g>
      <g id="Group_15249" data-name="Group 15249" transform="translate(146.684 2.984)">
        <path id="Path_14370" data-name="Path 14370" d="M473.372,166.671a.959.959,0,1,1-.959-.963A.959.959,0,0,1,473.372,166.671Z" transform="translate(-471.455 -165.708)" fill="#fff"/>
      </g>
      <g id="Group_15250" data-name="Group 15250" transform="translate(3.727 2.984)">
        <path id="Path_14371" data-name="Path 14371" d="M152.9,166.671a.959.959,0,1,1-.959-.963A.961.961,0,0,1,152.9,166.671Z" transform="translate(-150.98 -165.708)" fill="#fff"/>
      </g>
      <g id="Group_15251" data-name="Group 15251" transform="translate(1.129 2.984)">
        <path id="Path_14372" data-name="Path 14372" d="M147.076,166.671a.96.96,0,1,1-.961-.963A.958.958,0,0,1,147.076,166.671Z" transform="translate(-145.156 -165.708)" fill="#fff"/>
      </g>
      <g id="Group_15252" data-name="Group 15252" transform="translate(12.552 2.198)">
        <path id="Path_14373" data-name="Path 14373" d="M172.685,164.9a.961.961,0,1,1-.96-.958A.959.959,0,0,1,172.685,164.9Z" transform="translate(-170.763 -163.946)" fill="#fff"/>
      </g>
      <g id="Group_15253" data-name="Group 15253" transform="translate(9.96 2.198)">
        <path id="Path_14374" data-name="Path 14374" d="M166.874,164.9a.96.96,0,1,1-.964-.958A.961.961,0,0,1,166.874,164.9Z" transform="translate(-164.954 -163.946)" fill="#fff"/>
      </g>
      <g id="Group_15254" data-name="Group 15254" transform="translate(156.669 2.984)">
        <path id="Path_14375" data-name="Path 14375" d="M495.76,166.671a.961.961,0,1,1-.961-.963A.964.964,0,0,1,495.76,166.671Z" transform="translate(-493.839 -165.708)" fill="#fff"/>
      </g>
      <path id="Path_14376" data-name="Path 14376" d="M297.274,176h-2.043v-9.874h2.043Z" transform="translate(-227.157 -162.953)" fill="#fff"/>
      <path id="Path_14377" data-name="Path 14377" d="M459.677,176h-2.039v-9.874h2.039Z" transform="translate(-317.118 -162.953)" fill="#fff"/>
      <rect id="Rectangle_6530" data-name="Rectangle 6530" width="0.728" height="2.027" transform="translate(96.146 6.076)" fill="#fff"/>
      <path id="Path_14378" data-name="Path 14378" d="M532.1,171.894a3.5,3.5,0,0,0-3.553,3.627v.7a.83.83,0,0,1-.866.946h-3.79V174.88c0-1.827-1.068-2.65-3.018-2.65h-1.078v1.431H520.9c.881,0,.881.716.881.716v2.79h-4.052v2.025H527.77a2.322,2.322,0,0,0,1.811-.806,3.638,3.638,0,0,0,2.516.974,3.709,3.709,0,0,0,3.606-3.839A3.545,3.545,0,0,0,532.1,171.894Zm-.006,5.716a1.845,1.845,0,0,1-1.928-2.089,1.8,1.8,0,0,1,1.928-1.965,1.767,1.767,0,0,1,1.981,1.965C534.071,176.74,533.57,177.61,532.09,177.61Z" transform="translate(-350.403 -166.15)" fill="#fff"/>
      <path id="Path_14379" data-name="Path 14379" d="M500.8,173.06V176.9a.819.819,0,0,1-.881.914h-2.745a1.365,1.365,0,0,1-1.462-1.48v-2.8h-2.058v1.787a4.4,4.4,0,0,0,2.92,4.452,3.738,3.738,0,0,0,.718.069H500.1c2.559,0,2.756-2.192,2.756-3.061V173.06Z" transform="translate(-337.069 -166.796)" fill="#fff"/>
      <path id="Path_14380" data-name="Path 14380" d="M425.9,166.122v6.934a.821.821,0,0,1-.883.914h-2.774c-.655,0-.914-.474-.991-1.036a3.611,3.611,0,1,0-7.221.122.89.89,0,0,1-.9.914h-2.29a1.361,1.361,0,0,1-1.463-1.48v-6.369h-2.056v6.415a4.126,4.126,0,0,0,2.57,3.3,3.732,3.732,0,0,0,1.068.161h2.291a2.891,2.891,0,0,0,1.661-.471,3.443,3.443,0,0,0,2.726,1.294,3.392,3.392,0,0,0,2.866-1.508,3.06,3.06,0,0,0,1.839.685h2.85c2.555,0,2.758-2.192,2.758-3.061v-6.812Zm-8.294,8.995a1.845,1.845,0,0,1-1.923-2.09,1.8,1.8,0,0,1,1.923-1.965,1.773,1.773,0,0,1,1.991,1.965C419.6,174.25,419.093,175.117,417.607,175.117Z" transform="translate(-289.249 -162.953)" fill="#fff"/>
      <g id="Group_15255" data-name="Group 15255" transform="translate(111.432 3.169)">
        <path id="Path_14381" data-name="Path 14381" d="M395.959,173.971a1.355,1.355,0,0,1-1.46-1.48v-6.369h-2.07v6.2a4.159,4.159,0,0,0,2.721,3.554,3.282,3.282,0,0,0,.93.118h.884v-2.025Z" transform="translate(-392.429 -166.122)" fill="#fff"/>
      </g>
      <path id="Path_14382" data-name="Path 14382" d="M342.073,177.586V174.8s0-.716.886-.716h1.848v-1.431h-1.82c-1.952,0-3.013.823-3.013,2.65v2.288h-2.906a1.363,1.363,0,0,1-1.464-1.48V173.3h-2.056v2.268A4.118,4.118,0,0,0,336.2,179.5a3.177,3.177,0,0,0,.854.112h8.46v-2.025Z" transform="translate(-248.382 -166.568)" fill="#fff"/>
      <g id="Group_15256" data-name="Group 15256" transform="translate(57.855)">
        <path id="Path_14383" data-name="Path 14383" d="M279.715,166.122v6.934a.819.819,0,0,1-.881.914h-1.111a1.366,1.366,0,0,1-1.467-1.48v-6.369H274.2V171.6a4.414,4.414,0,0,0,2.865,4.31,3.554,3.554,0,0,0,.778.085h1.172c2.556,0,2.754-2.192,2.754-3.061v-6.812Z" transform="translate(-273.363 -162.953)" fill="#fff"/>
        <path id="Path_14384" data-name="Path 14384" d="M273.372,161.115a1.278,1.278,0,0,0,.662-.288.858.858,0,0,0,.692.288,1.137,1.137,0,0,0,1.085-.867v-1.23h-.733v1.23a.4.4,0,0,1-.314.153c-.22,0-.323-.153-.323-.5v-.88h-.732v1.23a.412.412,0,0,1-.321.153c-.227,0-.319-.153-.319-.5v-.88h-.747v.971A1.027,1.027,0,0,0,273.372,161.115Z" transform="translate(-272.322 -159.018)" fill="#fff"/>
      </g>
      <path id="Path_14385" data-name="Path 14385" d="M231.557,166.122v6.934a.82.82,0,0,1-.886.914H227.93a1.362,1.362,0,0,1-1.46-1.48v-6.369h-2.057v6.341a4.259,4.259,0,0,0,2.525,3.354,3.538,3.538,0,0,0,1.115.179h2.8c2.559,0,2.756-2.192,2.756-3.061v-6.812Z" transform="translate(-187.929 -162.953)" fill="#fff"/>
      <path id="Path_14386" data-name="Path 14386" d="M380.4,171.428h1.76v1.035h-3.923v-1.035h1.094v-1.166c0-.932.54-1.352,1.533-1.352h.931v.731h-.942c-.453,0-.453.364-.453.364Z" transform="translate(-273.135 -164.497)" fill="#fff"/>
      <rect id="Rectangle_6531" data-name="Rectangle 6531" width="0.368" height="1.034" transform="translate(108.518 4.408)" fill="#fff"/>
      <g id="Group_15257" data-name="Group 15257" transform="translate(0 3.169)">
        <path id="Path_14387" data-name="Path 14387" d="M479.374,176.5a1.317,1.317,0,0,1-.759.216h-2.546a.814.814,0,0,1-.868-.914v-4.726l-2.058.5v.517c-2.546.014-4.386.871-4.34,3.277a2.82,2.82,0,0,0,2.621,2.7,2.806,2.806,0,0,1,4.464.672h3.3a2.458,2.458,0,0,0,1.369-.39A4.775,4.775,0,0,1,479.374,176.5Zm-6.23-1.774c0,.976-.568,1.464-1.233,1.448a1.268,1.268,0,0,1-1.143-1.4c.045-1.419,1.324-1.168,2.376-1.168Z" transform="translate(-323.302 -168.864)" fill="#fff"/>
        <path id="Path_14388" data-name="Path 14388" d="M404.941,185.18a4.764,4.764,0,0,1-1.238-1.758,1.478,1.478,0,0,1-.65.132h-1.171v2.025h1.788a1.714,1.714,0,0,0,1.283-.385Z" transform="translate(-286.233 -175.705)" fill="#fff"/>
        <path id="Path_14389" data-name="Path 14389" d="M380.263,180.818a4.605,4.605,0,0,1-1.144-1.7.913.913,0,0,1-.363.074h-6.095a1.391,1.391,0,0,1-1.354-1.052,1.781,1.781,0,0,1,.306-1.28s-.612-.517-1.476-1.312a3.807,3.807,0,0,0-.813,2.592,3.424,3.424,0,0,0,3.411,3.077h6.308a1.567,1.567,0,0,0,1.224-.394Z" transform="translate(-268.195 -171.343)" fill="#fff"/>
        <path id="Path_14390" data-name="Path 14390" d="M319.588,177.445a1.486,1.486,0,0,1-.7.141h-3.452V175.3c0-1.827-1.067-2.65-3.02-2.65h-1.074v1.431h1.106c.881,0,.881.716.881.716v2.79h-4.053v2.025h10.186a2.129,2.129,0,0,0,1.3-.351A4.578,4.578,0,0,1,319.588,177.445Z" transform="translate(-234.937 -169.737)" fill="#fff"/>
        <path id="Path_14391" data-name="Path 14391" d="M261.23,176.505a1.352,1.352,0,0,1-.753.208H258.9a.816.816,0,0,1-.871-.914v-4.726l-2.056.5v.517c-2.544.014-4.383.871-4.343,3.277a2.827,2.827,0,0,0,2.624,2.7,2.39,2.39,0,0,0,1.992-.821,2.408,2.408,0,0,0,2.468,1.493h2.346a2.1,2.1,0,0,0,1.342-.422A4.57,4.57,0,0,1,261.23,176.505Zm-5.261-1.332c0,.977-.565,1.464-1.232,1.451a1.277,1.277,0,0,1-1.144-1.406c.047-1.417,1.321-1.861,2.376-1.861Z" transform="translate(-203.003 -168.864)" fill="#fff"/>
        <path id="Path_14392" data-name="Path 14392" d="M151.778,171.011a2.133,2.133,0,0,0,2.24,2.089,2.308,2.308,0,0,0,1.892-.808v.765a.816.816,0,0,1-.869.914H149.89a.817.817,0,0,1-.867-.914v-4.726l-2.058.5v.517c-2.544.014-4.383.871-4.339,3.277a2.821,2.821,0,0,0,2.622,2.7,2.4,2.4,0,0,0,1.994-.821A2.4,2.4,0,0,0,149.707,176h5.5c2.564,0,2.761-2.192,2.761-3.061l.015-4.422C154.642,168.512,151.871,168.286,151.778,171.011Zm-4.814,1.007c0,.976-.558,1.462-1.229,1.448a1.268,1.268,0,0,1-1.142-1.4c.045-1.417,1.321-1.166,2.371-1.166Zm7.788-.288a.963.963,0,0,1-1.006-.977c0-1.111,1.458-1.1,2.176-1.08C155.922,170.479,155.88,171.73,154.753,171.73Zm23.8,2.089a1.433,1.433,0,0,1-.67.152h-2.37a3.619,3.619,0,0,0,.288-1.371c0-2.377-2.289-3.566-4.173-3.566a5.2,5.2,0,0,0-1.346.205,4.321,4.321,0,0,0-2.633,4.028v-5.659h-1.86v6.363H162.7a.816.816,0,0,1-.866-.914v-6.934h-2.04v6.813c0,.869.175,3.061,2.74,3.061h15.933a1.944,1.944,0,0,0,1.27-.4A4.568,4.568,0,0,1,178.558,173.819Zm-6.458.152h-4.383a3.991,3.991,0,0,1,4.033-3.018c.643.046,1.938.411,1.938,1.676A1.511,1.511,0,0,1,172.1,173.971Z" transform="translate(-142.625 -166.122)" fill="#fff"/>
      </g>
    </g>
  </g>
</svg>
