<svg xmlns="http://www.w3.org/2000/svg" width="70.422" height="92.148" viewBox="0 0 70.422 92.148">
  <style>
    .spin{
      opacity: 0;
      transform-origin: center;
      <!-- transform: scale(0); -->
      animation-name: scale, spin;
      animation-duration: .6s;
      animation-iteration-count: infinite;
      animation-timing-function: linear;

      <!-- animation: spin .4s infinite linear, opacity .3s linear; -->
      <!-- animation: scale .4s infinite linear; -->
    }



    .shape{
      opacity: 0;
      position: relative;
      transform-origin: center;
      animation-name: opacity;
      animation-duration: 2s;
      animation-iteration-count: infinite;
      animation-timing-function: linear;
      animation-fill-mode: forwards;
      animation-delay: 1.2s;
    }


    .circle-1{
      animation-delay: 1.2s;
    }

    .circle-2{
      animation-delay: 1.2s;
    }
    .circle-3{
      animation-delay: 1s;
    }
    .circle-4{
      animation-delay: .8s;
    }
    .circle-5{
      animation-delay: .6s;
    }
    .circle-6{
      animation-delay: .4s;
    }
    .circle-7{
      animation-delay: .2s;
    }

    @keyframes spin {
      from {transform:rotate(0deg);}
      to {transform:rotate(360deg);}
    }

    @keyframes opacity {
      from {opacity: 0;}
      to {opacity: 1;}
      <!-- from {opacity: 1;} -->
    }

    @keyframes scale {
      from {transform: scale(0); opacity: 0;}
      to {transform: scale(1); opacity: 1;}
      from {transform: scale(1); opacity: 1;}
    }
  </style>
  <g class="logo-icon" transform="translate(-0.001 0)">
    <path class="shape bottom" d="M634.033,233.115a2.388,2.388,0,1,1-2.387-2.392A2.389,2.389,0,0,1,634.033,233.115Z" transform="translate(-596.266 -143.357)" fill="#f6780d"/>
    <path class="shape top" d="M629.57,80.724l1.492-.578v3.005c0,.764.358,1.161.94,1.161.548,0,.8-.43.8-1.161V80.328l1.486-.51v3.44a2.183,2.183,0,0,1-2.2,2.393,2.714,2.714,0,0,1-1.673-.578,2.827,2.827,0,0,1-1.491.578c-.968.075-2.569-.363-2.569-2.858V81.125l1.528-.55v2.576c0,.764.356,1.161.9,1.161s.794-.43.794-1.161Z" transform="translate(-595.043 -79.818)" fill="#f6780d"/>
    <g class="spin circle-1">
      <path data-name="Path 14350" d="M572.274,134.034a35.4,35.4,0,0,1,35.42-35.395h0v7.078a28.266,28.266,0,0,0-20.043,8.291h0a28.208,28.208,0,0,0-8.288,20.026h0a28.212,28.212,0,0,0,8.288,20.023h0a28.285,28.285,0,0,0,20.043,8.3h0v7.078a35.4,35.4,0,0,1-35.42-35.4Z" transform="translate(-572.273 -87.743)" fill="#00a1ed"/>
      <path data-name="Path 14892" d="M607.7,134.034a35.4,35.4,0,0,0-35.422-35.4h0v7.078a28.267,28.267,0,0,1,20.044,8.291h0a28.208,28.208,0,0,1,8.288,20.026h0a28.212,28.212,0,0,1-8.288,20.023h0a28.286,28.286,0,0,1-20.044,8.3h0v7.078a35.4,35.4,0,0,0,35.422-35.4Z" transform="translate(-537.273 -87.743)" fill="#00a1ed" opacity="0"/>
    </g>
    <g class="spin circle-2">
      <path data-name="Path 14349" d="M633.454,164.814a25.931,25.931,0,0,0,18.42-7.625h0A25.922,25.922,0,0,0,659.5,138.78h0a25.908,25.908,0,0,0-7.628-18.413h0a25.956,25.956,0,0,0-18.42-7.624h0V109.91a28.877,28.877,0,0,1,28.885,28.87h0a28.877,28.877,0,0,1-28.885,28.866h0v-2.832Z" transform="translate(-598.035 -92.488)" fill="#00a1ed"/>
      <path data-name="Path 14893" d="M662.339,164.814a25.931,25.931,0,0,1-18.42-7.625h0a25.922,25.922,0,0,1-7.628-18.409h0a25.908,25.908,0,0,1,7.628-18.413h0a25.956,25.956,0,0,1,18.42-7.624h0V109.91a28.877,28.877,0,0,0-28.885,28.869h0a28.877,28.877,0,0,0,28.885,28.866h0v-2.832Z" transform="translate(-627.035 -92.488)" fill="#00a1ed" opacity="0"/>
    </g>
    <g class="spin circle-3">
      <path data-name="Path 14348" d="M633.466,164.831a22.23,22.23,0,0,0,15.785-6.539h0a22.281,22.281,0,0,0,6.543-15.792h0a22.268,22.268,0,0,0-6.543-15.794h0a22.232,22.232,0,0,0-15.785-6.542h0v-1.418A23.747,23.747,0,0,1,657.2,142.5h0a23.744,23.744,0,0,1-23.737,23.753h0v-1.422Z" transform="translate(-598.039 -96.209)" fill="#006cbb"/>
      <path data-name="Path 14894" d="M657.2,164.831a22.229,22.229,0,0,1-15.784-6.539h0a22.281,22.281,0,0,1-6.543-15.792h0a22.268,22.268,0,0,1,6.543-15.794h0a22.231,22.231,0,0,1,15.784-6.542h0v-1.418A23.746,23.746,0,0,0,633.466,142.5h0A23.743,23.743,0,0,0,657.2,166.253h0v-1.422Z" transform="translate(-621.039 -96.209)" fill="#006cbb" opacity="0"/>
    </g>
    <g class="spin circle-4">
      <path data-name="Path 14347" d="M618.21,160.641a16.147,16.147,0,0,1,0-32.295v-4.855a21,21,0,0,0,0,42Z" transform="translate(-582.793 -98.207)" fill="#006cbb"/>
      <path data-name="Path 14895" d="M597.257,160.641a16.147,16.147,0,0,0,0-32.295v-4.855a21,21,0,0,1,0,42Z" transform="translate(-561.793 -98.207)" fill="#006cbb" opacity="0"/>
    </g>
    <g class="spin circle-5">
      <path data-name="Path 14346" d="M633.5,131.875h-.051v3.573l.051,0a12.576,12.576,0,1,1,0,25.153c-.017,0-.034,0-.051,0v3.574l.051,0a16.149,16.149,0,1,0,0-32.3Z" transform="translate(-598.031 -101.737)" fill="#ff9d10"/>
      <path data-name="Path 14896" d="M649.6,131.875h.051v3.573l-.051,0a12.576,12.576,0,1,0,0,25.153c.017,0,.034,0,.051,0v3.574l-.051,0a16.149,16.149,0,1,1,0-32.3Z" transform="translate(-614.031 -101.737)" fill="#ff9d10" opacity="0"/>
    </g>
    <g class="spin circle-6">
      <path data-name="Path 14345" d="M615,159.775h1.887a8.848,8.848,0,0,0,8.8,8.875h0a8.847,8.847,0,0,0,8.812-8.875h1.888a10.737,10.737,0,0,1-10.7,10.759h0A10.738,10.738,0,0,1,615,159.775Z" transform="translate(-590.264 -113.484)" fill="#f6780d"/>
      <path data-name="Path 14897" d="M636.384,170.534H634.5a8.848,8.848,0,0,0-8.8-8.875h0a8.847,8.847,0,0,0-8.812,8.875H615a10.737,10.737,0,0,1,10.7-10.759h0a10.737,10.737,0,0,1,10.686,10.759Z" transform="translate(-590.264 -123.484)" fill="#f6780d" opacity="0"/>
    </g>
    <g class="spin circle-7">
      <path data-name="Path 14344" d="M621.618,154.72a6.918,6.918,0,0,1,6.853-6.952h0v3.07a3.847,3.847,0,0,0-3.788,3.882h0a3.851,3.851,0,0,0,3.788,3.879h0v3.066a6.918,6.918,0,0,1-6.853-6.945Z" transform="translate(-593.051 -108.429)" fill="#ff9d10"/>
      <path data-name="Path 14898" d="M628.472,154.72a6.918,6.918,0,0,0-6.854-6.952h0v3.07a3.848,3.848,0,0,1,3.788,3.882h0a3.852,3.852,0,0,1-3.788,3.879h0v3.066a6.918,6.918,0,0,0,6.854-6.945Z" transform="translate(-586.051 -108.429)" fill="#ff9d10" opacity="0"/>
    </g>
  </g>
</svg>
