<svg xmlns="http://www.w3.org/2000/svg" width="116.976" height="105.515" viewBox="0 0 116.976 105.515">
  <g id="search_1_" data-name="search (1)" transform="translate(-0.583 -2.29)">
    <path id="Path_15088" data-name="Path 15088" d="M105.527,87.363c0-23.229,12.032-39.18,12.032-50.373s-6.434-34.7-57.926-34.7S.583,33.914.583,46.225C.583,103.876,105.527,128.5,105.527,87.363Z" fill="#f5f6fa"/>
    <path id="Path_15089" data-name="Path 15089" d="M34.037,22.075a5.037,5.037,0,1,1,5.037-5.037A5.043,5.043,0,0,1,34.037,22.075Zm0-6.716a1.679,1.679,0,1,0,1.679,1.679A1.682,1.682,0,0,0,34.037,15.358Z" transform="translate(67.013 22.898)" fill="#a4afc1"/>
    <path id="Path_15092" data-name="Path 15092" d="M34.791,51.582A16.791,16.791,0,1,1,51.582,34.791,16.81,16.81,0,0,1,34.791,51.582Zm0-28.545A11.754,11.754,0,1,0,46.545,34.791,11.767,11.767,0,0,0,34.791,23.037Z" transform="translate(41.073 37.047)" fill="#a4afc1"/>
    <path id="Path_15093" data-name="Path 15093" d="M0,0H5.037V15.434H0Z" transform="translate(84.138 83.695) rotate(-45)" fill="#a4afc1"/>
    <path id="Path_15094" data-name="Path 15094" d="M41.362,76.522H15.235A9.243,9.243,0,0,1,6,67.287V15.235A9.243,9.243,0,0,1,15.235,6H53.854a9.243,9.243,0,0,1,9.235,9.235V38.877H58.052V15.235a4.2,4.2,0,0,0-4.2-4.2H15.235a4.2,4.2,0,0,0-4.2,4.2V67.287a4.2,4.2,0,0,0,4.2,4.2H41.362Z" transform="translate(12.774 8.749)" fill="#a4afc1"/>
    <path id="Path_15095" data-name="Path 15095" d="M9.75,14h31.9v5.037H9.75Z" transform="translate(21.618 27.615)" fill="#a4afc1"/>
    <path id="Path_15096" data-name="Path 15096" d="M9.75,18H28.22v5.037H9.75Z" transform="translate(21.618 37.047)" fill="#a4afc1"/>
    <path id="Path_15097" data-name="Path 15097" d="M9.75,10H24.862v5.037H9.75Z" transform="translate(21.618 18.182)" fill="#a4afc1"/>
  </g>
</svg>
