<svg xmlns="http://www.w3.org/2000/svg" width="135.713" height="150.656" viewBox="0 0 135.713 150.656">
  <g id="password" transform="translate(-2.335 -0.611)">
    <path id="Path_14700" data-name="Path 14700" d="M110.986,14.919C81.031,15.478,60.164.342,45.731.615S1.129,9.751,2.373,76.163s42.21,75.392,58.091,75.1c74.348-1.391,103.58-137.334,50.523-136.342Z" transform="translate(0 0)" fill="#f5f6fa"/>
    <path id="Path_14701" data-name="Path 14701" d="M10,23.5A6.5,6.5,0,1,1,16.5,17,6.506,6.506,0,0,1,10,23.5Zm0-8.664A2.166,2.166,0,1,0,12.164,17,2.17,2.17,0,0,0,10,14.832Z" transform="translate(3.88 32.949)" fill="#a4afc1"/>
    <path id="Path_14702" data-name="Path 14702" d="M8.75,13.75h6.5V41.907H8.75Z" transform="translate(21.373 43.777)"/>
    <path id="Path_14703" data-name="Path 14703" d="M17.25,13.75h6.5V41.907h-6.5Z" transform="translate(49.694 43.777)"/>
    <path id="Path_14704" data-name="Path 14704" d="M0,0H28.157V6.5H0Z" transform="matrix(0.866, -0.5, 0.5, 0.866, 56.372, 75.836)"/>
    <path id="Path_14705" data-name="Path 14705" d="M0,0H6.5V28.157H0Z" transform="matrix(0.5, -0.866, 0.866, 0.5, 56.372, 67.38)"/>
    <path id="Path_14706" data-name="Path 14706" d="M0,0H28.157V6.5H0Z" transform="matrix(0.866, -0.5, 0.5, 0.866, 19.551, 75.836)"/>
    <path id="Path_14707" data-name="Path 14707" d="M0,0H6.5V28.157H0Z" transform="matrix(0.5, -0.866, 0.866, 0.5, 19.555, 67.38)"/>
    <path id="Path_14708" data-name="Path 14708" d="M25.75,13.75h6.5V41.907h-6.5Z" transform="translate(78.015 43.777)"/>
    <path id="Path_14709" data-name="Path 14709" d="M0,0H28.157V6.5H0Z" transform="matrix(0.866, -0.5, 0.5, 0.866, 93.193, 75.84)"/>
    <path id="Path_14710" data-name="Path 14710" d="M0,0H6.5V28.157H0Z" transform="matrix(0.5, -0.866, 0.866, 0.5, 93.193, 67.38)"/>
    <path id="Path_14711" data-name="Path 14711" d="M6.75,23H30.575v6.5H6.75Z" transform="translate(14.709 74.597)"/>
    <path id="Path_14712" data-name="Path 14712" d="M15.25,23H39.075v6.5H15.25Z" transform="translate(43.03 74.597)"/>
    <path id="Path_14713" data-name="Path 14713" d="M23.75,23H47.575v6.5H23.75Z" transform="translate(71.351 74.597)"/>
  </g>
</svg>
