<svg xmlns="http://www.w3.org/2000/svg" width="18" height="21" viewBox="0 0 18 21">
  <g id="user" transform="translate(-6 -7)">
    <path id="Path_14799" data-name="Path 14799" d="M4.25,0A4.25,4.25,0,1,1,0,4.25,4.25,4.25,0,0,1,4.25,0Z" transform="translate(10.75 7.75)" fill="#00adee"/>
    <path id="Path_14790" data-name="Path 14790" d="M10.75,19.75h8.5a4,4,0,0,1,4,4v3.5H6.75v-3.5A4,4,0,0,1,10.75,19.75Z" fill="#00adee"/>
    <path id="Path_14791" data-name="Path 14791" d="M13,12a4.238,4.238,0,0,1,3.125-4.08A4.188,4.188,0,0,0,15,7.75a4.25,4.25,0,0,0,0,8.5,4.188,4.188,0,0,0,1.125-.17A4.238,4.238,0,0,1,13,12Z" fill="#0080c5"/>
    <path id="Path_14792" data-name="Path 14792" d="M13,19.75H10.75a4,4,0,0,0-4,4v3.5H9v-3.5A4,4,0,0,1,13,19.75Z" fill="#0080c5"/>
    <path id="Path_14797" data-name="Path 14797" d="M15,17a5,5,0,1,1,5-5A5.006,5.006,0,0,1,15,17Zm0-8.5A3.5,3.5,0,1,0,18.5,12,3.5,3.5,0,0,0,15,8.5Z"/>
    <path id="Path_14798" data-name="Path 14798" d="M23.25,28H6.75A.75.75,0,0,1,6,27.25v-3.5A4.756,4.756,0,0,1,10.75,19h8.5A4.756,4.756,0,0,1,24,23.75v3.5A.75.75,0,0,1,23.25,28ZM7.5,26.5h15V23.75a3.254,3.254,0,0,0-3.25-3.25h-8.5A3.254,3.254,0,0,0,7.5,23.75Z"/>
  </g>
</svg>
