<svg xmlns="http://www.w3.org/2000/svg" width="28.488" height="25.558" viewBox="0 0 28.488 25.558">
  <g id="warning-toast" transform="translate(0.001 -26.315)">
    <path id="Path_15098" data-name="Path 15098" d="M22191.049,14484.93a3.351,3.351,0,0,1-2.9-5.023l10.889-18.861a3.349,3.349,0,0,1,5.8,0l10.891,18.861a3.351,3.351,0,0,1-2.9,5.023Zm9.434-23.049-10.889,18.856a1.679,1.679,0,0,0,1.455,2.521h21.777a1.679,1.679,0,0,0,1.455-2.521l-10.889-18.856a1.678,1.678,0,0,0-2.91,0Zm.34,16.944a1.112,1.112,0,1,1,1.115,1.115A1.114,1.114,0,0,1,22200.822,14478.825Zm.279-2.782v-8.341h1.666v8.341Z" transform="translate(-22187.695 -14433.057)" fill="#fff"/>
  </g>
</svg>
