<svg xmlns="http://www.w3.org/2000/svg" width="43.596" height="43.596" viewBox="0 0 43.596 43.596">
  <g id="solar-house" transform="translate(0 0)">
    <path id="Path_14833" data-name="Path 14833" d="M356.087,40.174A4.087,4.087,0,1,0,352,36.087,4.092,4.092,0,0,0,356.087,40.174Zm0-6.812a2.725,2.725,0,1,1-2.725,2.725A2.728,2.728,0,0,1,356.087,33.362Z" transform="translate(-322.028 -29.276)" fill="#00adee"/>
    <path id="Path_14834" data-name="Path 14834" d="M392,0h1.362V1.362H392Z" transform="translate(-358.622 0)" fill="#00adee"/>
    <path id="Path_14835" data-name="Path 14835" d="M392,144h1.362v1.362H392Z" transform="translate(-358.622 -131.739)" fill="#00adee"/>
    <path id="Path_14836" data-name="Path 14836" d="M0,0H1.362V1.362H0Z" transform="translate(28.731 2.479) rotate(-45)" fill="#00adee"/>
    <path id="Path_14837" data-name="Path 14837" d="M0,0H1.362V1.362H0Z" transform="translate(37.4 11.151) rotate(-45)" fill="#00adee"/>
    <path id="Path_14838" data-name="Path 14838" d="M0,0H1.362V1.362H0Z" transform="translate(37.398 2.478) rotate(-45)" fill="#00adee"/>
    <path id="Path_14839" data-name="Path 14839" d="M0,0H1.362V1.362H0Z" transform="translate(28.73 11.15) rotate(-45)" fill="#00adee"/>
    <path id="Path_14840" data-name="Path 14840" d="M320,72h1.362v1.362H320Z" transform="translate(-292.752 -65.87)" fill="#00adee"/>
    <path id="Path_14841" data-name="Path 14841" d="M464,72h1.362v1.362H464Z" transform="translate(-424.491 -65.87)" fill="#00adee"/>
    <path id="Path_14842" data-name="Path 14842" d="M42.915,39.509H36.1v-.681a1.364,1.364,0,0,0-1.362-1.362H34.06V32.7h8.855a.681.681,0,0,0,.656-.865l-1.144-4.087h0l-1.144-4.085h0L40.138,19.57a.681.681,0,0,0-.656-.5H23.842a.681.681,0,0,0-.656.5l-1.144,4.087h0L20.9,27.744h0l-1.144,4.087a.681.681,0,0,0,.656.865h9.564v4.768h-.681a1.364,1.364,0,0,0-1.362,1.362v.681H25.2v-5.45H23.842v5.45H19.073V27.247a5.45,5.45,0,1,0-10.9,0V39.509H3.406V14.661L13.624,5.675l7.244,6.371,2.923,2.571.05,3.1L25.2,17.7l-.044-2.714h1.406a.681.681,0,0,0,.681-.681V12.261a.681.681,0,0,0-.227-.508L14.078.173a.681.681,0,0,0-.908,0L.227,11.753A.681.681,0,0,0,0,12.261V14.3a.681.681,0,0,0,.681.681H2.044V39.509H.681A.681.681,0,0,0,0,40.19v2.725a.681.681,0,0,0,.681.681H42.915a.681.681,0,0,0,.681-.681V40.19a.681.681,0,0,0-.681-.681ZM1.362,12.566,13.624,1.595,25.885,12.566v1.058H24.725L14.074,4.256a.681.681,0,0,0-.8-.075h0l-.013.008h0l-.011.007h0l-.009.006,0,0-.007,0-.006,0-.005,0-.008.006,0,0-.01.008h0l-.011.009h0l-.01.009L2.469,13.623H1.362ZM23.214,24.522h4.494l-.272,2.725H22.451Zm17.659,2.725H35.889l-.272-2.725H40.11Zm-7.034-6.812.273,2.725h-4.9l.272-2.725Zm-4.761,4.087h5.17l.272,2.725H28.8ZM36.3,31.334l-.272-2.725h5.229l.763,2.725Zm2.668-10.9.763,2.725H35.48l-.273-2.725Zm-14.607,0h3.758l-.272,2.725H23.6ZM22.07,28.61H27.3l-.273,2.725h-5.72Zm6.6,0h5.988l.272,2.725H28.4ZM31.335,32.7H32.7v4.768H31.335Zm-2.044,6.131h5.45v.681h-5.45ZM9.537,27.247a4.087,4.087,0,1,1,8.174,0V39.509H9.537Zm32.7,14.986H1.362V40.871H42.234Z" transform="translate(0 0)" fill="#00adee"/>
    <path id="Path_14843" data-name="Path 14843" d="M176,368h1.362v2.725H176Z" transform="translate(-161.014 -336.666)" fill="#00adee"/>
    <path id="Path_14844" data-name="Path 14844" d="M105.537,116.087a4.087,4.087,0,0,0-8.174,0v5.45H96V122.9h10.9v-1.362h-1.362Zm-4.087-2.725a2.728,2.728,0,0,1,2.725,2.725v2.725h-5.45v-2.725A2.728,2.728,0,0,1,101.45,113.362Zm-2.725,8.174v-1.362h5.45v1.362Z" transform="translate(-87.826 -102.464)" fill="#00adee"/>
  </g>
</svg>
