<svg xmlns="http://www.w3.org/2000/svg" width="43.516" height="41.827" viewBox="0 0 43.516 41.827">
  <g id="zero-waste" transform="translate(0 -9.931)">
    <path id="Path_14849" data-name="Path 14849" d="M271.027,31.294a10.681,10.681,0,1,0-10.681-10.681A10.693,10.693,0,0,0,271.027,31.294Zm0-20.088a9.406,9.406,0,1,1-9.406,9.406,9.417,9.417,0,0,1,9.406-9.406Z" transform="translate(-238.219)" fill="#00adee"/>
    <path id="Path_14850" data-name="Path 14850" d="M331.436,51.536a.806.806,0,0,0,.771.574,17.314,17.314,0,0,0,2.192-.5.637.637,0,0,0-.293-1.241l-.725.171,1.9-3.3a.255.255,0,0,1,.442,0l1.212,2.1a.637.637,0,0,0,1.1-.637l-1.213-2.1a1.53,1.53,0,0,0-2.65,0l-1.9,3.3-.214-.713a.637.637,0,0,0-1.221.367Z" transform="translate(-302.7 -32.861)" fill="#00adee"/>
    <path id="Path_14851" data-name="Path 14851" d="M307.338,138.807h3.809l-.51.542a.637.637,0,1,0,.928.874l1.414-1.5a.806.806,0,0,0,0-1.1l-1.414-1.5a.637.637,0,1,0-.928.874l.51.542h-3.809a.255.255,0,0,1-.221-.383l1.212-2.1a.637.637,0,0,0-1.1-.637l-1.212,2.1a1.53,1.53,0,0,0,1.325,2.3Z" transform="translate(-279.815 -113.609)" fill="#00adee"/>
    <path id="Path_14852" data-name="Path 14852" d="M411.648,108.665a.637.637,0,0,0,.794-.427l.214-.713,1.9,3.3a.255.255,0,0,1-.221.383h-2.425a.637.637,0,0,0,0,1.275h2.425a1.53,1.53,0,0,0,1.325-2.3l-1.9-3.3.725.171a.637.637,0,1,0,.293-1.241l-2.006-.474a.8.8,0,0,0-.583.084l-.005,0a.8.8,0,0,0-.369.466l-.593,1.975A.637.637,0,0,0,411.648,108.665Z" transform="translate(-376.246 -87.284)" fill="#00adee"/>
    <path id="Path_14853" data-name="Path 14853" d="M42.51,102.837c-.938-.067-1.442,3.01-2.025,2.636a5.087,5.087,0,0,0-2.555-.957.637.637,0,0,0-.106,1.271,3.854,3.854,0,0,1,1.973.76,5.11,5.11,0,0,0,2.444.947v2.964a3.972,3.972,0,0,1-1.755-.736,5.341,5.341,0,0,0-6.163,0,4.074,4.074,0,0,1-4.785,0,5.34,5.34,0,0,0-6.162,0,3.828,3.828,0,0,1-2.573.773v-2.973c.06,0,.119,0,.18,0a5.055,5.055,0,0,0,3.081-.978,4.074,4.074,0,0,1,4.785,0,5.34,5.34,0,0,0,6.163,0c.111-.071.221-.142.335-.211a.637.637,0,0,0-.661-1.09c-.123.075-.243.151-.363.228a4.074,4.074,0,0,1-4.786,0,5.34,5.34,0,0,0-6.162,0,3.823,3.823,0,0,1-2.393.777c-.061,0-.121,0-.18,0v-5.475h.641A1.078,1.078,0,0,0,22.52,99.7V97.208a1.078,1.078,0,0,0-1.076-1.076h-1.1V89.286A6.494,6.494,0,0,0,13.852,82.8H6.882v-.244a2.4,2.4,0,0,0-2.393-2.393H1.076A1.077,1.077,0,0,0,0,81.239v1.829a.637.637,0,1,0,1.275,0v-1.63H4.489a1.119,1.119,0,0,1,1.118,1.118v8.68a1.119,1.119,0,0,1-1.118,1.118H1.275v-9.71a.637.637,0,0,0-1.275,0v9.909a1.078,1.078,0,0,0,1.076,1.076H4.489a2.4,2.4,0,0,0,2.393-2.393V90.99h4.35a.918.918,0,0,1,.916.917v4.224h-1.1a1.078,1.078,0,0,0-1.076,1.076V99.7a1.078,1.078,0,0,0,1.076,1.076h.641v5.137a3.634,3.634,0,0,1-1.649.342,3.823,3.823,0,0,1-2.393-.777,5.087,5.087,0,0,0-2.549-.956,1.077,1.077,0,0,0-1.169,1.072V113.2a1.081,1.081,0,0,0,.7,1.008,1.07,1.07,0,0,0,.3.065,3.842,3.842,0,0,1,2.025.764,5.055,5.055,0,0,0,3.081.979,5.055,5.055,0,0,0,3.081-.978,3.823,3.823,0,0,1,2.393-.777,3.823,3.823,0,0,1,2.393.777,5.34,5.34,0,0,0,6.162,0,4.074,4.074,0,0,1,4.785,0,5.34,5.34,0,0,0,6.162,0,4.074,4.074,0,0,1,4.786,0,5.089,5.089,0,0,0,2.552.957,1.077,1.077,0,0,0,1.167-1.073v-7.615c0-.561-.441-4.433-1.005-4.474ZM11.232,89.716H6.882V84.075h6.971a5.218,5.218,0,0,1,5.212,5.212v6.846H13.423V91.908A2.194,2.194,0,0,0,11.232,89.716Zm.011,7.691h10V99.5h-10Zm-4.288,9.14a5.055,5.055,0,0,0,3.081.978,5.2,5.2,0,0,0,1.649-.244v2.876a3.58,3.58,0,0,1-1.649.341,3.823,3.823,0,0,1-2.393-.777,5.114,5.114,0,0,0-2.443-.945V105.81a3.954,3.954,0,0,1,1.755.736Zm35.285,8.159a3.954,3.954,0,0,1-1.756-.736,5.34,5.34,0,0,0-6.162,0,4.074,4.074,0,0,1-4.785,0,5.34,5.34,0,0,0-6.162,0,4.074,4.074,0,0,1-4.785,0,5.055,5.055,0,0,0-3.081-.978,5.055,5.055,0,0,0-3.081.978,3.823,3.823,0,0,1-2.393.777,3.822,3.822,0,0,1-2.393-.777,5.116,5.116,0,0,0-2.443-.947v-2.964a3.969,3.969,0,0,1,1.755.736,5.055,5.055,0,0,0,3.081.978,4.8,4.8,0,0,0,2.608-.685.637.637,0,0,0,.316-.55v-9.766h6.568v9.47a5.705,5.705,0,0,1-.938-.52,7.3,7.3,0,0,0-1.025-.578.637.637,0,1,0-.514,1.166,6.226,6.226,0,0,1,.851.485,5.34,5.34,0,0,0,6.162,0,4.074,4.074,0,0,1,4.785,0,5.34,5.34,0,0,0,6.162,0,4.075,4.075,0,0,1,4.786,0,5.107,5.107,0,0,0,2.443.947Z" transform="translate(0 -64.263)" fill="#00adee"/>
  </g>
</svg>
