<svg xmlns="http://www.w3.org/2000/svg" width="42.62" height="42.62" viewBox="0 0 42.62 42.62">
  <g id="green_energy" data-name="green energy" transform="translate(-1.738 -1.738)">
    <path id="Path_14882" data-name="Path 14882" d="M41.6,23.933a28.61,28.61,0,0,0,2.1-5.616c1.42-5.613.53-10.376-2.507-13.412S33.392.978,27.779,2.4a28.616,28.616,0,0,0-5.616,2.1,28.573,28.573,0,0,0-4.293-1.62C12.375,1.319,7.77,2.038,4.9,4.9S1.319,12.375,2.879,17.871A28.578,28.578,0,0,0,4.5,22.163,28.615,28.615,0,0,0,2.4,27.78C.977,33.392,1.868,38.155,4.9,41.192a11.589,11.589,0,0,0,8.452,3.166,20.293,20.293,0,0,0,4.96-.66,28.616,28.616,0,0,0,5.616-2.1,28.573,28.573,0,0,0,4.293,1.62,19.675,19.675,0,0,0,5.345.807,10.434,10.434,0,0,0,7.621-2.831c2.866-2.866,3.585-7.471,2.025-12.966a28.578,28.578,0,0,0-1.62-4.293ZM28.273,4.348a18.263,18.263,0,0,1,4.46-.6,9.644,9.644,0,0,1,7.037,2.576c2.515,2.516,3.218,6.6,1.979,11.5a25.618,25.618,0,0,1-1.318,3.844,42.275,42.275,0,0,0-6.949-9.052,42.275,42.275,0,0,0-9.052-6.949,25.618,25.618,0,0,1,3.844-1.318ZM39.35,23.909a37.655,37.655,0,0,1-6.62,8.821,37.655,37.655,0,0,1-8.821,6.62,39.356,39.356,0,0,1-9.872-7.291,39.344,39.344,0,0,1-7.29-9.872,39.086,39.086,0,0,1,15.44-15.44,39.356,39.356,0,0,1,9.872,7.291,39.354,39.354,0,0,1,7.291,9.871ZM4.814,17.322C3.462,12.559,4,8.654,6.326,6.327a8.489,8.489,0,0,1,6.2-2.243,17.675,17.675,0,0,1,4.792.73,25.437,25.437,0,0,1,2.6.9A41.476,41.476,0,0,0,5.713,19.922a25.446,25.446,0,0,1-.9-2.6ZM17.823,41.749a18.259,18.259,0,0,1-4.46.6A9.644,9.644,0,0,1,6.326,39.77c-2.515-2.516-3.218-6.6-1.979-11.5a25.618,25.618,0,0,1,1.318-3.844,42.275,42.275,0,0,0,6.949,9.053,42.272,42.272,0,0,0,9.052,6.949,25.618,25.618,0,0,1-3.844,1.318ZM39.769,39.77c-2.328,2.328-6.232,2.864-10.995,1.512a25.444,25.444,0,0,1-2.6-.9,40.378,40.378,0,0,0,7.978-6.231,40.372,40.372,0,0,0,6.231-7.978,25.445,25.445,0,0,1,.9,2.6C42.634,33.537,42.1,37.442,39.769,39.77Z" transform="translate(0)" fill="#00adee"/>
    <path id="Path_14883" data-name="Path 14883" d="M148.977,151.445a1.024,1.024,0,0,0-1.362.21.984.984,0,0,0,.092,1.335.6.6,0,0,1,.149.4c-.026.21-.266.48-.658.741-1.967,1.311-3.2,2.226-3.749,3.871a4.887,4.887,0,0,0,.883,4.545,17.5,17.5,0,0,0-1.411,2,15.733,15.733,0,0,0-2.243-4.852,4.975,4.975,0,0,0,1.326-5.044c-.548-1.645-1.782-2.56-3.749-3.871-.392-.262-.632-.532-.658-.741a.6.6,0,0,1,.149-.4.984.984,0,0,0,.092-1.335,1.024,1.024,0,0,0-1.362-.21c-.183.119-4.479,2.977-4.479,7.547a5.43,5.43,0,0,0,2.553,4.668,5.15,5.15,0,0,0,2.71.781,4.962,4.962,0,0,0,1.721-.309,13.029,13.029,0,0,1,2.4,7.6,1,1,0,0,0,.058.334,8.975,8.975,0,0,0-.058,1.007,1.006,1.006,0,0,0,2.011,0,9.312,9.312,0,0,1,2.458-5.863c.036.02.073.04.109.058a4.968,4.968,0,0,0,2.226.527,5.151,5.151,0,0,0,2.71-.781,5.43,5.43,0,0,0,2.553-4.668C153.456,154.422,149.16,151.564,148.977,151.445ZM135.611,158.6a3.388,3.388,0,0,1-1.6-2.957,6.719,6.719,0,0,1,1.921-4.395,3.831,3.831,0,0,0,1.209,1.208c1.941,1.294,2.64,1.885,2.956,2.834a2.906,2.906,0,0,1-.623,2.741l-.261-.341c-1.033-1.349-1.85-2.414-1.85-3.388a1.006,1.006,0,0,0-2.011,0c0,1.656,1.049,3.026,2.265,4.612l.1.13A3.106,3.106,0,0,1,135.611,158.6Zm14.234,3.352a3.067,3.067,0,0,1-2.611.32l.248-.273c1.406-1.547,2.622-2.884,2.622-4.345a1.006,1.006,0,1,0-2.011,0c0,.684-1.067,1.857-2.1,2.992l-.3.332a2.781,2.781,0,0,1-.334-2.336c.316-.949,1.016-1.54,2.956-2.834a3.826,3.826,0,0,0,1.209-1.208,6.72,6.72,0,0,1,1.921,4.395A3.388,3.388,0,0,1,149.845,161.949Z" transform="translate(-119.345 -133.932)" fill="#00adee"/>
  </g>
</svg>
