<svg xmlns="http://www.w3.org/2000/svg" width="45.775" height="45.775" viewBox="0 0 45.775 45.775">
  <g id="solar-energy" transform="translate(-4.75 -4.75)">
    <path id="Path_14845" data-name="Path 14845" d="M43.527,43.973V35.487l7.2-12.022a.676.676,0,0,0-.579-1.023H26.892a.676.676,0,0,0-.579.329l-13.3,22.212a.676.676,0,0,0,.579,1.023H36.847a.676.676,0,0,0,.579-.329l.627-1.049c.021.005.042.008.064.011v8.389H27.932a.676.676,0,0,0-.676.676V57.76H24.278V57.23a.676.676,0,0,0-.676-.676H21.959V51.436a.676.676,0,0,0-.676-.676H19.654V49.118a.676.676,0,0,0-.676-.676H16.66a.676.676,0,0,0-.676.676V50.76H11.206V49.118a.676.676,0,0,0-.676-.676H8.212a.676.676,0,0,0-.676.676V50.76H5.906a.676.676,0,0,0-.676.676v9.271a.676.676,0,0,0,.676.676H21.283a.676.676,0,0,0,.676-.676v-.483H23.6a.676.676,0,0,0,.676-.676v-.437h3.654a.676.676,0,0,0,.676-.676V54.38h9.51V55.4h-2.4a.676.676,0,0,0-.676.676v1.642h-2.2a.676.676,0,0,0-.676.676v2.318a.676.676,0,0,0,.676.676H48.22a.676.676,0,0,0,.676-.676V58.389a.676.676,0,0,0-.676-.676h-2.2V56.072a.676.676,0,0,0-.676-.676h-2.4V44.637a.674.674,0,0,0,.579-.664Zm-26.19,5.821H18.3v.966h-.966Zm-8.448,0h.966v.966H8.888ZM20.607,60.031H6.582V52.112H20.607Zm2.318-1.159h-.966v-.966h.966ZM42.174,43.3H38.89V43.23l3.283-5.485Zm-19.7,1.357,1.85-3.09h6.113l-1.85,3.09Zm2.659-4.442,1.85-3.09H33.1l-1.85,3.09ZM19.3,37.121H25.41l-1.85,3.09H17.447Zm2.659-4.442H28.07l-1.85,3.09H20.106Zm2.66-4.442h6.113l-1.85,3.09H22.766Zm16.461-4.442-1.85,3.09H33.114l1.85-3.09Zm-2.66,4.442-1.85,3.09H30.455l1.85-3.09Zm6.026,3.09h-6.3l1.85-3.09h6.3Zm-2.66,4.442h-6.3l1.85-3.09h6.3Zm-7.874,0H27.8l1.85-3.09h6.113Zm.766,1.352h6.3l-1.85,3.09h-6.3ZM47.1,26.884H40.8l1.85-3.09h6.3Zm-19.826-3.09h6.111l-1.85,3.09H25.425ZM16.639,41.563h6.111l-1.85,3.09H14.788Zm19.826,3.09h-6.3l1.85-3.09h6.3ZM47.544,60.031H33.519v-.966H47.544Zm-2.872-2.318h-8.28v-.966h8.282Zm-5.2-2.318V44.649H41.6V55.4Z" transform="translate(-0.295 -10.858)" fill="#00adee"/>
    <path id="Path_14846" data-name="Path 14846" d="M5.426,12.476h1.11A5.273,5.273,0,0,0,7.6,15.04l-.788.788a.677.677,0,1,0,.958.958L8.559,16a5.273,5.273,0,0,0,2.565,1.065v1.11a.676.676,0,1,0,1.352,0v-1.11A5.273,5.273,0,0,0,15.04,16l.788.788a.677.677,0,1,0,.958-.958L16,15.04a5.273,5.273,0,0,0,1.065-2.565h1.11a.676.676,0,1,0,0-1.352h-1.11A5.273,5.273,0,0,0,16,8.559l.788-.788a.677.677,0,1,0-.958-.958L15.04,7.6a5.277,5.277,0,0,0-2.565-1.065V5.426a.676.676,0,0,0-1.352,0v1.11A5.277,5.277,0,0,0,8.559,7.6l-.788-.788a.677.677,0,1,0-.958.958l.789.788a5.273,5.273,0,0,0-1.065,2.565H5.426a.676.676,0,1,0,0,1.352ZM11.8,7.84A3.959,3.959,0,1,1,7.84,11.8,3.959,3.959,0,0,1,11.8,7.84Z" fill="#00adee"/>
    <path id="Path_14847" data-name="Path 14847" d="M11.906,106a.676.676,0,0,0-.676.676v2.414a.676.676,0,0,0,1.352,0v-2.414a.676.676,0,0,0-.676-.676Z" transform="translate(-3.977 -62.138)" fill="#00adee"/>
    <path id="Path_14848" data-name="Path 14848" d="M25.328,103.992h-.691l.509-1.468a.676.676,0,1,0-1.277-.443l-.82,2.366a.676.676,0,0,0,.639.9h.691l-.509,1.468a.676.676,0,0,0,.417.86.663.663,0,0,0,.221.039.676.676,0,0,0,.639-.455l.82-2.366a.676.676,0,0,0-.639-.9Z" transform="translate(-11.207 -59.454)" fill="#00adee"/>
  </g>
</svg>
