<svg xmlns="http://www.w3.org/2000/svg" width="39.333" height="39.333" viewBox="0 0 39.333 39.333">
  <g id="geothermal-energy" transform="translate(0.301 0.3)">
    <path id="Path_14870" data-name="Path 14870" d="M37.593,6.835H21.644A1.139,1.139,0,0,0,20.5,7.974V18.227H18.076L15.633.98A1.139,1.139,0,0,0,14.505,0H6.151A1.139,1.139,0,0,0,5.024.97L2.436,18.227h-1.3A1.139,1.139,0,0,0,0,19.366V26.2a1.139,1.139,0,0,0,1.139,1.139H9.113v2.946l-.334-.334a1.139,1.139,0,0,0-1.611,1.611l1.945,1.945V33.8a4.942,4.942,0,0,0,4.936,4.936H24.682A4.942,4.942,0,0,0,29.619,33.8v-.288l.334.334a1.139,1.139,0,0,0,1.611-1.611l-1.945-1.945V27.341h7.974A1.139,1.139,0,0,0,38.732,26.2V7.974a1.139,1.139,0,0,0-1.139-1.139ZM13.516,2.278l.323,2.279H6.79l.342-2.279ZM6.448,6.835h7.713l1.614,11.392H4.74ZM2.278,20.505H20.5v4.557H2.278ZM27.34,30.286,25.4,32.231a1.139,1.139,0,1,0,1.611,1.611l.334-.334V33.8a2.661,2.661,0,0,1-2.658,2.658H14.05A2.661,2.661,0,0,1,11.391,33.8v-.288l1.945-1.945a1.139,1.139,0,0,0-1.611-1.611l-.334.334V27.341H27.34Zm9.114-5.224H22.783V9.114h13.67Zm0,0" transform="translate(0)" fill="#00adee" stroke="#e5f7fe" stroke-linejoin="round" stroke-width="0.6"/>
    <path id="Path_14871" data-name="Path 14871" d="M338.443,157.423h3.629l-2.612,2.612a1.139,1.139,0,0,0,1.611,1.611l4.557-4.557a1.14,1.14,0,0,0-.806-1.945H341l2.39-2.655a1.139,1.139,0,1,0-1.694-1.524l-4.1,4.557A1.14,1.14,0,0,0,338.443,157.423Zm0,0" transform="translate(-311.786 -139.196)" fill="#00adee" stroke="#e5f7fe" stroke-linejoin="round" stroke-width="0.6"/>
  </g>
</svg>
