<svg xmlns="http://www.w3.org/2000/svg" width="48.344" height="47.998" viewBox="0 0 48.344 47.998">
  <g id="solar-panel" transform="translate(0 -1.476)">
    <g id="Group_15757" data-name="Group 15757" transform="translate(3.953 5.469)">
      <g id="Group_15756" data-name="Group 15756">
        <path id="Path_14854" data-name="Path 14854" d="M45.455,40.361A5.925,5.925,0,0,0,33.8,42.523a5.814,5.814,0,0,0,2.463,3.784,6.145,6.145,0,0,0,3.363,1.021,6.618,6.618,0,0,0,1.081-.12,5.329,5.329,0,0,0,3.784-2.4A6.129,6.129,0,0,0,45.455,40.361Zm-1.922,3.844a5.022,5.022,0,0,1-3.063,1.922A4.705,4.705,0,0,1,34.944,42.4a4.736,4.736,0,0,1,9.309-1.742A4.857,4.857,0,0,1,43.533,44.205Z" transform="translate(-33.7 -35.516)" fill="#00adee"/>
      </g>
    </g>
    <g id="Group_15759" data-name="Group 15759" transform="translate(7.53 1.476)">
      <g id="Group_15758" data-name="Group 15758" transform="translate(0 0)">
        <path id="Path_14855" data-name="Path 14855" d="M65.881,4.368l-.48-2.4a.613.613,0,0,0-1.2.24l.48,2.4a.647.647,0,0,0,.6.48h.12A.623.623,0,0,0,65.881,4.368Z" transform="translate(-64.19 -1.476)" fill="#00adee"/>
      </g>
    </g>
    <g id="Group_15761" data-name="Group 15761" transform="translate(10.593 17.873)">
      <g id="Group_15760" data-name="Group 15760" transform="translate(0 0)">
        <path id="Path_14856" data-name="Path 14856" d="M91.993,144.144l-.48-2.4a.613.613,0,1,0-1.2.24l.48,2.4a.585.585,0,0,0,.6.48h.12A.623.623,0,0,0,91.993,144.144Z" transform="translate(-90.302 -141.252)" fill="#00adee"/>
      </g>
    </g>
    <g id="Group_15763" data-name="Group 15763" transform="translate(11.434 22.618)">
      <g id="Group_15762" data-name="Group 15762">
        <path id="Path_14857" data-name="Path 14857" d="M99.762,188.016l-1.081-5.826a.613.613,0,1,0-1.2.24l1.081,5.826a.585.585,0,0,0,.6.48h.12A.623.623,0,0,0,99.762,188.016Z" transform="translate(-97.47 -181.7)" fill="#00adee"/>
      </g>
    </g>
    <g id="Group_15765" data-name="Group 15765" transform="translate(11.525 1.748)">
      <g id="Group_15764" data-name="Group 15764" transform="translate(0 0)">
        <path id="Path_14858" data-name="Path 14858" d="M99.851,3.832a.625.625,0,0,0-.781.36L98.29,6.535a.625.625,0,0,0,.36.781.454.454,0,0,0,.24.06.577.577,0,0,0,.541-.42l.781-2.342A.625.625,0,0,0,99.851,3.832Z" transform="translate(-98.252 -3.794)" fill="#00adee"/>
      </g>
    </g>
    <g id="Group_15767" data-name="Group 15767" transform="translate(14.593 4.516)">
      <g id="Group_15766" data-name="Group 15766">
        <path id="Path_14859" data-name="Path 14859" d="M127.321,27.6a.584.584,0,0,0-.841-.06l-1.862,1.622a.584.584,0,0,0-.06.841.682.682,0,0,0,.48.18c.12.06.24,0,.36-.12l1.862-1.622A.584.584,0,0,0,127.321,27.6Z" transform="translate(-124.405 -27.387)" fill="#00adee"/>
      </g>
    </g>
    <g id="Group_15769" data-name="Group 15769" transform="translate(16.179 8.924)">
      <g id="Group_15768" data-name="Group 15768">
        <path id="Path_14860" data-name="Path 14860" d="M141.531,65.454a.623.623,0,0,0-.721-.48l-2.4.48a.623.623,0,0,0-.48.721.585.585,0,0,0,.6.48h.12l2.4-.48C141.411,66.054,141.651,65.754,141.531,65.454Z" transform="translate(-137.918 -64.964)" fill="#00adee"/>
      </g>
    </g>
    <g id="Group_15771" data-name="Group 15771" transform="translate(16.03 12.979)">
      <g id="Group_15770" data-name="Group 15770" transform="translate(0 0)">
        <path id="Path_14861" data-name="Path 14861" d="M139.813,100.357l-2.342-.781a.608.608,0,0,0-.42,1.141l2.342.781a.221.221,0,0,0,.18.06.723.723,0,0,0,.6-.42A.625.625,0,0,0,139.813,100.357Z" transform="translate(-136.652 -99.538)" fill="#00adee"/>
      </g>
    </g>
    <g id="Group_15773" data-name="Group 15773" transform="translate(14.017 16.072)">
      <g id="Group_15772" data-name="Group 15772">
        <path id="Path_14862" data-name="Path 14862" d="M122.205,127.89l-1.682-1.8a.6.6,0,1,0-.9.781l1.682,1.862a.618.618,0,0,0,.9-.841Z" transform="translate(-119.494 -125.9)" fill="#00adee"/>
      </g>
    </g>
    <g id="Group_15775" data-name="Group 15775" transform="translate(6.421 17.57)">
      <g id="Group_15774" data-name="Group 15774">
        <path id="Path_14863" data-name="Path 14863" d="M56.276,138.684a.726.726,0,0,0-.781.42l-.721,2.342a.61.61,0,0,0,.42.781h.18a.723.723,0,0,0,.6-.42l.721-2.342A.61.61,0,0,0,56.276,138.684Z" transform="translate(-54.737 -138.673)" fill="#00adee"/>
      </g>
    </g>
    <g id="Group_15777" data-name="Group 15777" transform="translate(2.314 15.66)">
      <g id="Group_15776" data-name="Group 15776">
        <path id="Path_14864" data-name="Path 14864" d="M22.548,122.567a.581.581,0,0,0-.841,0l-1.8,1.682a.581.581,0,0,0,0,.841.581.581,0,0,0,.841,0l1.8-1.682A.58.58,0,0,0,22.548,122.567Z" transform="translate(-19.725 -122.387)" fill="#00adee"/>
      </g>
    </g>
    <g id="Group_15779" data-name="Group 15779" transform="translate(0 12.505)">
      <g id="Group_15778" data-name="Group 15778" transform="translate(0)">
        <path id="Path_14865" data-name="Path 14865" d="M3.575,95.946a.57.57,0,0,0-.721-.42l-2.4.6a.474.474,0,0,0-.42.661.585.585,0,0,0,.6.48h.12l2.4-.6A.652.652,0,0,0,3.575,95.946Z" transform="translate(0 -95.494)" fill="#00adee"/>
      </g>
    </g>
    <g id="Group_15781" data-name="Group 15781" transform="translate(0.114 8.175)">
      <g id="Group_15780" data-name="Group 15780">
        <path id="Path_14866" data-name="Path 14866" d="M4.073,59.281,1.731,58.62a.533.533,0,0,0-.721.42.559.559,0,0,0,.36.721l2.342.661h.18a.723.723,0,0,0,.6-.42A.533.533,0,0,0,4.073,59.281Z" transform="translate(-0.972 -58.583)" fill="#00adee"/>
      </g>
    </g>
    <g id="Group_15783" data-name="Group 15783" transform="translate(2.614 3.948)">
      <g id="Group_15782" data-name="Group 15782">
        <path id="Path_14867" data-name="Path 14867" d="M25.048,24.529l-1.742-1.8a.595.595,0,0,0-.841.841l1.742,1.8a.649.649,0,0,0,.42.18.545.545,0,0,0,.42-.18A.581.581,0,0,0,25.048,24.529Z" transform="translate(-22.285 -22.547)" fill="#00adee"/>
      </g>
    </g>
    <g id="Group_15785" data-name="Group 15785" transform="translate(13.665 24.789)">
      <g id="Group_15784" data-name="Group 15784">
        <path id="Path_14868" data-name="Path 14868" d="M151.148,218.529l-1.922-17.778a.639.639,0,0,0-.6-.541h-29.55a.639.639,0,0,0-.6.541l-1.982,17.718a1.132,1.132,0,0,0,.12.48.649.649,0,0,0,.42.18h11.352l-.541,4.565h-6.306a.6.6,0,0,0,0,1.2h24.685a.6.6,0,0,0,0-1.2h-6.367l-.6-4.5h11.352a.536.536,0,0,0,.541-.661Zm-3-17.057.3,2.943h-4.8l-.3-2.943ZM143.22,213.3h-5.105l-.18-3.243h4.985Zm-.36-4.445h-4.925l-.18-3.243h4.8Zm-.721-7.388.3,2.943h-4.745l-.12-2.943Zm-10.391,0h4.625l.12,2.943h-4.925Zm-.24,4.144h5.045l.18,3.243h-5.406Zm-.24,4.445h5.526l.18,3.243h-5.886Zm-.3,4.445h6.006l.18,3.484h-6.367Zm-4.985-13.033h4.565l-.18,2.943h-4.685Zm-.48,4.144h4.745l-.18,3.243H125.2Zm-.42,4.445h4.925l-.18,3.243h-5.045Zm-5.466-8.649h5.105l-.3,2.943h-5.165Zm3.544,16.577h-5.345l.36-3.484h5.285Zm.42-4.685h-5.285l.36-3.243h5.225Zm-4.8-4.445.36-3.243H124.3l-.3,3.243Zm5.526,9.129.36-3.484h5.105l-.18,3.484Zm4.8,5.766.541-4.5h8.409l.541,4.5Zm9.249-5.766-.18-3.484H143.4l.36,3.484Zm5.406-12.373h4.865l.3,3.243h-4.865Zm.42,4.445h4.925l.36,3.243h-4.925Zm.781,7.928-.36-3.484h4.925l.42,3.484Z" transform="translate(-116.493 -200.21)" fill="#00adee"/>
      </g>
    </g>
    <g id="Group_15787" data-name="Group 15787" transform="translate(20.655 14.421)">
      <g id="Group_15786" data-name="Group 15786" transform="translate(0 0)">
        <path id="Path_14869" data-name="Path 14869" d="M197.736,119.011l-20.841-7.147a.608.608,0,1,0-.42,1.141l20.9,7.147c.06,0,.12.06.18.06a.577.577,0,0,0,.541-.42A.625.625,0,0,0,197.736,119.011Z" transform="translate(-176.076 -111.826)" fill="#00adee"/>
      </g>
    </g>
  </g>
</svg>
