<svg xmlns="http://www.w3.org/2000/svg" width="48.002" height="47.998" viewBox="0 0 48.002 47.998">
  <g id="waste-energy" transform="translate(-2 -2)">
    <g id="Group_15812" data-name="Group 15812" transform="translate(2 2)">
      <path id="Path_14884" data-name="Path 14884" d="M5.858,29.994a.8.8,0,0,0,.7-.888L6.1,25.2H28.3L26.711,38.705a.8.8,0,0,0,.7.888.757.757,0,0,0,.094.006.8.8,0,0,0,.794-.706L29.91,25.2H31.6a.8.8,0,0,0,.8-.8V22.8A2.4,2.4,0,0,0,30,20.4H27.6v-.8a2.4,2.4,0,0,0-2.4-2.4H22.4l-2.16-2.88a.8.8,0,1,0-1.28.96L20.4,17.2H9.2a2.4,2.4,0,0,0-2.4,2.4v.8H4.4A2.4,2.4,0,0,0,2,22.8v1.6a.8.8,0,0,0,.8.8H4.489l.48,4.093a.8.8,0,0,0,.8.706.755.755,0,0,0,.094-.006ZM3.6,22.8a.8.8,0,0,1,.8-.8H19.6a.8.8,0,0,0,0-1.6H8.4v-.8a.8.8,0,0,1,.8-.8h16a.8.8,0,0,1,.8.8v.8H22.8a.8.8,0,0,0,0,1.6H30a.8.8,0,0,1,.8.8v.8H3.6Z" transform="translate(-2 -4.4)" fill="#00adee"/>
      <path id="Path_14885" data-name="Path 14885" d="M10.922,40.981a.8.8,0,0,0,.366,1.073l2.585,1.28a.8.8,0,0,0,1.072-.362l1.28-2.585a.8.8,0,0,0-1.434-.71l-.474.96a5.54,5.54,0,0,1,2.656-6.07.8.8,0,0,0-.8-1.386A7.12,7.12,0,0,0,12.761,41L12,40.621a.8.8,0,0,0-1.077.36Z" transform="translate(-3.768 -8.216)" fill="#00adee"/>
      <path id="Path_14886" data-name="Path 14886" d="M17.411,47.835a7.172,7.172,0,0,0,8.48-.955l.054.85a.8.8,0,0,0,.8.749H26.8a.8.8,0,0,0,.746-.85l-.186-2.88a.8.8,0,0,0-.27-.55A.813.813,0,0,0,26.5,44l-2.88.186a.8.8,0,0,0,.1,1.6l1.066-.069a5.577,5.577,0,0,1-6.579.737.8.8,0,0,0-.8,1.382Z" transform="translate(-5.011 -10.401)" fill="#00adee"/>
      <path id="Path_14887" data-name="Path 14887" d="M29,38.8a7.213,7.213,0,0,0-5.05-6.872l.694-.462a.8.8,0,1,0-.888-1.331l-2.4,1.6a.8.8,0,0,0-.222,1.11l1.6,2.4a.8.8,0,0,0,1.331-.888l-.6-.9A5.61,5.61,0,0,1,27.4,38.8a.8.8,0,0,0,1.6,0Z" transform="translate(-5.801 -7.601)" fill="#00adee"/>
      <path id="Path_14888" data-name="Path 14888" d="M50.033,24.2h-1.6V21.8a.8.8,0,0,0-.8-.8h-4.8a.8.8,0,0,0-.8.8v2.4h-1.6a.8.8,0,0,0-.8.8V39.4a.8.8,0,0,0,.8.8h4V50.6a1.6,1.6,0,0,1-1.6,1.6h-4a1.6,1.6,0,0,1-1.6-1.6V44.2a3.2,3.2,0,0,0-6.4,0v3.2a1.6,1.6,0,0,1-1.6,1.6h-1.12l.648-5.506a.8.8,0,1,0-1.589-.187L26.123,52.2H9.946L7.77,33.706a.8.8,0,1,0-1.589.187l2.259,19.2a.8.8,0,0,0,.794.706h17.6a.8.8,0,0,0,.794-.706l.294-2.494h1.312a3.2,3.2,0,0,0,3.2-3.2V44.2a1.6,1.6,0,0,1,3.2,0v6.4a3.2,3.2,0,0,0,3.2,3.2h4a3.2,3.2,0,0,0,3.2-3.2V40.2h4a.8.8,0,0,0,.8-.8V25A.8.8,0,0,0,50.033,24.2Zm-6.4-1.6h3.2v1.6h-3.2Zm-2.4,16v-8h5.6a.8.8,0,0,0,0-1.6h-5.6V25.8h8v8h-5.6a.8.8,0,0,0,0,1.6h5.6v3.2Z" transform="translate(-2.835 -5.801)" fill="#00adee"/>
      <path id="Path_14889" data-name="Path 14889" d="M44,40H40.8a.8.8,0,1,0,0,1.6H44A.8.8,0,0,0,44,40Z" transform="translate(-9.601 -9.601)" fill="#00adee"/>
      <path id="Path_14890" data-name="Path 14890" d="M40.8,30.2h.8V31a.8.8,0,1,0,1.6,0v-.8H44a.8.8,0,0,0,0-1.6h-.8v-.8a.8.8,0,0,0-1.6,0v.8h-.8a.8.8,0,1,0,0,1.6Z" transform="translate(-9.601 -7.001)" fill="#00adee"/>
      <path id="Path_14891" data-name="Path 14891" d="M50.8,10h3.055l-.64,3.869a.8.8,0,0,0,1.454.575l4.8-7.2A.8.8,0,0,0,58.8,6H55.6V2.8a.8.8,0,0,0-1.478-.424l-4,6.4A.8.8,0,0,0,50.8,10ZM54,5.589V6.8a.8.8,0,0,0,.8.8h2.505l-1.9,2.854.187-1.12A.8.8,0,0,0,54.8,8.4H52.244Z" transform="translate(-11.602 -2)" fill="#00adee"/>
    </g>
  </g>
</svg>
