<svg xmlns="http://www.w3.org/2000/svg" width="91.198" height="99.071" viewBox="0 0 91.198 99.071">
  <g id="enabling_" data-name="enabling " transform="translate(22238.68 819)">
    <g id="Group_15461" data-name="Group 15461">
      <path id="Path_14646" data-name="Path 14646" d="M7.75,8.551l-1,5.855c0,.991,1.152,1.8,2.561,1.8h6.722l4.161,2.7v-2.7h2.561c1.408,0,2.561-.811,2.561-1.8V8.551c0-.991-1.152-1.8-2.561-1.8H9.311C7.9,6.75,7.75,7.561,7.75,8.551Z" transform="translate(-22186.303 -792.586)" fill="#00adee"/>
      <path id="Path_14647" data-name="Path 14647" d="M10.887,14.406V8.551c0-.991,1.655-1.8,3.677-1.8H10.427c-2.023,0-3.677.811-3.677,1.8v5.855c0,.991,1.655,1.8,3.677,1.8h4.137C12.542,16.208,10.887,15.4,10.887,14.406Z" transform="translate(-22188.953 -792.586)" fill="#0080c5"/>
      <path id="Path_14645" data-name="Path 14645" d="M-22211.328-791.175l5.979,4.782s-.7.8,0,2.69,0,.5,0,.5l-2.393,16.14-2.291,4.284a33.968,33.968,0,0,1-1.295,3.985,11.977,11.977,0,0,0-1.1,3.387c-.5,2.092-.6,2.69-.7,3.288s.2.5,0,1.2.8,1.893-.7,2.491-.5,1.594-2.891,0-.994-.5-3.088-1.993-1.2,1.594-2.592-1.694-.7-1.2-1.793-3.886-1.295-1.793-1.295-3.587-.9.1,0-2.59.2-3.089,1.295-4.882.1-2.192,1.793-3.686,1.895-1.3,2.592-2.59,1.1-.8,2.391-3.786,1.594-4.683,2.49-7.273.2-1.993,1.1-3.288a15.3,15.3,0,0,1,2.49-2.59Z" fill="#0080c5"/>
      <path id="Path_14644" data-name="Path 14644" d="M-22201.965-783.7l7.275,6.775s3.984,7.971,3.984,8.668-.8,3.985-.8,4.583a44.191,44.191,0,0,1-.6,5.679,8.923,8.923,0,0,1-.8,2.292c-.5,1-1.5,1.494-3.09,3.089s-1.693,2.092-2.689,2.59.2.4-3.289,1.2.7.6-4.482,1-5.68.1-6.078,0-1.395,1.395-.9-2.192-.3-2.889.9-4.982.6-1.594,1.895-3.786a25.926,25.926,0,0,0,2.391-5.679c.2-.8,0-2.491.7-3.786s.7-.8,2.193-6.078,1.291-5.28,1.891-6.376,1.393-1.395,1.494-1.893A3.507,3.507,0,0,0-22201.965-783.7Z" fill="#00adee"/>
      <path id="Path_14643" data-name="Path 14643" d="M-1037.618-217.081a15.173,15.173,0,0,0,4.247,4.509,16.974,16.974,0,0,0,26.735-11.275,17.25,17.25,0,0,0,.2-2.644c.015-5.556,0-11.113,0-16.669,0-.275-.049-.549-.089-.96-.667,0-1.292.006-1.918,0-4.328-.052-7.681-2.892-7.992-7.217-.26-3.621-.054-7.276-.054-11.036h5.215v-9.546h5.309v9.4h5.334v-9.39h5.307v9.458h4.611c.033.368.077.639.077.91,0,3.115.018,6.229,0,9.343a7.906,7.906,0,0,1-8.057,8.078c-.738.007-1.475,0-2.331,0-.029.484-.075.891-.075,1.3q0,7.963,0,15.926a22.47,22.47,0,0,1-14.518,21.437,22.192,22.192,0,0,1-28.372-12.227,2.108,2.108,0,0,0-1.987-1.483,14.426,14.426,0,0,1-12.537-16.418,22.438,22.438,0,0,1,5.621-11.9,64.368,64.368,0,0,0,5.236-6.8,19.656,19.656,0,0,0,3.475-12.449,2.629,2.629,0,0,1,.857-2.255c.917-.877,1.74-1.852,2.676-2.862.6.526,1.153,1,1.692,1.494,5.868,5.372,11.34,11.092,15.409,17.994,2.669,4.527,4.635,9.32,4.709,14.684a23,23,0,0,1-2.862,12.247c-3.17,5.4-8.13,7.737-14.193,8.106-.494.03-.989.049-1.482.084C-1037.429-217.24-1037.484-217.171-1037.618-217.081Zm6.656-36.951a3.057,3.057,0,0,0-.2.534,27.139,27.139,0,0,1-2.724,9.957c-1.7,3.688-3.47,7.347-5.124,11.056a15.45,15.45,0,0,0-1.3,8.072c.162,1.488.274,1.645,1.678,1.728a21.2,21.2,0,0,0,2.966,0c3.32-.273,6.289-1.333,8.441-4.045a15.6,15.6,0,0,0,3.028-9C-1023.734-242.749-1027.084-248.362-1030.962-254.032Zm-7.978-7.673a2.406,2.406,0,0,0-.241.483,29.957,29.957,0,0,1-6.428,13.324c-1.659,2.112-3.536,4.065-5.061,6.266a12.7,12.7,0,0,0-2.139,11.167c.886,3.043,4.255,5.768,7.058,5.813a3.28,3.28,0,0,0,.067-.6,19.824,19.824,0,0,1,1.82-9.386c1.618-3.687,3.437-7.286,5.089-10.959,1.413-3.142,2.591-6.362,2.267-9.914A12.176,12.176,0,0,0-1038.939-261.7Zm27.744,4.647c0,1.778-.065,3.438.019,5.09a2.475,2.475,0,0,0,2.506,2.512c3.392.041,6.785.035,10.178,0a2.438,2.438,0,0,0,2.478-2.185c.113-1.783.029-3.579.029-5.419Z" transform="translate(-21170.363 -527.176)"/>
      <g id="lamp_1_" data-name="lamp (1)" transform="translate(-22245.162 -823.22)">
        <path id="Path_14618" data-name="Path 14618" d="M0,0H6.7V3.351H0Z" transform="translate(20.107 9.554) rotate(-45)" fill="#a4afc1"/>
        <path id="Path_14619" data-name="Path 14619" d="M0,0H6.7V3.351H0Z" transform="translate(6.483 23.177) rotate(-45)" fill="#a4afc1"/>
        <path id="Path_14620" data-name="Path 14620" d="M0,0H3.351V6.7H0Z" transform="translate(6.482 6.59) rotate(-45)" fill="#a4afc1"/>
        <path id="Path_14621" data-name="Path 14621" d="M34.157,39.479a5.026,5.026,0,1,1,5.026-5.026A5.033,5.033,0,0,1,34.157,39.479Zm0-6.7a1.675,1.675,0,1,0,1.675,1.675A1.676,1.676,0,0,0,34.157,32.777Z" transform="translate(58.497 63.813)" fill="#a4afc1"/>
        <path id="Path_14637" data-name="Path 14637" d="M0,0H5.026V11.584H0Z" transform="translate(68.779 76.972) rotate(-45)"/>
        <path id="Path_14638" data-name="Path 14638" d="M0,0H11.584V5.026H0Z" transform="translate(20.105 81.604) rotate(-45)"/>
      </g>
    </g>
  </g>
</svg>
