<svg xmlns="http://www.w3.org/2000/svg" width="63.974" height="99.327" viewBox="0 0 63.974 99.327">
  <g id="leaf" transform="translate(-695.07 -1178.297)">
    <g id="battery" transform="translate(695.07 1178.297)">
      <g id="Group_15459" data-name="Group 15459" transform="translate(0 0)">
        <path id="Path_14608" data-name="Path 14608" d="M6.5,28.5h6.734v3.367H6.5Z" transform="translate(-6.5 55.676)" fill="#a4afc1"/>
        <path id="Path_14609" data-name="Path 14609" d="M10,31h3.367v6.734H10Z" transform="translate(1.785 61.593)" fill="#a4afc1"/>
        <path id="Path_14610" data-name="Path 14610" d="M27.551,13.6A5.051,5.051,0,1,1,32.6,8.551,5.057,5.057,0,0,1,27.551,13.6Zm0-6.734a1.684,1.684,0,1,0,1.684,1.684A1.684,1.684,0,0,0,27.551,6.867Z" transform="translate(31.372 -3.5)" fill="#a4afc1"/>
      </g>
      <path id="Path_14612" data-name="Path 14612" d="M42.37,39.622c0,8.616-4.623,17.95-14.933,17.95S13.75,49.673,13.75,41.06c0-10.771,11.2-16.512,11.2-32.31C32.727,15.929,42.37,24.545,42.37,39.622Z" transform="translate(10.661 8.927)" fill="#00adee"/>
      <path id="Path_14614" data-name="Path 14614" d="M21.326,41.058c0-9.111,7.99-14.647,10.461-25.69-2.256-2.4-4.62-4.569-6.838-6.616,0,15.795-11.2,21.539-11.2,32.31,0,8.616,3.38,16.512,13.687,16.512a15.056,15.056,0,0,0,3.731-.458C23.865,55.354,21.326,48.485,21.326,41.058Z" transform="translate(10.661 8.929)" fill="#0080c5"/>
      <path id="Path_14615" data-name="Path 14615" d="M29.212,61.873C19.061,61.873,13,54.755,13,42.836c0-5.566,2.505-9.768,5.155-14.216,2.97-4.983,6.044-10.138,6.044-18.094A2.526,2.526,0,0,1,28.438,8.67l.428.4c7.933,7.317,17.8,16.424,17.8,32.33,0,9.862-5.465,20.475-17.458,20.475ZM28.822,15.94C27.778,22.341,25,27,22.5,31.206c-2.384,4-4.444,7.455-4.444,11.63,0,6.381,1.936,13.987,11.162,13.987,9.795,0,12.408-9.694,12.408-15.424,0-11.68-6.253-19.165-12.8-25.458Z" transform="translate(8.886 7.151)"/>
      <path id="Path_14616" data-name="Path 14616" d="M13.12,55.726l-1.286-4.886,2.444-.643c16.667-4.391,14.98-29.1,14.96-29.35l-.192-2.519,5.037-.384.192,2.519c.091,1.189,1.98,29.169-18.711,34.616Z" transform="translate(6.126 30.692)"/>
    </g>
  </g>
</svg>
