<svg xmlns="http://www.w3.org/2000/svg" width="91.198" height="99.071" viewBox="0 0 91.198 99.071">
  <g id="lamp" transform="translate(-6.482 -4.22)">
    <path id="Path_14618" data-name="Path 14618" d="M0,0H6.7V3.351H0Z" transform="translate(20.107 9.554) rotate(-45)" fill="#a4afc1"/>
    <path id="Path_14619" data-name="Path 14619" d="M0,0H6.7V3.351H0Z" transform="translate(6.483 23.177) rotate(-45)" fill="#a4afc1"/>
    <path id="Path_14620" data-name="Path 14620" d="M0,0H3.351V6.7H0Z" transform="translate(6.482 6.59) rotate(-45)" fill="#a4afc1"/>
    <path id="Path_14621" data-name="Path 14621" d="M34.157,39.479a5.026,5.026,0,1,1,5.026-5.026A5.033,5.033,0,0,1,34.157,39.479Zm0-6.7a1.675,1.675,0,1,0,1.675,1.675A1.676,1.676,0,0,0,34.157,32.777Z" transform="translate(58.497 63.813)" fill="#a4afc1"/>
    <g id="Group_15460" data-name="Group 15460" transform="translate(12.631 28.298)">
      <path id="Path_14622" data-name="Path 14622" d="M24.571,14.68l4.634-4.634Z" transform="translate(35.146 -10.046)" fill="#2fdf84"/>
      <path id="Path_14623" data-name="Path 14623" d="M27.293,18h0Z" transform="translate(41.545 8.653)" fill="#2fdf84"/>
      <path id="Path_14624" data-name="Path 14624" d="M24.571,24.571l4.634,4.634Z" transform="translate(35.146 24.101)" fill="#2fdf84"/>
      <path id="Path_14625" data-name="Path 14625" d="M14.68,24.571l-4.634,4.634Z" transform="translate(0.999 24.101)" fill="#2fdf84"/>
      <path id="Path_14626" data-name="Path 14626" d="M13.308,18h0Z" transform="translate(-6.75 8.653)" fill="#2fdf84"/>
      <path id="Path_14627" data-name="Path 14627" d="M14.68,14.68l-4.634-4.634Z" transform="translate(0.999 -10.046)" fill="#2fdf84"/>
      <path id="Path_14628" data-name="Path 14628" d="M18.25,14.25A11.728,11.728,0,0,1,29.978,25.978Z" transform="translate(20.285 -0.163)" fill="#2fdf84"/>
      <path id="Path_14629" data-name="Path 14629" d="M53.637,32.693A20.949,20.949,0,1,0,20.1,49.4a13.364,13.364,0,0,1,5.053,10.74v5.911c0,2.858,1.5,4.336,3.351,4.336h8.377a3.352,3.352,0,0,0,3.351-3.351V59.591a13.39,13.39,0,0,1,5.4-10.451,20.874,20.874,0,0,0,8-16.446Z" transform="translate(5.004 -6.04)" fill="#00adee"/>
    </g>
    <path id="Path_14630" data-name="Path 14630" d="M31.856,66.048V60.137A13.364,13.364,0,0,0,26.8,49.4a20.931,20.931,0,0,1,8.072-37.182c.4-.084.794-.117,1.19-.181a21.438,21.438,0,0,0-7.891.181A20.931,20.931,0,0,0,20.1,49.4a13.364,13.364,0,0,1,5.053,10.74v5.911c0,2.858,1.5,4.336,3.351,4.336h6.7c-1.85,0-3.351-1.478-3.351-4.336Z" transform="translate(17.635 22.265)" fill="#0080c5"/>
    <path id="Path_14631" data-name="Path 14631" d="M28.014,36.3h-9.45a2.814,2.814,0,0,1-2.815-2.815V26.25H30.829v7.238A2.814,2.814,0,0,1,28.014,36.3Z" transform="translate(27.039 56.346)" fill="#f3f3f1"/>
    <path id="Path_14632" data-name="Path 14632" d="M22.452,33.488V26.25h-6.7v7.238A2.814,2.814,0,0,0,18.565,36.3h6.7A2.814,2.814,0,0,1,22.452,33.488Z" transform="translate(27.039 56.346)" fill="#d5dbe1"/>
    <path id="Path_14633" data-name="Path 14633" d="M15.75,25.5H30.829v5.026H15.75Z" transform="translate(27.039 54.583)"/>
    <path id="Path_14634" data-name="Path 14634" d="M17.25,6h5.026V17.584H17.25Z" transform="translate(30.565 8.74)"/>
    <path id="Path_14635" data-name="Path 14635" d="M0,0H11.584V5.026H0Z" transform="translate(68.782 32.938) rotate(-45)"/>
    <path id="Path_14636" data-name="Path 14636" d="M26.543,17.25H38.127v5.026H26.543Z" transform="translate(52.412 35.188)"/>
    <path id="Path_14637" data-name="Path 14637" d="M0,0H5.026V11.584H0Z" transform="translate(68.779 76.972) rotate(-45)"/>
    <path id="Path_14638" data-name="Path 14638" d="M0,0H11.584V5.026H0Z" transform="translate(20.105 81.604) rotate(-45)"/>
    <path id="Path_14639" data-name="Path 14639" d="M6,17.25H17.584v5.026H6Z" transform="translate(4.118 35.188)"/>
    <path id="Path_14640" data-name="Path 14640" d="M0,0H5.026V11.584H0Z" transform="translate(20.112 28.294) rotate(-45)"/>
    <path id="Path_14641" data-name="Path 14641" d="M32.491,27.741H27.465a9.223,9.223,0,0,0-9.215-9.215V13.5A14.259,14.259,0,0,1,32.491,27.741Z" transform="translate(32.916 26.372)"/>
    <path id="Path_14642" data-name="Path 14642" d="M38.642,74.66H30.265c-2.825,0-5.864-2.145-5.864-6.849V61.9a10.863,10.863,0,0,0-4.051-8.729,23.451,23.451,0,1,1,30.7-35.3l-3.559,3.555a18.424,18.424,0,1,0-24.12,27.732A15.911,15.911,0,0,1,29.427,61.9v5.911c0,.3.04,1.823.838,1.823h8.377a.838.838,0,0,0,.838-.838V61.35a15.908,15.908,0,0,1,6.36-12.429,18.427,18.427,0,0,0,5.653-21.513l4.644-1.92a23.449,23.449,0,0,1-7.191,27.384,10.918,10.918,0,0,0-4.44,8.474V68.8A5.871,5.871,0,0,1,38.642,74.66Z" transform="translate(15.875 20.502)"/>
  </g>
</svg>
