<svg xmlns="http://www.w3.org/2000/svg" width="26.311" height="23.214" viewBox="0 0 26.311 23.214">
  <g id="faqs-active" transform="translate(0 -30.12)">
    <g id="Group_15596" data-name="Group 15596" transform="translate(1.014 31.176)">
      <path id="Path_14803" data-name="Path 14803" d="M8.271,0a8.271,8.271,0,0,1,8.271,8.271c0,2.174-1.051,7.036-1.711,6.9a22.855,22.855,0,0,1-6.56,1.37A8.271,8.271,0,1,1,8.271,0Z" transform="translate(8.271 5)" fill="#f3f3f1"/>
      <ellipse id="Ellipse_672" data-name="Ellipse 672" cx="8.271" cy="8.271" rx="8.271" ry="8.271" fill="#00adee"/>
    </g>
    <g id="Group_15597" data-name="Group 15597" transform="translate(1.014 31.176)">
      <path id="Path_14557" data-name="Path 14557" d="M20.986,26.021a8.271,8.271,0,0,1,6.652-8.109,8.265,8.265,0,0,0-9.889,8.109c0,2.174-.16,5.408,1.428,7.107,1.295,1.4,4.449,1.163,6.843,1.163a8.221,8.221,0,0,0,1.618-.161A8.271,8.271,0,0,1,20.986,26.021Z" transform="translate(-17.75 -17.75)" fill="#0080c5"/>
    </g>
    <path id="Path_14800" data-name="Path 14800" d="M25.178,48.494a9.286,9.286,0,0,0-7.85-13.724,9.285,9.285,0,0,0-16.2,9.08L.568,47.235a.771.771,0,0,0,.887.887l3.386-.564a9.28,9.28,0,0,0,4.142,1.127A9.285,9.285,0,0,0,21.469,52.2l3.386.564a.771.771,0,0,0,.887-.887Zm-20.2-2.511a.771.771,0,0,0-.127.01l-2.59.431.431-2.59a.771.771,0,0,0-.1-.517,7.741,7.741,0,1,1,2.771,2.771.771.771,0,0,0-.39-.106Zm18.63,2.5.431,2.59-2.59-.431a.77.77,0,0,0-.517.1,7.74,7.74,0,0,1-10.192-2.158,9.2,9.2,0,0,0,1.842-.492.767.767,0,0,0,.416.123H21.05a.771.771,0,1,0,0-1.542H15.068a9.364,9.364,0,0,0,1.755-1.844H21.05a.771.771,0,1,0,0-1.542H17.722a9.209,9.209,0,0,0,.624-1.844h2.7a.771.771,0,1,0,0-1.542H18.557q.013-.243.013-.488a9.244,9.244,0,0,0-.508-3.029,7.745,7.745,0,0,1,5.646,11.586.771.771,0,0,0-.1.517Z"/>
    <path id="Path_14801" data-name="Path 14801" d="M129.495,113.682a1.168,1.168,0,1,1,1.168,1.168.771.771,0,0,0-.771.771v2.271a.771.771,0,0,0,1.542,0V116.28a2.71,2.71,0,1,0-3.481-2.6.771.771,0,0,0,1.542,0Z" transform="translate(-121.378 -76.697)"/>
    <path id="Path_14802" data-name="Path 14802" d="M166.449,280.649a.771.771,0,1,0,.771.771A.779.779,0,0,0,166.449,280.649Z" transform="translate(-157.164 -237.655)"/>
  </g>
</svg>
