<svg id="match-making-active" xmlns="http://www.w3.org/2000/svg" width="24.732" height="20.611" viewBox="0 0 24.732 20.611">
  <path id="Path_14491" data-name="Path 14491" d="M27.876,10.75H8.811A2.061,2.061,0,0,0,6.75,12.811V25.693a2.061,2.061,0,0,0,2.061,2.061H27.876a2.061,2.061,0,0,0,2.061-2.061V12.811A2.061,2.061,0,0,0,27.876,10.75Z" transform="translate(-5.978 -7.916)" fill="#f3f3f1"/>
  <path id="Path_14492" data-name="Path 14492" d="M9.069,25.693V12.811A2.061,2.061,0,0,1,11.13,10.75H8.811A2.061,2.061,0,0,0,6.75,12.811V25.693a2.061,2.061,0,0,0,2.061,2.061H11.13A2.061,2.061,0,0,1,9.069,25.693Z" transform="translate(-5.978 -7.916)" fill="#d5dbe1"/>
  <path id="Path_14493" data-name="Path 14493" d="M20.418,12.872H15.781a1.031,1.031,0,0,1-1.031-1.031V9.781A1.031,1.031,0,0,1,15.781,8.75h4.637a1.031,1.031,0,0,1,1.031,1.031v2.061A1.031,1.031,0,0,1,20.418,12.872Z" transform="translate(-5.733 -7.977)" fill="#00adee"/>
  <path id="Path_14494" data-name="Path 14494" d="M17.069,11.842V9.781A1.031,1.031,0,0,1,18.1,8.75H15.781A1.031,1.031,0,0,0,14.75,9.781v2.061a1.031,1.031,0,0,0,1.031,1.031H18.1A1.031,1.031,0,0,1,17.069,11.842Z" transform="translate(-5.733 -7.977)" fill="#00adee"/>
  <ellipse id="Ellipse_667" data-name="Ellipse 667" cx="1.803" cy="1.803" rx="1.803" ry="1.803" transform="translate(5.925 7.987)" fill="#00adee"/>
  <path id="Path_14495" data-name="Path 14495" d="M15.418,21.75H11.811A2.061,2.061,0,0,0,9.75,23.811v.515h7.729v-.515A2.06,2.06,0,0,0,15.418,21.75Z" transform="translate(-5.886 -7.58)" fill="#00adee"/>
  <path id="Path_14496" data-name="Path 14496" d="M14.13,21.75H11.811A2.061,2.061,0,0,0,9.75,23.811v.515h2.319v-.515A2.06,2.06,0,0,1,14.13,21.75Z" transform="translate(-5.886 -7.58)" fill="#0080c5"/>
  <path id="Path_14497" data-name="Path 14497" d="M13.553,19.357a1.788,1.788,0,0,0,1.159-.433,1.78,1.78,0,0,1,0-2.741,1.8,1.8,0,1,0-1.159,3.174Z" transform="translate(-5.825 -7.763)" fill="#0080c5"/>
  <path id="Path_14498" data-name="Path 14498" d="M20.75,15.5h5.668v1.546H20.75Z" transform="translate(-5.551 -7.771)"/>
  <path id="Path_14499" data-name="Path 14499" d="M20.75,19.5h5.668v1.546H20.75Z" transform="translate(-5.551 -7.649)"/>
  <path id="Path_14500" data-name="Path 14500" d="M20.75,23.5h5.668v1.546H20.75Z" transform="translate(-5.551 -7.526)"/>
  <path id="Path_14504" data-name="Path 14504" d="M27.9,28.55H8.834A2.836,2.836,0,0,1,6,25.716V12.834A2.836,2.836,0,0,1,8.834,10h6.183v1.546H8.834a1.29,1.29,0,0,0-1.288,1.288V25.716A1.29,1.29,0,0,0,8.834,27H27.9a1.29,1.29,0,0,0,1.288-1.288V12.834A1.29,1.29,0,0,0,27.9,11.546H21.715V10H27.9a2.836,2.836,0,0,1,2.834,2.834V25.716A2.836,2.836,0,0,1,27.9,28.55Z" transform="translate(-6.001 -7.939)"/>
  <path id="Path_14505" data-name="Path 14505" d="M20.441,13.668H15.8a1.805,1.805,0,0,1-1.8-1.8V9.8A1.805,1.805,0,0,1,15.8,8h4.637a1.805,1.805,0,0,1,1.8,1.8v2.061A1.805,1.805,0,0,1,20.441,13.668ZM15.8,9.546a.258.258,0,0,0-.258.258v2.061a.258.258,0,0,0,.258.258h4.637a.258.258,0,0,0,.258-.258V9.8a.258.258,0,0,0-.258-.258Z" transform="translate(-5.756 -8)"/>
  <path id="Path_14506" data-name="Path 14506" d="M13.576,20.153a2.576,2.576,0,1,1,2.576-2.576A2.579,2.579,0,0,1,13.576,20.153Zm0-3.607a1.031,1.031,0,1,0,1.031,1.031A1.032,1.032,0,0,0,13.576,16.546Z" transform="translate(-5.848 -7.786)"/>
  <path id="Path_14507" data-name="Path 14507" d="M18.275,24.349H16.729v-.515a1.29,1.29,0,0,0-1.288-1.288H11.834a1.29,1.29,0,0,0-1.288,1.288v.515H9v-.515A2.836,2.836,0,0,1,11.834,21h3.607a2.836,2.836,0,0,1,2.834,2.834Z" transform="translate(-5.909 -7.603)"/>
  <path id="Path_14508" data-name="Path 14508" d="M20.75,15.5h5.668v1.546H20.75Z" transform="translate(-5.551 -7.771)"/>
  <path id="Path_14509" data-name="Path 14509" d="M20.75,19.5h5.668v1.546H20.75Z" transform="translate(-5.551 -7.649)"/>
  <path id="Path_14510" data-name="Path 14510" d="M20.75,23.5h5.668v1.546H20.75Z" transform="translate(-5.551 -7.526)"/>
</svg>
