<svg xmlns="http://www.w3.org/2000/svg" width="24.008" height="24" viewBox="0 0 24.008 24">
  <g id="news-active" transform="translate(-6 -6)">
    <g id="color_1_">
      <g id="Group_15604" data-name="Group 15604">
        <path id="Path_14809" data-name="Path 14809" d="M30,8.75v13.5A2.748,2.748,0,0,1,27.25,25H15.81l-.84.84-3.94,3.94a.743.743,0,0,1-.82.16.741.741,0,0,1-.46-.69V25h-1a2.822,2.822,0,0,1-1.42-.39A2.759,2.759,0,0,1,6,22.25V8.75A2.967,2.967,0,0,1,9,6H27.25A2.748,2.748,0,0,1,30,8.75Z" fill="#f3f3f1"/>
      </g>
      <g id="Group_15605" data-name="Group 15605">
        <path id="Path_14810" data-name="Path 14810" d="M12.5,25h-1a2.822,2.822,0,0,1-1.42-.39,2.759,2.759,0,0,1-1.33-2.36V8.75a2.967,2.967,0,0,1,3-2.75H9A2.967,2.967,0,0,0,6,8.75v13.5a2.759,2.759,0,0,0,1.33,2.36A2.822,2.822,0,0,0,8.75,25h1v4.25a.741.741,0,0,0,.46.69.743.743,0,0,0,.82-.16l1.47-1.47Z" fill="#d5dbe1"/>
      </g>
      <g id="Group_15607" data-name="Group 15607">
        <path id="Path_14811" data-name="Path 14811" d="M22.74,11.68a1.762,1.762,0,0,0-2.48,0L15.5,16.44l-1.26-1.26a1.762,1.762,0,0,0-2.48,0L6,20.94v1.31a2.759,2.759,0,0,0,1.33,2.36A2.822,2.822,0,0,0,8.75,25h1v4.25a.741.741,0,0,0,.46.69.743.743,0,0,0,.82-.16l3.94-3.94.84-.84H27.25A2.748,2.748,0,0,0,30,22.25V18.94Z" fill="#00adee"/>
      </g>
      <g id="Group_15610" data-name="Group 15610">
        <g id="Group_15608" data-name="Group 15608">
          <path id="Path_14812" data-name="Path 14812" d="M8.5,24.25v-.941a.892.892,0,0,1,.261-.63L13.63,17.81a2.653,2.653,0,0,1,3.74,0,.891.891,0,0,0,1.26,0l4.13-4.13a1.753,1.753,0,0,1,1.494-.486l-.884-.884a2.653,2.653,0,0,0-3.74,0l-3.5,3.5c-.348.348-.533,1.132-.881.784l-.379-.784a2.653,2.653,0,0,0-3.74,0L6.261,20.679a.892.892,0,0,0-.261.63v.941a2.759,2.759,0,0,0,1.33,2.36,2.844,2.844,0,0,0,1.268.369,2.776,2.776,0,0,1-.1-.729Z" fill="#0080c5"/>
        </g>
        <g id="Group_15609" data-name="Group 15609">
          <path id="Path_14813" data-name="Path 14813" d="M12.25,28.13V27h-1a2.822,2.822,0,0,1-1.42-.39c-.029-.018-.051-.045-.08-.064v2.7a.741.741,0,0,0,.46.69.743.743,0,0,0,.82-.16l1.22-1.22Z" fill="#0080c5"/>
        </g>
      </g>
    </g>
    <g id="regular_1.5">
      <g id="Group_15611" data-name="Group 15611">
        <path id="Path_14814" data-name="Path 14814" d="M10.507,30a.75.75,0,0,1-.75-.75V25h-1a2.752,2.752,0,0,1-2.75-2.75V8.75a2.967,2.967,0,0,1,3-2.75h18.25a2.752,2.752,0,0,1,2.75,2.75v13.5A2.752,2.752,0,0,1,27.257,25H15.817l-4.78,4.78a.746.746,0,0,1-.53.22ZM9.007,7.5a1.51,1.51,0,0,0-1.5,1.25v13.5a1.252,1.252,0,0,0,1.25,1.25h1.75a.75.75,0,0,1,.75.75v3.189l3.72-3.72a.75.75,0,0,1,.53-.22h11.75a1.252,1.252,0,0,0,1.25-1.25V8.75a1.252,1.252,0,0,0-1.25-1.25Z"/>
      </g>
      <g id="Group_15612" data-name="Group 15612">
        <path id="Path_14815" data-name="Path 14815" d="M11.007,13a2,2,0,1,1,2-2A2,2,0,0,1,11.007,13Zm0-2.5a.5.5,0,1,0,.5.5A.5.5,0,0,0,11.007,10.5Z"/>
      </g>
      <g id="Group_15613" data-name="Group 15613">
        <path id="Path_14816" data-name="Path 14816" d="M7.267,21.8,6.206,20.739l5.56-5.56a1.755,1.755,0,0,1,2.48,0l1.26,1.26,4.76-4.76a1.755,1.755,0,0,1,2.48,0l7.04,7.04L28.725,19.78l-7.04-7.04a.257.257,0,0,0-.36,0l-5.29,5.29a.75.75,0,0,1-1.061,0l-1.79-1.79a.257.257,0,0,0-.36,0Z"/>
      </g>
    </g>
  </g>
</svg>
