<svg xmlns="http://www.w3.org/2000/svg" width="24" height="24" viewBox="0 0 24 24">
  <g id="news" transform="translate(-6.008 -6)">
    <g id="regular_1.5">
      <g id="Group_15611" data-name="Group 15611">
        <path id="Path_14814" data-name="Path 14814" d="M10.507,30a.75.75,0,0,1-.75-.75V25h-1a2.752,2.752,0,0,1-2.75-2.75V8.75a2.967,2.967,0,0,1,3-2.75h18.25a2.752,2.752,0,0,1,2.75,2.75v13.5A2.752,2.752,0,0,1,27.257,25H15.817l-4.78,4.78a.746.746,0,0,1-.53.22ZM9.007,7.5a1.51,1.51,0,0,0-1.5,1.25v13.5a1.252,1.252,0,0,0,1.25,1.25h1.75a.75.75,0,0,1,.75.75v3.189l3.72-3.72a.75.75,0,0,1,.53-.22h11.75a1.252,1.252,0,0,0,1.25-1.25V8.75a1.252,1.252,0,0,0-1.25-1.25Z" fill="#a9a8ab"/>
      </g>
      <g id="Group_15612" data-name="Group 15612">
        <path id="Path_14815" data-name="Path 14815" d="M11.007,13a2,2,0,1,1,2-2A2,2,0,0,1,11.007,13Zm0-2.5a.5.5,0,1,0,.5.5A.5.5,0,0,0,11.007,10.5Z" fill="#a9a8ab"/>
      </g>
      <g id="Group_15613" data-name="Group 15613">
        <path id="Path_14816" data-name="Path 14816" d="M7.267,21.8,6.206,20.739l5.56-5.56a1.755,1.755,0,0,1,2.48,0l1.26,1.26,4.76-4.76a1.755,1.755,0,0,1,2.48,0l7.04,7.04L28.725,19.78l-7.04-7.04a.257.257,0,0,0-.36,0l-5.29,5.29a.75.75,0,0,1-1.061,0l-1.79-1.79a.257.257,0,0,0-.36,0Z" fill="#a9a8ab"/>
      </g>
    </g>
  </g>
</svg>
