<svg xmlns="http://www.w3.org/2000/svg" width="118.534" height="106.923" viewBox="0 0 118.534 106.923">
  <g id="error_1_" data-name="error (1)" transform="translate(-0.584 -2.29)">
    <g id="Group_15842" data-name="Group 15842" transform="translate(0.584 2.29)">
      <path id="Path_14913" data-name="Path 14913" d="M12.777,23C12.777,46.543.584,62.707.584,74.05s6.52,35.163,58.7,35.163,59.835-32.046,59.835-44.522C119.122,6.271,12.777-18.683,12.777,23Z" transform="translate(-0.584 -2.29)" fill="#f5f6fa"/>
    </g>
    <g id="Group_15843" data-name="Group 15843" transform="translate(21.567 27.676)">
      <path id="Path_14914" data-name="Path 14914" d="M52.691,9.75H45.885v3.4a3.4,3.4,0,0,1-3.4,3.4H23.765a3.4,3.4,0,0,1-3.4-3.4V9.75H13.556A6.826,6.826,0,0,0,6.75,16.556V59.094A6.826,6.826,0,0,0,13.556,65.9H52.691A6.826,6.826,0,0,0,59.5,59.094V16.556A6.826,6.826,0,0,0,52.691,9.75Z" transform="translate(-6.75 -9.75)" fill="#f3f3f1"/>
    </g>
    <g id="Group_15844" data-name="Group 15844" transform="translate(35.179 17.467)">
      <path id="Path_14915" data-name="Path 14915" d="M36.273,13.556v6.806a3.4,3.4,0,0,1-3.4,3.4H14.153a3.4,3.4,0,0,1-3.4-3.4V13.556h5.955a6.806,6.806,0,1,1,13.612,0Z" transform="translate(-10.75 -6.75)" fill="#ea1537"/>
    </g>
    <g id="Group_15845" data-name="Group 15845" transform="translate(55.597 58.304)">
      <path id="Path_14916" data-name="Path 14916" d="M59.288,51.232a3.272,3.272,0,0,1-3.274,3.25H20.024a3.272,3.272,0,0,1-3.274-3.25,3.009,3.009,0,0,1,.49-1.688l18-29.235a3.259,3.259,0,0,1,5.561,0l18,29.235a2.962,2.962,0,0,1,.5,1.688Z" transform="translate(-16.75 -18.75)" fill="#ea1537"/>
    </g>
    <g id="Group_15846" data-name="Group 15846" transform="translate(57.299 27.676)">
      <path id="Path_14917" data-name="Path 14917" d="M28.31,13.153V9.835a6.375,6.375,0,0,0-.851-.085H20.653v3.4a3.4,3.4,0,0,1-3.4,3.4h7.657A3.4,3.4,0,0,0,28.31,13.153Z" transform="translate(-17.25 -9.75)" fill="#d5dbe1"/>
    </g>
    <g id="Group_15847" data-name="Group 15847" transform="translate(21.567 27.676)">
      <path id="Path_14918" data-name="Path 14918" d="M14.407,59.094V16.556a6.811,6.811,0,0,1,5.955-6.721V9.75H13.556A6.826,6.826,0,0,0,6.75,16.556V59.094A6.826,6.826,0,0,0,13.556,65.9h7.657A6.826,6.826,0,0,1,14.407,59.094Z" transform="translate(-6.75 -9.75)" fill="#d5dbe1"/>
    </g>
    <g id="Group_15848" data-name="Group 15848" transform="translate(35.179 17.467)">
      <path id="Path_14919" data-name="Path 14919" d="M18.407,20.362V13.556h5.955A6.811,6.811,0,0,1,27.34,7.941,6.75,6.75,0,0,0,23.511,6.75a6.826,6.826,0,0,0-6.806,6.806H10.75v6.806a3.4,3.4,0,0,0,3.4,3.4H21.81A3.4,3.4,0,0,1,18.407,20.362Z" transform="translate(-10.75 -6.75)" fill="#bd142f"/>
    </g>
    <g id="Group_15849" data-name="Group 15849" transform="translate(55.597 58.304)">
      <path id="Path_14920" data-name="Path 14920" d="M24.407,51.232a3.009,3.009,0,0,1,.49-1.688L41.847,22.01l-1.048-1.7a3.259,3.259,0,0,0-5.561,0l-18,29.235a3.009,3.009,0,0,0-.49,1.688,3.272,3.272,0,0,0,3.274,3.25h7.657a3.272,3.272,0,0,1-3.274-3.25Z" transform="translate(-16.75 -18.75)" fill="#bd142f"/>
    </g>
    <g id="Group_15850" data-name="Group 15850" transform="translate(53.045 55.751)">
      <path id="Path_14921" data-name="Path 14921" d="M57.816,58.836H21.826A5.82,5.82,0,0,1,16,53.038a5.556,5.556,0,0,1,.926-3.117L34.863,20.773a5.815,5.815,0,0,1,9.937.041L62.771,50.005a5.467,5.467,0,0,1,.871,3.032A5.82,5.82,0,0,1,57.816,58.836Zm-18-35.732a.681.681,0,0,0-.585.3L21.1,53.038a.719.719,0,0,0,.721.694h35.99a.719.719,0,0,0,.721-.694.5.5,0,0,0-.058-.265L40.427,23.452a.679.679,0,0,0-.606-.347Z" transform="translate(-16 -18)"/>
    </g>
    <g id="Group_15851" data-name="Group 15851" transform="translate(74.314 69.364)">
      <path id="Path_14922" data-name="Path 14922" d="M22.25,22h5.1V33.911h-5.1Z" transform="translate(-22.25 -22)"/>
    </g>
    <g id="Group_15852" data-name="Group 15852" transform="translate(74.314 84.677)">
      <circle id="Ellipse_684" data-name="Ellipse 684" cx="2.552" cy="2.552" r="2.552"/>
    </g>
    <g id="Group_15853" data-name="Group 15853" transform="translate(19.015 25.124)">
      <path id="Path_14923" data-name="Path 14923" d="M34.347,70.254H15.358A9.366,9.366,0,0,1,6,60.9V18.358A9.366,9.366,0,0,1,15.358,9h6.4v5.1h-6.4A4.26,4.26,0,0,0,11.1,18.358V60.9a4.26,4.26,0,0,0,4.254,4.254H34.347Z" transform="translate(-6 -9)"/>
    </g>
    <g id="Group_15854" data-name="Group 15854" transform="translate(61.144 25.124)">
      <path id="Path_14924" data-name="Path 14924" d="M34.1,32.243H29V18.358A4.26,4.26,0,0,0,24.744,14.1H18.38V9h6.364A9.366,9.366,0,0,1,34.1,18.358Z" transform="translate(-18.38 -9)"/>
    </g>
    <g id="Group_15855" data-name="Group 15855" transform="translate(32.627 14.915)">
      <path id="Path_14925" data-name="Path 14925" d="M34.672,28.12H15.955A5.962,5.962,0,0,1,10,22.164V15.358a2.553,2.553,0,0,1,2.552-2.552h3.757a9.359,9.359,0,0,1,18.009,0h3.757a2.553,2.553,0,0,1,2.552,2.552v6.806A5.962,5.962,0,0,1,34.672,28.12ZM15.1,17.911v4.254a.851.851,0,0,0,.851.851H34.672a.851.851,0,0,0,.851-.851V17.911h-3.4a2.553,2.553,0,0,1-2.552-2.552,4.254,4.254,0,1,0-8.508,0,2.553,2.553,0,0,1-2.552,2.552Z" transform="translate(-10 -6)"/>
    </g>
    <g id="Group_15856" data-name="Group 15856" transform="translate(31.776 42.139)">
      <path id="Path_14926" data-name="Path 14926" d="M9.75,14H42.079v5.1H9.75Z" transform="translate(-9.75 -14)"/>
    </g>
    <g id="Group_15857" data-name="Group 15857" transform="translate(31.776 52.348)">
      <path id="Path_14927" data-name="Path 14927" d="M9.75,17H42.079v5.1H9.75Z" transform="translate(-9.75 -17)"/>
    </g>
    <g id="Group_15858" data-name="Group 15858" transform="translate(31.776 62.558)">
      <path id="Path_14928" data-name="Path 14928" d="M9.75,20H36.838v5.1H9.75Z" transform="translate(-9.75 -20)"/>
    </g>
    <g id="Group_15859" data-name="Group 15859" transform="translate(95.583 49.796)">
      <path id="Path_14929" data-name="Path 14929" d="M33.6,26.459a5.1,5.1,0,1,1,5.1-5.1A5.111,5.111,0,0,1,33.6,26.459Zm0-6.806a1.7,1.7,0,1,0,1.7,1.7A1.707,1.707,0,0,0,33.6,19.653Z" transform="translate(-28.5 -16.25)" fill="#a4afc1"/>
    </g>
    <g id="Group_15860" data-name="Group 15860" transform="translate(20.225 8.06)">
      <path id="Path_14930" data-name="Path 14930" d="M0,0H6.806V3.4H0Z" transform="translate(0 4.812) rotate(-45)" fill="#a4afc1"/>
    </g>
    <g id="Group_15861" data-name="Group 15861" transform="translate(6.388 21.894)">
      <path id="Path_14931" data-name="Path 14931" d="M0,0H6.806V3.4H0Z" transform="translate(0 4.812) rotate(-45)" fill="#a4afc1"/>
    </g>
    <g id="Group_15862" data-name="Group 15862" transform="translate(6.992 8.058)">
      <path id="Path_14932" data-name="Path 14932" d="M0,0H3.4V6.809H0Z" transform="translate(0 2.406) rotate(-45)" fill="#a4afc1"/>
    </g>
  </g>
</svg>
