<svg xmlns="http://www.w3.org/2000/svg" width="107.774" height="110.17" viewBox="0 0 107.774 110.17">
  <g id="delete-question" transform="translate(-658.312 -297.804)">
    <g id="Group_15698" data-name="Group 15698" transform="translate(658.312 297.804)" opacity="0.09">
      <path id="Path_14551" data-name="Path 14551" d="M21.542,99.42c21.877,0,36.9,11.332,47.443,11.332s32.682-6.06,32.682-54.555S71.882.583,60.287.583C5.99.583-17.2,99.42,21.542,99.42Z" transform="translate(-2.29 -0.583)" fill="#ea1537"/>
    </g>
    <g id="question_2_" data-name="question (2)" transform="translate(659.688 284.343)">
      <g id="Group_15596" data-name="Group 15596" transform="translate(3.339 33.597)">
        <path id="Path_14803" data-name="Path 14803" d="M27.239,0A27.239,27.239,0,0,1,54.479,27.239c0,7.161-3.461,23.174-5.635,22.727-5.12,1.624-13.721,4.513-21.6,4.513A27.239,27.239,0,1,1,27.239,0Z" transform="translate(27.239 16.468)" fill="#e4e7ee"/>
        <ellipse id="Ellipse_672" data-name="Ellipse 672" cx="27.239" cy="27.239" rx="27.239" ry="27.239" fill="#ea1537"/>
      </g>
      <g id="Group_15597" data-name="Group 15597" transform="translate(3.324 33.597)">
        <path id="Path_14557" data-name="Path 14557" d="M28.419,44.989a27.241,27.241,0,0,1,21.91-26.709A27.221,27.221,0,0,0,17.76,44.989c0,7.162-.526,17.811,4.7,23.409C26.726,73.014,37.116,72.229,45,72.229a27.076,27.076,0,0,0,5.329-.531A27.241,27.241,0,0,1,28.419,44.989Z" transform="translate(-17.746 -17.75)" fill="#bd142f"/>
      </g>
      <path id="Path_14800" data-name="Path 14800" d="M82.926,90.635a30.585,30.585,0,0,0-25.855-45.2,30.579,30.579,0,0,0-53.343,29.9L1.871,86.489A2.539,2.539,0,0,0,4.792,89.41l11.15-1.856a30.565,30.565,0,0,0,13.641,3.711A30.58,30.58,0,0,0,70.711,102.85l11.15,1.856a2.538,2.538,0,0,0,2.921-2.921ZM16.411,82.364a2.541,2.541,0,0,0-.417.034l-8.531,1.42,1.42-8.531a2.539,2.539,0,0,0-.315-1.7A25.5,25.5,0,1,1,17.7,82.713a2.538,2.538,0,0,0-1.285-.349ZM77.77,90.583l1.42,8.531-8.531-1.42a2.536,2.536,0,0,0-1.7.314A25.493,25.493,0,0,1,35.391,90.9a30.313,30.313,0,0,0,6.066-1.621,2.525,2.525,0,0,0,1.371.4h26.5a2.539,2.539,0,1,0,0-5.077h-19.7a30.842,30.842,0,0,0,5.78-6.072H69.33a2.539,2.539,0,1,0,0-5.077H58.37a30.331,30.331,0,0,0,2.054-6.072H69.33a2.539,2.539,0,1,0,0-5.077H61.119q.042-.8.042-1.608a30.447,30.447,0,0,0-1.673-9.978,25.508,25.508,0,0,1,18.6,38.159,2.54,2.54,0,0,0-.315,1.7Z"/>
      <path id="Path_14801" data-name="Path 14801" d="M133.03,119.9a3.848,3.848,0,1,1,3.848,3.848,2.539,2.539,0,0,0-2.539,2.539v7.481a2.539,2.539,0,0,0,5.077,0v-5.31a8.926,8.926,0,1,0-11.464-8.558,2.539,2.539,0,0,0,5.077,0Z" transform="translate(-106.298 -67.168)"/>
      <path id="Path_14802" data-name="Path 14802" d="M168.218,280.649a2.539,2.539,0,1,0,2.539,2.539A2.567,2.567,0,0,0,168.218,280.649Z" transform="translate(-137.637 -208.128)"/>
    </g>
    <g id="Group_15694" data-name="Group 15694" transform="translate(670.837 307.82)">
      <path id="Path_14567" data-name="Path 14567" d="M10.994,13.238a4.744,4.744,0,1,1,4.744-4.744A4.75,4.75,0,0,1,10.994,13.238Zm0-6.326a1.581,1.581,0,1,0,1.581,1.581A1.584,1.584,0,0,0,10.994,6.913Z" transform="translate(-15.25 -11.75)" fill="#a4afc1"/>
    </g>
    <g id="Group_15695" data-name="Group 15695" transform="translate(746.517 400.549)">
      <path id="Path_14568" data-name="Path 14568" d="M0,0H6.326V3.163H0Z" transform="translate(0 4.472) rotate(-45)" fill="#a4afc1"/>
    </g>
    <g id="Group_15696" data-name="Group 15696" transform="translate(759.377 387.688)">
      <path id="Path_14569" data-name="Path 14569" d="M0,0H6.326V3.163H0Z" transform="translate(0 4.472) rotate(-45)" fill="#a4afc1"/>
    </g>
    <g id="Group_15697" data-name="Group 15697" transform="translate(758.815 400.547)">
      <path id="Path_14570" data-name="Path 14570" d="M0,0H3.163V6.326H0Z" transform="translate(0 2.236) rotate(-45)" fill="#a4afc1"/>
    </g>
  </g>
</svg>
