<svg xmlns="http://www.w3.org/2000/svg" width="108.849" height="105.338" viewBox="0 0 108.849 105.338">
  <g id="done" transform="translate(-653.576 -311.804)">
    <g id="Group_15584" data-name="Group 15584" transform="translate(653.576 318.96)">
      <path id="Path_14532" data-name="Path 14532" d="M98.235,21.311c0,21.614,11.2,36.457,11.2,46.872s-5.987,32.289-53.9,32.289S.583,71.045.583,59.59c0-53.644,97.652-76.558,97.652-38.279Z" transform="translate(-0.583 -2.29)" fill="#e4e7ee"/>
    </g>
    <g id="Group_15591" data-name="Group 15591" transform="translate(-1.213 -15.34)">
      <g id="Group_15585" data-name="Group 15585" transform="translate(685.57 356.62)">
        <ellipse id="Ellipse_671" data-name="Ellipse 671" cx="28.332" cy="28.331" rx="28.332" ry="28.331" transform="translate(0)" fill="#15c39a"/>
      </g>
      <g id="Group_15586" data-name="Group 15586" transform="translate(685.57 356.62)">
        <path id="Path_14538" data-name="Path 14538" d="M28.836,46.081A28.333,28.333,0,0,1,51.625,18.3a28.329,28.329,0,1,0-5.543,56.111,28.162,28.162,0,0,0,5.543-.552A28.333,28.333,0,0,1,28.836,46.081Z" transform="translate(-17.75 -17.75)" fill="#1bad8a"/>
      </g>
      <g id="Group_15587" data-name="Group 15587" transform="translate(681.877 352.926)">
        <path id="Path_14539" data-name="Path 14539" d="M49.027,81.053A32.027,32.027,0,1,1,81.055,49.027,32.064,32.064,0,0,1,49.027,81.053Zm0-56.663A24.636,24.636,0,1,0,73.664,49.027,24.664,24.664,0,0,0,49.027,24.391Z" transform="translate(-17 -17)"/>
      </g>
      <g id="Group_15588" data-name="Group 15588" transform="translate(696.512 372.665)">
        <path id="Path_14540" data-name="Path 14540" d="M32.436,46.844a3.68,3.68,0,0,1-2.611-1.084L19.97,35.906,25.2,30.678l7.061,7.061L46.9,21.006l5.563,4.868L35.22,45.583a3.706,3.706,0,0,1-2.661,1.261h-.123Z" transform="translate(-19.97 -21.006)"/>
      </g>
    </g>
    <g id="Group_15589" data-name="Group 15589" transform="translate(744.718 362.582)">
      <path id="Path_14547" data-name="Path 14547" d="M34.437,25.624a4.687,4.687,0,1,1,4.687-4.687A4.693,4.693,0,0,1,34.437,25.624Zm0-6.25A1.562,1.562,0,1,0,36,20.937,1.565,1.565,0,0,0,34.437,19.375Z" transform="translate(-29.75 -16.25)" fill="#a4afc1"/>
    </g>
    <g id="Group_15590" data-name="Group 15590" transform="translate(684.956 311.804)">
      <g id="Group_15431" data-name="Group 15431" transform="translate(17.968 10.156)">
        <path id="Path_14548" data-name="Path 14548" d="M16.375,3.25h6.25V6.375h-6.25Z" transform="translate(-16.375 -3.25)" fill="#a4afc1"/>
      </g>
      <g id="Group_15432" data-name="Group 15432" transform="translate(0 10.156)">
        <path id="Path_14549" data-name="Path 14549" d="M10.625,3.25h6.25V6.375h-6.25Z" transform="translate(-10.625 -3.25)" fill="#a4afc1"/>
      </g>
      <g id="Group_15433" data-name="Group 15433" transform="translate(10.937)">
        <path id="Path_14550" data-name="Path 14550" d="M14.125,0H17.25V6.25H14.125Z" transform="translate(-14.125)" fill="#a4afc1"/>
      </g>
    </g>
  </g>
</svg>
