<svg xmlns="http://www.w3.org/2000/svg" width="25.327" height="21.107" viewBox="0 0 25.327 21.107">
  <g id="cash-1" transform="translate(-11.395 -14.496)">
    <g id="line" transform="translate(11.395 14.496)">
      <g id="Group_15479" data-name="Group 15479" transform="translate(4.221)">
        <path id="Path_14682" data-name="Path 14682" d="M28.732,22.247H12.375A2.377,2.377,0,0,1,10,19.873v-9.5A2.377,2.377,0,0,1,12.375,8H28.732a2.377,2.377,0,0,1,2.375,2.375v9.5A2.377,2.377,0,0,1,28.732,22.247ZM12.375,9.583a.792.792,0,0,0-.792.792v9.5a.792.792,0,0,0,.792.792H28.732a.792.792,0,0,0,.792-.792v-9.5a.792.792,0,0,0-.792-.792Z" transform="translate(-10 -8)" fill="#706f73"/>
      </g>
      <g id="Group_15480" data-name="Group 15480" transform="translate(0 6.909)">
        <path id="Path_14683" data-name="Path 14683" d="M24.683,28.744a2.4,2.4,0,0,1-.606-.078L7.758,24.3a2.4,2.4,0,0,1-1.68-2.907l1.835-6.842,1.529.411L7.608,21.8a.8.8,0,0,0,.565.973l16.31,4.368a.792.792,0,0,0,.6-.08.771.771,0,0,0,.362-.475l.611-2.264,1.528.413-.61,2.258a2.366,2.366,0,0,1-2.29,1.756Z" transform="translate(-6.001 -14.547)" fill="#706f73"/>
      </g>
      <g id="Group_15481" data-name="Group 15481" transform="translate(11.608 3.958)">
        <path id="Path_14684" data-name="Path 14684" d="M20.166,18.082a3.166,3.166,0,1,1,3.166-3.166A3.17,3.17,0,0,1,20.166,18.082Zm0-4.749a1.583,1.583,0,1,0,1.583,1.583A1.585,1.585,0,0,0,20.166,13.333Z" transform="translate(-17 -11.75)" fill="#706f73"/>
      </g>
      <g id="Group_15482" data-name="Group 15482" transform="translate(8.178 3.166)">
        <path id="Path_14685" data-name="Path 14685" d="M13.75,11h1.583v1.583H13.75Z" transform="translate(-13.75 -11)" fill="#706f73"/>
      </g>
      <g id="Group_15483" data-name="Group 15483" transform="translate(19.787 9.498)">
        <path id="Path_14686" data-name="Path 14686" d="M24.75,17h1.583v1.583H24.75Z" transform="translate(-24.75 -17)" fill="#706f73"/>
      </g>
    </g>
  </g>
</svg>
