<svg xmlns="http://www.w3.org/2000/svg" width="24.006" height="23.95" viewBox="0 0 24.006 23.95">
  <g id="ecology" transform="translate(-6 -6.05)">
    <path id="Path_14732" data-name="Path 14732" d="M14.25,10.2h-1.5V9.8a3,3,0,0,1,3-3h1.5v.4a3,3,0,0,1-3,3Z" fill="#00adee"/>
    <path id="Path_14733" data-name="Path 14733" d="M8.25,9.75H6.75v.5a4,4,0,0,0,4,4h1.5v-.5A4,4,0,0,0,8.25,9.75Z" fill="#00adee"/>
    <path id="Path_14734" data-name="Path 14734" d="M28.119,27.244a.99.99,0,0,0,.978-.8c1.545-8.146-9.084-12.557-11.884-13.2S8.968,11.24,7.178,19.576C5.427,27.731,9.6,27.244,9.6,27.244Z" fill="#f3f3f1"/>
    <path id="Path_14771" data-name="Path 14771" d="M2.25,0A2.25,2.25,0,1,1,0,2.25,2.25,2.25,0,0,1,2.25,0Z" transform="translate(9.75 24.75)" fill="#00adee"/>
    <circle id="Ellipse_677" data-name="Ellipse 677" cx="2.25" cy="2.25" r="2.25" transform="translate(22.75 24.75)" fill="#00adee"/>
    <path id="Path_14735" data-name="Path 14735" d="M20.18,14.3l-.92,3.85a1.987,1.987,0,0,0,1.62,2.44l7.77,1.25c-1.48-3.68-5.47-6.2-8.47-7.53Z" fill="#00adee"/>
    <g id="Group_15531" data-name="Group 15531">
      <path id="Path_14736" data-name="Path 14736" d="M15,9.8a2.993,2.993,0,0,1,2.25-2.894V6.8h-1.5a3,3,0,0,0-3,3v.4h1.5a2.991,2.991,0,0,0,.75-.106Z" fill="#0080c5"/>
      <path id="Path_14737" data-name="Path 14737" d="M9,10.25V9.826a3.941,3.941,0,0,0-.75-.076H6.75v.5a4,4,0,0,0,4,4h1.5v-.076A4,4,0,0,1,9,10.25Z" fill="#0080c5"/>
      <path id="Path_14738" data-name="Path 14738" d="M12,27a2.24,2.24,0,0,1,1.125-1.938,2.25,2.25,0,1,0,0,3.876A2.24,2.24,0,0,1,12,27Z" fill="#0080c5"/>
      <path id="Path_14739" data-name="Path 14739" d="M25,27a2.24,2.24,0,0,1,1.125-1.938,2.25,2.25,0,1,0,0,3.876A2.24,2.24,0,0,1,25,27Z" fill="#0080c5"/>
      <path id="Path_14740" data-name="Path 14740" d="M23.13,20.59a1.987,1.987,0,0,1-1.62-2.44l.677-2.832c-.691-.388-1.371-.727-2.007-1.008V14.3l-.92,3.85a1.987,1.987,0,0,0,1.62,2.44l7.77,1.25c-.053-.133-.117-.261-.177-.39Z" fill="#0080c5"/>
    </g>
    <path id="Path_14741" data-name="Path 14741" d="M12.033,14.25H10.75a3.97,3.97,0,0,1-.857-.1,9.66,9.66,0,0,0-2.714,5.423C5.428,27.731,9.6,27.244,9.6,27.244h2c-.864-.047-3.67-.717-2.178-7.668a9.845,9.845,0,0,1,2.6-5.326Z" fill="#d5dbe1"/>
    <path id="Path_14742" data-name="Path 14742" d="M28.1,27.99h-.9v-1.5h.9a.27.27,0,0,0,.263-.228,7.884,7.884,0,0,0-.1-3.445c-1.269-5-7.351-8.2-10.744-9.294l.461-1.428c3.688,1.193,10.308,4.715,11.736,10.35a9.4,9.4,0,0,1,.12,4.092A1.774,1.774,0,0,1,28.1,27.99Z"/>
    <path id="Path_14743" data-name="Path 14743" d="M9.479,28a3.18,3.18,0,0,1-2.255-1.047c-1.309-1.429-1.567-4.086-.769-7.9a17.24,17.24,0,0,1,.457-1.766l1.43.453a15.663,15.663,0,0,0-.417,1.616c-.9,4.312-.147,5.96.384,6.559a1.627,1.627,0,0,0,1.282.576l.209,0v1.5H9.67A1.5,1.5,0,0,1,9.479,28Z"/>
    <path id="Path_14744" data-name="Path 14744" d="M14.45,26.49h8.1v1.5h-8.1Z"/>
    <path id="Path_14745" data-name="Path 14745" d="M12,30a3,3,0,1,1,3-3A3,3,0,0,1,12,30Zm0-4.5A1.5,1.5,0,1,0,13.5,27,1.5,1.5,0,0,0,12,25.5Z"/>
    <path id="Path_14746" data-name="Path 14746" d="M25,30a3,3,0,1,1,3-3A3,3,0,0,1,25,30Zm0-4.5A1.5,1.5,0,1,0,26.5,27,1.5,1.5,0,0,0,25,25.5Z"/>
    <path id="Path_14747" data-name="Path 14747" d="M28.631,22.6l-7.87-1.271a2.739,2.739,0,0,1-2.23-3.36l1.029-4.314L21.019,14l-1.03,4.32A1.237,1.237,0,0,0,21,19.848l7.873,1.271Z"/>
    <path id="Path_14748" data-name="Path 14748" d="M12,9.75h1.5V18H12Z"/>
    <path id="Path_14749" data-name="Path 14749" d="M14.25,10.95h-1.5A.75.75,0,0,1,12,10.2V9.8a3.755,3.755,0,0,1,3.75-3.75h1.5A.75.75,0,0,1,18,6.8v.4a3.755,3.755,0,0,1-3.75,3.75Zm-.723-1.5h.723a2.253,2.253,0,0,0,2.223-1.9H15.75A2.253,2.253,0,0,0,13.527,9.45Z"/>
    <path id="Path_14750" data-name="Path 14750" d="M12.25,15h-1.5A4.756,4.756,0,0,1,6,10.25v-.5A.75.75,0,0,1,6.75,9h1.5A4.756,4.756,0,0,1,13,13.75v.5A.75.75,0,0,1,12.25,15ZM7.51,10.5a3.254,3.254,0,0,0,3.24,3h.74a3.254,3.254,0,0,0-3.24-3Z"/>
  </g>
</svg>
