<svg xmlns="http://www.w3.org/2000/svg" width="25.027" height="25.027" viewBox="0 0 25.027 25.027">
  <g id="group-meeting-1" transform="translate(-6 -6)">
    <path id="Path_14764" data-name="Path 14764" d="M27.484,19.556a.779.779,0,0,1-.44-.136L23.778,17.2l-3.266,2.222a.782.782,0,0,1-1.2-.838l1.017-4.015-3.057-2.61a.782.782,0,0,1,.464-1.375l3.894-.22,1.412-3.848a.782.782,0,0,1,1.469,0l1.412,3.848,3.894.22a.782.782,0,0,1,.464,1.375l-3.057,2.61,1.017,4.015a.779.779,0,0,1-.31.832.768.768,0,0,1-.447.143Zm-3.706-4.086a.779.779,0,0,1,.44.136l2,1.362-.63-2.487a.781.781,0,0,1,.249-.786l1.945-1.661-2.461-.14a.781.781,0,0,1-.69-.512l-.854-2.329-.854,2.329a.782.782,0,0,1-.69.512l-2.461.14,1.945,1.661a.78.78,0,0,1,.249.786l-.63,2.487,2-1.362A.779.779,0,0,1,23.778,15.471Z" transform="translate(0.471 0)" fill="#706f73"/>
    <path id="Path_14765" data-name="Path 14765" d="M14.26,30.463H9.828a.783.783,0,0,1-.778-.7L7.924,19.342l1.555-.168L10.53,28.9h3.73Z" transform="translate(0.082 0.564)" fill="#706f73"/>
    <path id="Path_14766" data-name="Path 14766" d="M6,19H20.6v1.564H6Z" transform="translate(0 0.556)" fill="#706f73"/>
    <path id="Path_14767" data-name="Path 14767" d="M13.086,14.171a2.086,2.086,0,1,1,2.086-2.086A2.088,2.088,0,0,1,13.086,14.171Zm0-2.607a.521.521,0,1,0,.521.521A.522.522,0,0,0,13.086,11.564Z" transform="translate(0.214 0.171)" fill="#706f73"/>
    <path id="Path_14768" data-name="Path 14768" d="M17.342,18.128H15.778v-.782A.783.783,0,0,0,15,16.564h-3.65a.783.783,0,0,0-.782.782v.782H9v-.782A2.349,2.349,0,0,1,11.346,15H15a2.349,2.349,0,0,1,2.346,2.346Z" transform="translate(0.128 0.385)" fill="#706f73"/>
    <circle id="Ellipse_679" data-name="Ellipse 679" cx="1.564" cy="1.564" r="1.564" transform="translate(26.334 23.727)" fill="#706f73"/>
    <path id="Path_14769" data-name="Path 14769" d="M30.257,30.128H28.692v-.782a.783.783,0,0,0-.782-.782H26.346a.783.783,0,0,0-.782.782v.782H24v-.782A2.349,2.349,0,0,1,26.346,27H27.91a2.349,2.349,0,0,1,2.346,2.346Z" transform="translate(0.77 0.898)" fill="#706f73"/>
    <circle id="Ellipse_680" data-name="Ellipse 680" cx="1.564" cy="1.564" r="1.564" transform="translate(17.992 23.727)" fill="#706f73"/>
    <path id="Path_14770" data-name="Path 14770" d="M22.257,30.128H20.693v-.782a.783.783,0,0,0-.782-.782H18.346a.783.783,0,0,0-.782.782v.782H16v-.782A2.349,2.349,0,0,1,18.346,27H19.91a2.349,2.349,0,0,1,2.346,2.346Z" transform="translate(0.428 0.898)" fill="#706f73"/>
  </g>
</svg>
