<svg xmlns="http://www.w3.org/2000/svg" width="25.027" height="25.027" viewBox="0 0 25.027 25.027">
  <g id="group-meeting" transform="translate(-6 -6)">
    <path id="Path_14753" data-name="Path 14753" d="M23.746,16.219,20.04,18.742l1.137-4.485L17.75,11.331l4.408-.25L23.746,6.75l1.588,4.331,4.408.25-3.427,2.926,1.137,4.485Z" transform="translate(0.503 0.032)" fill="#0080c5"/>
    <path id="Path_14754" data-name="Path 14754" d="M16.667,28.981l.947-9.231H8.75L9.7,28.981a1.043,1.043,0,0,0,1.038.936h4.9a1.042,1.042,0,0,0,1.037-.936Z" transform="translate(0.118 0.588)" fill="#00adee"/>
    <g id="Group_15532" data-name="Group 15532" transform="translate(9.91 10.953)">
      <circle id="Ellipse_678" data-name="Ellipse 678" cx="1.303" cy="1.303" r="1.303" transform="translate(2.086)" fill="#f3f3f1"/>
      <path id="Path_14755" data-name="Path 14755" d="M9.75,17.314a1.565,1.565,0,0,1,1.564-1.564h3.65a1.565,1.565,0,0,1,1.564,1.564v2.607H9.75Z" transform="translate(-9.75 -10.536)" fill="#f3f3f1"/>
      <path id="Path_14756" data-name="Path 14756" d="M21.443,29.314a1.565,1.565,0,0,0-1.564-1.564H18.314a1.565,1.565,0,0,0-1.564,1.564V30.1h4.693Z" transform="translate(-9.451 -10.023)" fill="#f3f3f1"/>
      <path id="Path_14757" data-name="Path 14757" d="M29.442,29.314a1.565,1.565,0,0,0-1.564-1.564H26.314a1.565,1.565,0,0,0-1.564,1.564V30.1h4.693Z" transform="translate(-9.108 -10.023)" fill="#f3f3f1"/>
    </g>
    <path id="Path_14759" data-name="Path 14759" d="M12.043,28.981,11.1,19.75H8.75L9.7,28.981a1.043,1.043,0,0,0,1.038.936h2.346a1.043,1.043,0,0,1-1.038-.936Z" transform="translate(0.118 0.588)" fill="#0080c5"/>
    <path id="Path_14760" data-name="Path 14760" d="M14.1,12.053a1.275,1.275,0,0,1,.13-.549,1.3,1.3,0,1,0,0,1.1A1.275,1.275,0,0,1,14.1,12.053Z" transform="translate(0.246 0.203)" fill="#d5dbe1"/>
    <path id="Path_14761" data-name="Path 14761" d="M13.66,15.75H11.314A1.565,1.565,0,0,0,9.75,17.314v2.607H12.1V17.314A1.565,1.565,0,0,1,13.66,15.75Z" transform="translate(0.16 0.417)" fill="#d5dbe1"/>
    <path id="Path_14762" data-name="Path 14762" d="M20.269,27.805a1.566,1.566,0,0,0-.391-.055H18.314a1.565,1.565,0,0,0-1.564,1.564V30.1H19.1v-.782A1.56,1.56,0,0,1,20.269,27.805Z" transform="translate(0.46 0.93)" fill="#d5dbe1"/>
    <path id="Path_14763" data-name="Path 14763" d="M28.269,27.805a1.566,1.566,0,0,0-.391-.055H26.314a1.565,1.565,0,0,0-1.564,1.564V30.1H27.1v-.782A1.56,1.56,0,0,1,28.269,27.805Z" transform="translate(0.802 0.93)" fill="#d5dbe1"/>
    <path id="Path_14764" data-name="Path 14764" d="M27.484,19.556a.779.779,0,0,1-.44-.136L23.778,17.2l-3.266,2.222a.782.782,0,0,1-1.2-.838l1.017-4.015-3.057-2.61a.782.782,0,0,1,.464-1.375l3.894-.22,1.412-3.848a.782.782,0,0,1,1.469,0l1.412,3.848,3.894.22a.782.782,0,0,1,.464,1.375l-3.057,2.61,1.017,4.015a.779.779,0,0,1-.31.832.768.768,0,0,1-.447.143Zm-3.706-4.086a.779.779,0,0,1,.44.136l2,1.362-.63-2.487a.781.781,0,0,1,.249-.786l1.945-1.661-2.461-.14a.781.781,0,0,1-.69-.512l-.854-2.329-.854,2.329a.782.782,0,0,1-.69.512l-2.461.14,1.945,1.661a.78.78,0,0,1,.249.786l-.63,2.487,2-1.362A.779.779,0,0,1,23.778,15.471Z" transform="translate(0.471 0)"/>
    <path id="Path_14765" data-name="Path 14765" d="M14.26,30.463H9.828a.783.783,0,0,1-.778-.7L7.924,19.342l1.555-.168L10.53,28.9h3.73Z" transform="translate(0.082 0.564)"/>
    <path id="Path_14766" data-name="Path 14766" d="M6,19H20.6v1.564H6Z" transform="translate(0 0.556)"/>
    <path id="Path_14767" data-name="Path 14767" d="M13.086,14.171a2.086,2.086,0,1,1,2.086-2.086A2.088,2.088,0,0,1,13.086,14.171Zm0-2.607a.521.521,0,1,0,.521.521A.522.522,0,0,0,13.086,11.564Z" transform="translate(0.214 0.171)"/>
    <path id="Path_14768" data-name="Path 14768" d="M17.342,18.128H15.778v-.782A.783.783,0,0,0,15,16.564h-3.65a.783.783,0,0,0-.782.782v.782H9v-.782A2.349,2.349,0,0,1,11.346,15H15a2.349,2.349,0,0,1,2.346,2.346Z" transform="translate(0.128 0.385)"/>
    <circle id="Ellipse_679" data-name="Ellipse 679" cx="1.564" cy="1.564" r="1.564" transform="translate(26.334 23.727)"/>
    <path id="Path_14769" data-name="Path 14769" d="M30.257,30.128H28.692v-.782a.783.783,0,0,0-.782-.782H26.346a.783.783,0,0,0-.782.782v.782H24v-.782A2.349,2.349,0,0,1,26.346,27H27.91a2.349,2.349,0,0,1,2.346,2.346Z" transform="translate(0.77 0.898)"/>
    <circle id="Ellipse_680" data-name="Ellipse 680" cx="1.564" cy="1.564" r="1.564" transform="translate(17.992 23.727)"/>
    <path id="Path_14770" data-name="Path 14770" d="M22.257,30.128H20.693v-.782a.783.783,0,0,0-.782-.782H18.346a.783.783,0,0,0-.782.782v.782H16v-.782A2.349,2.349,0,0,1,18.346,27H19.91a2.349,2.349,0,0,1,2.346,2.346Z" transform="translate(0.428 0.898)"/>
  </g>
</svg>
