<svg xmlns="http://www.w3.org/2000/svg" width="420.281" height="420.281" viewBox="0 0 420.281 420.281">
  <g id="lamp-shape" transform="translate(-8.278 -9.416)" opacity="0.02">
    <g id="Group_15460" data-name="Group 15460" transform="translate(21.412 80.268)">
      <path id="Path_14622" data-name="Path 14622" d="M24.571,34.265,48.79,10.046Z" transform="translate(287.505 -10.046)" fill="#2fdf84"/>
      <path id="Path_14623" data-name="Path 14623" d="M27.293,18h0Z" transform="translate(332.45 121.288)" fill="#2fdf84"/>
      <path id="Path_14624" data-name="Path 14624" d="M24.571,24.571,48.79,48.79Z" transform="translate(287.505 229.787)" fill="#2fdf84"/>
      <path id="Path_14625" data-name="Path 14625" d="M34.265,24.571,10.046,48.79Z" transform="translate(47.673 229.787)" fill="#2fdf84"/>
      <path id="Path_14626" data-name="Path 14626" d="M41.02,18h0Z" transform="translate(-6.75 121.288)" fill="#2fdf84"/>
      <path id="Path_14627" data-name="Path 14627" d="M34.265,34.265,10.046,10.046Z" transform="translate(47.673 -10.046)" fill="#2fdf84"/>
      <path id="Path_14628" data-name="Path 14628" d="M18.25,14.25A61.291,61.291,0,0,1,79.541,75.541Z" transform="translate(183.135 59.369)" fill="#2fdf84"/>
      <path id="Path_14629" data-name="Path 14629" d="M230.648,121.2c0-68.156-62.307-121.759-133.072-106.979C56.109,22.887,22.644,56.509,14.134,98.012c-9.229,44.953,9.141,86.35,41.258,110.516C72.728,221.592,81.8,242.939,81.8,264.654v30.891c0,14.938,7.845,22.66,17.512,22.66H143.09A17.518,17.518,0,0,0,160.6,300.693V261.764c0-21.7,11.155-41.205,28.229-54.619A109.088,109.088,0,0,0,230.649,121.2Z" transform="translate(75.807 18.091)" fill="#f5f6fa"/>
    </g>
    <path id="Path_14630" data-name="Path 14630" d="M116.822,295.5V264.6c0-21.715-9.071-43.061-26.408-56.125C58.316,184.3,39.928,142.916,49.157,97.963,57.685,56.46,91.133,22.838,132.6,14.17c2.084-.438,4.15-.613,6.217-.946a112.035,112.035,0,0,0-41.24.946C56.109,22.838,22.644,56.46,14.134,97.963,4.9,142.916,23.275,184.313,55.391,208.48,72.728,221.543,81.8,242.89,81.8,264.6V295.5c0,14.938,7.845,22.66,17.512,22.66h35.023c-9.666,0-17.512-7.723-17.512-22.66Z" transform="translate(97.218 98.408)" fill="#e4e7ee"/>
    <path id="Path_14631" data-name="Path 14631" d="M79.843,78.785H30.46a14.708,14.708,0,0,1-14.71-14.71V26.25h78.8V64.075A14.708,14.708,0,0,1,79.843,78.785Z" transform="translate(163.267 337.778)" fill="#f3f3f1"/>
    <path id="Path_14632" data-name="Path 14632" d="M50.773,64.075V26.25H15.75V64.075a14.708,14.708,0,0,0,14.71,14.71H65.483A14.708,14.708,0,0,1,50.773,64.075Z" transform="translate(163.267 337.778)" fill="#d5dbe1"/>
    <path id="Path_14633" data-name="Path 14633" d="M15.75,25.5h78.8V51.768H15.75Z" transform="translate(163.267 325.395)"/>
    <path id="Path_14634" data-name="Path 14634" d="M17.25,6H43.518V66.538H17.25Z" transform="translate(188.035 3.416)"/>
    <path id="Path_14635" data-name="Path 14635" d="M0,0H60.538V26.268H0Z" transform="translate(314.857 104.515) rotate(-45)"/>
    <path id="Path_14636" data-name="Path 14636" d="M26.543,17.25H87.081V43.518H26.543Z" transform="translate(341.478 189.173)"/>
    <path id="Path_14637" data-name="Path 14637" d="M0,0H26.268V60.538H0Z" transform="translate(314.837 334.636) rotate(-45)"/>
    <path id="Path_14638" data-name="Path 14638" d="M0,0H60.538V26.268H0Z" transform="translate(60.469 358.845) rotate(-45)"/>
    <path id="Path_14639" data-name="Path 14639" d="M6,17.25H66.538V43.518H6Z" transform="translate(2.278 189.173)"/>
    <path id="Path_14640" data-name="Path 14640" d="M0,0H26.268V60.538H0Z" transform="translate(60.506 80.248) rotate(-45)"/>
    <path id="Path_14641" data-name="Path 14641" d="M92.675,87.925H66.407A48.2,48.2,0,0,0,18.25,39.768V13.5A74.519,74.519,0,0,1,92.675,87.925Z" transform="translate(204.546 127.254)"/>
    <path id="Path_14642" data-name="Path 14642" d="M155.45,343.67H111.671c-14.762,0-30.646-11.207-30.646-35.794V276.986c0-18.58-7.915-35.636-21.172-45.618C21.59,202.561,3.886,155.174,13.64,107.7c9.544-46.511,47.177-84.284,93.635-94C148.6,5.064,190.894,17.462,220.3,46.882l-18.6,18.58c-23.448-23.483-55.9-32.992-89.065-26.04-36.354,7.6-65.792,37.16-73.269,73.567-7.688,37.423,6.217,74.758,36.284,97.4,19.806,14.92,31.644,39.822,31.644,66.615v30.891c0,1.594.21,9.526,4.378,9.526H155.45a4.379,4.379,0,0,0,4.378-4.378V274.114c0-24.674,12.118-48.332,33.237-64.951A96.3,96.3,0,0,0,222.607,96.737L246.879,86.7A122.543,122.543,0,0,1,209.3,229.809c-14.745,11.593-23.2,27.739-23.2,44.287v38.929A30.679,30.679,0,0,1,155.45,343.67Z" transform="translate(84.858 86.027)"/>
  </g>
</svg>
