<svg xmlns="http://www.w3.org/2000/svg" width="39.719" height="39.719" viewBox="0 0 39.719 39.719">
  <g id="lamp" transform="translate(-8.278 -9.416)">
    <g id="Group_15460" data-name="Group 15460" transform="translate(9.519 16.112)">
      <path id="Path_14622" data-name="Path 14622" d="M24.571,12.335l2.289-2.289Z" transform="translate(4.922 -10.046)" fill="#2fdf84"/>
      <path id="Path_14623" data-name="Path 14623" d="M27.293,18h0Z" transform="translate(6.705 -4.837)" fill="#2fdf84"/>
      <path id="Path_14624" data-name="Path 14624" d="M24.571,24.571,26.86,26.86Z" transform="translate(4.922 -0.533)" fill="#2fdf84"/>
      <path id="Path_14625" data-name="Path 14625" d="M12.335,24.571,10.046,26.86Z" transform="translate(-4.591 -0.533)" fill="#2fdf84"/>
      <path id="Path_14626" data-name="Path 14626" d="M9.989,18h0Z" transform="translate(-6.75 -4.837)" fill="#2fdf84"/>
      <path id="Path_14627" data-name="Path 14627" d="M12.335,12.335l-2.289-2.289Z" transform="translate(-4.591 -10.046)" fill="#2fdf84"/>
      <path id="Path_14628" data-name="Path 14628" d="M18.25,14.25a5.792,5.792,0,0,1,5.792,5.792Z" transform="translate(0.782 -7.293)" fill="#2fdf84"/>
      <path id="Path_14629" data-name="Path 14629" d="M32.437,22.093a10.346,10.346,0,1,0-16.563,8.253,6.6,6.6,0,0,1,2.5,5.3V38.57c0,1.412.741,2.142,1.655,2.142h4.137a1.656,1.656,0,0,0,1.655-1.655V35.378a6.613,6.613,0,0,1,2.668-5.162,10.309,10.309,0,0,0,3.952-8.122Z" transform="translate(-3.475 -8.93)" fill="#00adee"/>
    </g>
    <path id="Path_14630" data-name="Path 14630" d="M21.68,38.568V35.649a6.6,6.6,0,0,0-2.5-5.3,10.337,10.337,0,0,1,3.987-18.363c.2-.041.392-.058.588-.089a10.588,10.588,0,0,0-3.9.089,10.337,10.337,0,0,0-3.987,18.363,6.6,6.6,0,0,1,2.5,5.3v2.919c0,1.412.741,2.142,1.655,2.142h3.31c-.914,0-1.655-.73-1.655-2.142Z" transform="translate(6.044 7.184)" fill="#0080c5"/>
    <path id="Path_14631" data-name="Path 14631" d="M21.807,31.215H17.14a1.39,1.39,0,0,1-1.39-1.39V26.25H23.2v3.575A1.39,1.39,0,0,1,21.807,31.215Z" transform="translate(8.664 16.679)" fill="#f3f3f1"/>
    <path id="Path_14632" data-name="Path 14632" d="M19.06,29.825V26.25H15.75v3.575a1.39,1.39,0,0,0,1.39,1.39h3.31A1.39,1.39,0,0,1,19.06,29.825Z" transform="translate(8.664 16.679)" fill="#d5dbe1"/>
    <path id="Path_14633" data-name="Path 14633" d="M15.75,25.5H23.2v2.482H15.75Z" transform="translate(8.664 16.187)"/>
    <path id="Path_14634" data-name="Path 14634" d="M17.25,6h2.482v5.721H17.25Z" transform="translate(9.646 3.416)"/>
    <path id="Path_14635" data-name="Path 14635" d="M0,0H5.721V2.482H0Z" transform="translate(37.251 18.403) rotate(-45)"/>
    <path id="Path_14636" data-name="Path 14636" d="M26.543,17.25h5.721v2.482H26.543Z" transform="translate(15.732 10.784)"/>
    <path id="Path_14637" data-name="Path 14637" d="M0,0H2.482V5.721H0Z" transform="translate(37.249 40.151) rotate(-45)"/>
    <path id="Path_14638" data-name="Path 14638" d="M0,0H5.721V2.482H0Z" transform="translate(13.21 42.439) rotate(-45)"/>
    <path id="Path_14639" data-name="Path 14639" d="M6,17.25h5.721v2.482H6Z" transform="translate(2.278 10.784)"/>
    <path id="Path_14640" data-name="Path 14640" d="M0,0H2.482V5.721H0Z" transform="translate(13.214 16.11) rotate(-45)"/>
    <path id="Path_14641" data-name="Path 14641" d="M25.284,20.534H22.8a4.555,4.555,0,0,0-4.551-4.551V13.5A7.042,7.042,0,0,1,25.284,20.534Z" transform="translate(10.301 8.328)"/>
    <path id="Path_14642" data-name="Path 14642" d="M24.652,42.442H20.515c-1.4,0-2.9-1.059-2.9-3.383V36.14a5.365,5.365,0,0,0-2-4.311A11.582,11.582,0,1,1,30.781,14.394L29.023,16.15a9.1,9.1,0,1,0-11.912,13.7,7.858,7.858,0,0,1,2.99,6.3v2.919c0,.151.02.9.414.9h4.137a.414.414,0,0,0,.414-.414V35.868a7.857,7.857,0,0,1,3.141-6.138A9.1,9.1,0,0,0,31,19.106l2.294-.948a11.581,11.581,0,0,1-3.552,13.524,5.392,5.392,0,0,0-2.193,4.185v3.679A2.9,2.9,0,0,1,24.652,42.442Z" transform="translate(5.553 6.693)"/>
  </g>
</svg>
