<svg xmlns="http://www.w3.org/2000/svg" width="24.819" height="20.682" viewBox="0 0 24.819 20.682">
  <g id="pass" transform="translate(-13.834 -18.521)">
    <path id="Path_14491" data-name="Path 14491" d="M27.95,10.75H8.818A2.068,2.068,0,0,0,6.75,12.818V25.745a2.068,2.068,0,0,0,2.068,2.068H27.95a2.068,2.068,0,0,0,2.068-2.068V12.818A2.068,2.068,0,0,0,27.95,10.75Z" transform="translate(7.86 10.615)" fill="#f3f3f1"/>
    <path id="Path_14492" data-name="Path 14492" d="M9.077,25.745V12.818a2.068,2.068,0,0,1,2.068-2.068H8.818A2.068,2.068,0,0,0,6.75,12.818V25.745a2.068,2.068,0,0,0,2.068,2.068h2.327A2.068,2.068,0,0,1,9.077,25.745Z" transform="translate(7.86 10.615)" fill="#d5dbe1"/>
    <path id="Path_14493" data-name="Path 14493" d="M20.438,12.886H15.784a1.035,1.035,0,0,1-1.034-1.034V9.784A1.035,1.035,0,0,1,15.784,8.75h4.654a1.035,1.035,0,0,1,1.034,1.034v2.068A1.035,1.035,0,0,1,20.438,12.886Z" transform="translate(8.133 10.547)" fill="#00adee"/>
    <path id="Path_14494" data-name="Path 14494" d="M17.077,11.852V9.784A1.035,1.035,0,0,1,18.111,8.75H15.784A1.035,1.035,0,0,0,14.75,9.784v2.068a1.035,1.035,0,0,0,1.034,1.034h2.327A1.035,1.035,0,0,1,17.077,11.852Z" transform="translate(8.133 10.547)" fill="#00adee"/>
    <circle id="Ellipse_667" data-name="Ellipse 667" cx="1.81" cy="1.81" r="1.81" transform="translate(19.78 26.536)" fill="#00adee"/>
    <path id="Path_14495" data-name="Path 14495" d="M15.438,21.75H11.818A2.068,2.068,0,0,0,9.75,23.818v.517h7.756v-.517A2.068,2.068,0,0,0,15.438,21.75Z" transform="translate(7.962 10.99)" fill="#00adee"/>
    <path id="Path_14496" data-name="Path 14496" d="M14.145,21.75H11.818A2.068,2.068,0,0,0,9.75,23.818v.517h2.327v-.517A2.068,2.068,0,0,1,14.145,21.75Z" transform="translate(7.962 10.99)" fill="#0080c5"/>
    <path id="Path_14497" data-name="Path 14497" d="M13.56,19.369a1.794,1.794,0,0,0,1.163-.434,1.787,1.787,0,0,1,0-2.751,1.806,1.806,0,1,0-1.163,3.185Z" transform="translate(8.03 10.786)" fill="#0080c5"/>
    <path id="Path_14498" data-name="Path 14498" d="M20.75,15.5h5.688v1.551H20.75Z" transform="translate(8.337 10.777)"/>
    <path id="Path_14499" data-name="Path 14499" d="M20.75,19.5h5.688v1.551H20.75Z" transform="translate(8.337 10.914)"/>
    <path id="Path_14500" data-name="Path 14500" d="M20.75,23.5h5.688v1.551H20.75Z" transform="translate(8.337 11.05)"/>
    <path id="Path_14504" data-name="Path 14504" d="M27.975,28.614H8.844A2.846,2.846,0,0,1,6,25.77V12.844A2.846,2.846,0,0,1,8.844,10h6.2v1.551h-6.2a1.294,1.294,0,0,0-1.293,1.293V25.77a1.294,1.294,0,0,0,1.293,1.293H27.975a1.294,1.294,0,0,0,1.293-1.293V12.844a1.294,1.294,0,0,0-1.293-1.293h-6.2V10h6.2a2.846,2.846,0,0,1,2.844,2.844V25.77A2.846,2.846,0,0,1,27.975,28.614Z" transform="translate(7.834 10.589)"/>
    <path id="Path_14505" data-name="Path 14505" d="M20.463,13.688H15.81A1.812,1.812,0,0,1,14,11.878V9.81A1.812,1.812,0,0,1,15.81,8h4.654a1.812,1.812,0,0,1,1.81,1.81v2.068A1.812,1.812,0,0,1,20.463,13.688ZM15.81,9.551a.259.259,0,0,0-.259.259v2.068a.259.259,0,0,0,.259.259h4.654a.259.259,0,0,0,.259-.259V9.81a.259.259,0,0,0-.259-.259Z" transform="translate(8.107 10.521)"/>
    <path id="Path_14506" data-name="Path 14506" d="M13.585,20.171a2.585,2.585,0,1,1,2.585-2.585A2.588,2.588,0,0,1,13.585,20.171Zm0-3.619a1.034,1.034,0,1,0,1.034,1.034A1.035,1.035,0,0,0,13.585,16.551Z" transform="translate(8.005 10.76)"/>
    <path id="Path_14507" data-name="Path 14507" d="M18.307,24.361H16.756v-.517a1.294,1.294,0,0,0-1.293-1.293H11.844a1.294,1.294,0,0,0-1.293,1.293v.517H9v-.517A2.846,2.846,0,0,1,11.844,21h3.619a2.846,2.846,0,0,1,2.844,2.844Z" transform="translate(7.936 10.965)"/>
    <path id="Path_14508" data-name="Path 14508" d="M20.75,15.5h5.688v1.551H20.75Z" transform="translate(8.337 10.777)"/>
    <path id="Path_14509" data-name="Path 14509" d="M20.75,19.5h5.688v1.551H20.75Z" transform="translate(8.337 10.914)"/>
    <path id="Path_14510" data-name="Path 14510" d="M20.75,23.5h5.688v1.551H20.75Z" transform="translate(8.337 11.05)"/>
  </g>
</svg>
