<svg id="approval" xmlns="http://www.w3.org/2000/svg" width="87.042" height="84.235" viewBox="0 0 87.042 84.235">
  <g id="Group_15414" data-name="Group 15414" transform="translate(0 5.722)">
    <path id="Path_14532" data-name="Path 14532" d="M78.671,17.5c0,17.284,8.953,29.153,8.953,37.482S82.837,80.8,44.522,80.8.583,57.271.583,48.11c0-42.9,78.088-61.221,78.088-30.61Z" transform="translate(-0.583 -2.29)" fill="#e4e7ee"/>
  </g>
  <g id="Group_15415" data-name="Group 15415" transform="translate(15.41 24.363)">
    <path id="Path_14533" data-name="Path 14533" d="M40.484,9.75h-5v2.5a2.5,2.5,0,0,1-2.5,2.5H19.244a2.5,2.5,0,0,1-2.5-2.5V9.75h-5a5.012,5.012,0,0,0-5,5V45.983a5.012,5.012,0,0,0,5,5H40.484a5.012,5.012,0,0,0,5-5V14.748A5.012,5.012,0,0,0,40.484,9.75Z" transform="translate(-6.75 -9.75)" fill="#f3f3f1"/>
  </g>
  <g id="Group_15416" data-name="Group 15416" transform="translate(25.406 16.867)">
    <path id="Path_14534" data-name="Path 14534" d="M29.491,11.748v5a2.5,2.5,0,0,1-2.5,2.5H13.249a2.5,2.5,0,0,1-2.5-2.5v-5h4.373a5,5,0,0,1,10,0Z" transform="translate(-10.75 -6.75)" fill="#00adee"/>
  </g>
  <g id="Group_15417" data-name="Group 15417" transform="translate(42.897 44.354)">
    <ellipse id="Ellipse_671" data-name="Ellipse 671" cx="14.368" cy="14.368" rx="14.368" ry="14.368" fill="#00adee"/>
  </g>
  <g id="Group_15418" data-name="Group 15418" transform="translate(15.41 24.363)">
    <path id="Path_14535" data-name="Path 14535" d="M12.372,45.983V14.748a5,5,0,0,1,4.373-4.935V9.75h-5a5.012,5.012,0,0,0-5,5V45.983a5.012,5.012,0,0,0,5,5H17.37A5.012,5.012,0,0,1,12.372,45.983Z" transform="translate(-6.75 -9.75)" fill="#d5dbe1"/>
  </g>
  <g id="Group_15419" data-name="Group 15419" transform="translate(41.648 24.363)">
    <path id="Path_14536" data-name="Path 14536" d="M25.371,12.249V9.812a4.681,4.681,0,0,0-.625-.062h-5v2.5a2.5,2.5,0,0,1-2.5,2.5h5.622A2.5,2.5,0,0,0,25.371,12.249Z" transform="translate(-17.25 -9.75)" fill="#d5dbe1"/>
  </g>
  <g id="Group_15420" data-name="Group 15420" transform="translate(25.406 16.867)">
    <path id="Path_14537" data-name="Path 14537" d="M16.372,16.745v-5h4.373a5,5,0,0,1,2.186-4.123,4.957,4.957,0,0,0-2.811-.875,5.012,5.012,0,0,0-5,5H10.75v5a2.5,2.5,0,0,0,2.5,2.5h5.622A2.5,2.5,0,0,1,16.372,16.745Z" transform="translate(-10.75 -6.75)" fill="#0080c5"/>
  </g>
  <g id="Group_15421" data-name="Group 15421" transform="translate(42.897 44.354)">
    <path id="Path_14538" data-name="Path 14538" d="M23.372,32.118A14.369,14.369,0,0,1,34.929,18.03a14.367,14.367,0,1,0-2.811,28.456,14.282,14.282,0,0,0,2.811-.28A14.369,14.369,0,0,1,23.372,32.118Z" transform="translate(-17.75 -17.75)" fill="#0080c5"/>
  </g>
  <g id="Group_15422" data-name="Group 15422" transform="translate(41.023 42.48)">
    <path id="Path_14539" data-name="Path 14539" d="M33.242,49.484A16.242,16.242,0,1,1,49.485,33.242,16.261,16.261,0,0,1,33.242,49.484Zm0-28.736A12.494,12.494,0,1,0,45.737,33.242,12.508,12.508,0,0,0,33.242,20.748Z" transform="translate(-17 -17)"/>
  </g>
  <g id="Group_15423" data-name="Group 15423" transform="translate(48.445 52.49)">
    <path id="Path_14540" data-name="Path 14540" d="M26.292,34.11a1.866,1.866,0,0,1-1.324-.55l-5-5,2.651-2.651L26.2,29.492l7.427-8.486,2.821,2.469-8.746,10a1.88,1.88,0,0,1-1.349.64h-.062Z" transform="translate(-19.97 -21.006)"/>
  </g>
  <g id="Group_15424" data-name="Group 15424" transform="translate(13.536 22.489)">
    <path id="Path_14541" data-name="Path 14541" d="M28.964,53.978H12.872A6.879,6.879,0,0,1,6,47.107V15.872A6.879,6.879,0,0,1,12.872,9h4.7v3.748h-4.7a3.128,3.128,0,0,0-3.124,3.123V47.107a3.128,3.128,0,0,0,3.124,3.123H28.964Z" transform="translate(-6 -9)"/>
  </g>
  <g id="Group_15425" data-name="Group 15425" transform="translate(44.472 22.489)">
    <path id="Path_14542" data-name="Path 14542" d="M29.925,23.593H26.176V15.872a3.128,3.128,0,0,0-3.124-3.123H18.38V9h4.673a6.879,6.879,0,0,1,6.872,6.872Z" transform="translate(-18.38 -9)"/>
  </g>
  <g id="Group_15426" data-name="Group 15426" transform="translate(23.531 14.993)">
    <path id="Path_14543" data-name="Path 14543" d="M28.117,22.242H14.373A4.378,4.378,0,0,1,10,17.869v-5A1.875,1.875,0,0,1,11.874,11h2.759a6.873,6.873,0,0,1,13.224,0h2.759a1.875,1.875,0,0,1,1.874,1.874v5A4.378,4.378,0,0,1,28.117,22.242Zm-14.368-7.5v3.123a.625.625,0,0,0,.625.625H28.117a.625.625,0,0,0,.625-.625V14.746h-2.5a1.875,1.875,0,0,1-1.874-1.874,3.124,3.124,0,0,0-6.247,0,1.875,1.875,0,0,1-1.874,1.874Z" transform="translate(-10 -6)"/>
  </g>
  <g id="Group_15427" data-name="Group 15427" transform="translate(22.907 34.983)">
    <path id="Path_14544" data-name="Path 14544" d="M9.75,14H33.489v3.748H9.75Z" transform="translate(-9.75 -14)"/>
  </g>
  <g id="Group_15428" data-name="Group 15428" transform="translate(22.907 42.48)">
    <path id="Path_14545" data-name="Path 14545" d="M9.75,17H27.667v3.748H9.75Z" transform="translate(-9.75 -17)"/>
  </g>
  <g id="Group_15429" data-name="Group 15429" transform="translate(22.907 49.976)">
    <path id="Path_14546" data-name="Path 14546" d="M9.75,20H23.344v3.748H9.75Z" transform="translate(-9.75 -20)"/>
  </g>
  <g id="Group_15430" data-name="Group 15430" transform="translate(72.883 40.605)">
    <path id="Path_14547" data-name="Path 14547" d="M33.5,23.746A3.748,3.748,0,1,1,37.246,20,3.753,3.753,0,0,1,33.5,23.746Zm0-5A1.249,1.249,0,1,0,34.748,20,1.251,1.251,0,0,0,33.5,18.749Z" transform="translate(-29.75 -16.25)" fill="#a4afc1"/>
  </g>
  <g id="Group_15434" data-name="Group 15434" transform="translate(25.093)">
    <g id="Group_15431" data-name="Group 15431" transform="translate(14.368 8.121)">
      <path id="Path_14548" data-name="Path 14548" d="M16.375,3.25h5v2.5h-5Z" transform="translate(-16.375 -3.25)" fill="#a4afc1"/>
    </g>
    <g id="Group_15432" data-name="Group 15432" transform="translate(0 8.121)">
      <path id="Path_14549" data-name="Path 14549" d="M10.625,3.25h5v2.5h-5Z" transform="translate(-10.625 -3.25)" fill="#a4afc1"/>
    </g>
    <g id="Group_15433" data-name="Group 15433" transform="translate(8.746)">
      <path id="Path_14550" data-name="Path 14550" d="M14.125,0h2.5V5h-2.5Z" transform="translate(-14.125)" fill="#a4afc1"/>
    </g>
  </g>
</svg>
