<svg xmlns="http://www.w3.org/2000/svg" width="85.055" height="84.419" viewBox="0 0 85.055 84.419">
  <g id="create-account" transform="translate(-0.547 -0.677)">
    <path id="Path_14490" data-name="Path 14490" d="M7.6,57.223c14.769,8.122,20.7,21.348,27.82,25.261s24.313,8.039,42.316-24.7.539-48.6-7.291-52.906C33.793-15.274-18.555,42.842,7.6,57.223Z" transform="translate(0)" fill="#e4e7ee"/>
    <path id="Path_14491" data-name="Path 14491" d="M56.7,10.75H11.623A4.872,4.872,0,0,0,6.75,15.623V46.082a4.872,4.872,0,0,0,4.873,4.873H56.7a4.872,4.872,0,0,0,4.873-4.873V15.623A4.872,4.872,0,0,0,56.7,10.75Z" transform="translate(8.912 14.472)" fill="#f3f3f1"/>
    <path id="Path_14492" data-name="Path 14492" d="M12.233,46.082V15.623a4.872,4.872,0,0,1,4.873-4.873H11.623A4.872,4.872,0,0,0,6.75,15.623V46.082a4.872,4.872,0,0,0,4.873,4.873h5.483A4.872,4.872,0,0,1,12.233,46.082Z" transform="translate(8.912 14.472)" fill="#d5dbe1"/>
    <path id="Path_14493" data-name="Path 14493" d="M28.152,18.5H17.187A2.438,2.438,0,0,1,14.75,16.06V11.187A2.438,2.438,0,0,1,17.187,8.75H28.152a2.438,2.438,0,0,1,2.437,2.437V16.06A2.438,2.438,0,0,1,28.152,18.5Z" transform="translate(20.405 11.599)" fill="#00adee"/>
    <path id="Path_14494" data-name="Path 14494" d="M20.233,16.06V11.187A2.438,2.438,0,0,1,22.669,8.75H17.187a2.438,2.438,0,0,0-2.437,2.437V16.06A2.438,2.438,0,0,0,17.187,18.5h5.483A2.438,2.438,0,0,1,20.233,16.06Z" transform="translate(20.405 11.599)" fill="#00adee"/>
    <circle id="Ellipse_667" data-name="Ellipse 667" cx="4.264" cy="4.264" r="4.264" transform="translate(27.845 37.406)" fill="#00adee"/>
    <path id="Path_14495" data-name="Path 14495" d="M23.152,21.75H14.623A4.872,4.872,0,0,0,9.75,26.623v1.218H28.025V26.623A4.872,4.872,0,0,0,23.152,21.75Z" transform="translate(13.222 30.276)" fill="#00adee"/>
    <path id="Path_14496" data-name="Path 14496" d="M20.106,21.75H14.623A4.872,4.872,0,0,0,9.75,26.623v1.218h5.483V26.623A4.872,4.872,0,0,1,20.106,21.75Z" transform="translate(13.222 30.276)" fill="#0080c5"/>
    <path id="Path_14497" data-name="Path 14497" d="M16.014,24.278a4.228,4.228,0,0,0,2.741-1.023,4.21,4.21,0,0,1,0-6.482,4.256,4.256,0,1,0-2.741,7.505Z" transform="translate(16.095 21.656)" fill="#0080c5"/>
    <path id="Path_14498" data-name="Path 14498" d="M20.75,15.5h13.4v3.655H20.75Z" transform="translate(29.026 21.296)"/>
    <path id="Path_14499" data-name="Path 14499" d="M20.75,19.5h13.4v3.655H20.75Z" transform="translate(29.026 27.043)"/>
    <path id="Path_14500" data-name="Path 14500" d="M20.75,23.5h13.4v3.655H20.75Z" transform="translate(29.026 32.79)"/>
    <g id="Group_15412" data-name="Group 15412" transform="translate(8.73 9.152)">
      <path id="Path_14501" data-name="Path 14501" d="M0,0H2.437V4.873H0Z" transform="translate(0.43 1.723) rotate(-45)" fill="#a4afc1"/>
      <path id="Path_14502" data-name="Path 14502" d="M0,0H4.873V2.437H0Z" transform="translate(0 13.355) rotate(-45)" fill="#a4afc1"/>
      <path id="Path_14503" data-name="Path 14503" d="M0,0H4.873V2.437H0Z" transform="translate(9.908 3.452) rotate(-45)" fill="#a4afc1"/>
    </g>
    <path id="Path_14504" data-name="Path 14504" d="M57.78,53.861H12.7A6.707,6.707,0,0,1,6,47.16V16.7A6.707,6.707,0,0,1,12.7,10h14.62v3.655H12.7A3.05,3.05,0,0,0,9.655,16.7V47.16A3.05,3.05,0,0,0,12.7,50.206H57.78a3.05,3.05,0,0,0,3.046-3.046V16.7a3.05,3.05,0,0,0-3.046-3.046H43.16V10H57.78a6.707,6.707,0,0,1,6.7,6.7V47.16A6.707,6.707,0,0,1,57.78,53.861Z" transform="translate(7.834 13.395)"/>
    <path id="Path_14505" data-name="Path 14505" d="M29.229,21.4H18.264A4.269,4.269,0,0,1,14,17.138V12.264A4.269,4.269,0,0,1,18.264,8H29.229a4.269,4.269,0,0,1,4.264,4.264v4.873A4.269,4.269,0,0,1,29.229,21.4ZM18.264,11.655a.609.609,0,0,0-.609.609v4.873a.609.609,0,0,0,.609.609H29.229a.609.609,0,0,0,.609-.609V12.264a.609.609,0,0,0-.609-.609Z" transform="translate(19.328 10.521)"/>
    <path id="Path_14506" data-name="Path 14506" d="M17.092,27.184a6.092,6.092,0,1,1,6.092-6.092A6.1,6.1,0,0,1,17.092,27.184Zm0-8.528a2.437,2.437,0,1,0,2.437,2.437A2.439,2.439,0,0,0,17.092,18.655Z" transform="translate(15.018 20.578)"/>
    <path id="Path_14507" data-name="Path 14507" d="M30.93,28.919H27.275V27.7a3.05,3.05,0,0,0-3.046-3.046H15.7A3.05,3.05,0,0,0,12.655,27.7v1.218H9V27.7A6.707,6.707,0,0,1,15.7,21h8.528a6.707,6.707,0,0,1,6.7,6.7Z" transform="translate(12.144 29.198)"/>
    <path id="Path_14508" data-name="Path 14508" d="M20.75,15.5h13.4v3.655H20.75Z" transform="translate(29.026 21.296)"/>
    <path id="Path_14509" data-name="Path 14509" d="M20.75,19.5h13.4v3.655H20.75Z" transform="translate(29.026 27.043)"/>
    <path id="Path_14510" data-name="Path 14510" d="M20.75,23.5h13.4v3.655H20.75Z" transform="translate(29.026 32.79)"/>
  </g>
</svg>
