<svg xmlns="http://www.w3.org/2000/svg" width="76.006" height="84.26" viewBox="0 0 76.006 84.26">
  <g id="start-matching" transform="translate(-2.29 -0.584)">
    <path id="Path_14515" data-name="Path 14515" d="M63.571,9.251C46.839,9.251,35.348.584,27.286.584s-25,4.635-25,41.726S25.07,84.844,33.938,84.844C75.466,84.846,93.2,9.251,63.571,9.251Z" transform="translate(0 0)" fill="#e4e7ee"/>
    <g id="Group_15413" data-name="Group 15413" transform="translate(44.632 4.368)">
      <path id="Path_14516" data-name="Path 14516" d="M0,0H2.419V4.838H0Z" transform="translate(0 1.712) rotate(-45)" fill="#a4afc1"/>
      <path id="Path_14517" data-name="Path 14517" d="M0,0H2.419V4.838H0Z" transform="translate(9.834 11.545) rotate(-45)" fill="#a4afc1"/>
      <path id="Path_14518" data-name="Path 14518" d="M0,0H4.838V2.419H0Z" transform="translate(9.406 3.421) rotate(-45)" fill="#a4afc1"/>
    </g>
    <circle id="Ellipse_669" data-name="Ellipse 669" cx="5.443" cy="5.443" r="5.443" transform="translate(50.574 43.319)" fill="#efefef"/>
    <path id="Path_14519" data-name="Path 14519" d="M37.893,25.75h-13.3a4.837,4.837,0,0,0-4.838,4.838v3.629H42.731V30.588A4.837,4.837,0,0,0,37.893,25.75Z" transform="translate(24.776 35.711)" fill="#efefef"/>
    <path id="Path_14520" data-name="Path 14520" d="M6.75,11.588V27.312a4.852,4.852,0,0,0,4.838,4.838h12.7l7.862,7.257V32.15h4.838a4.852,4.852,0,0,0,4.838-4.838V11.588A4.852,4.852,0,0,0,36.988,6.75h-25.4A4.852,4.852,0,0,0,6.75,11.588Z" transform="translate(6.329 8.75)" fill="#00adee"/>
    <circle id="Ellipse_670" data-name="Ellipse 670" cx="3.024" cy="3.024" r="3.024" transform="translate(17.917 51.785)" fill="#efefef"/>
    <path id="Path_14521" data-name="Path 14521" d="M17.636,26.75H11.588A4.837,4.837,0,0,0,6.75,31.588V32.8H22.474v-1.21A4.837,4.837,0,0,0,17.636,26.75Z" transform="translate(6.329 37.13)" fill="#efefef"/>
    <path id="Path_14522" data-name="Path 14522" d="M27.693,23.693A5.418,5.418,0,0,1,30.414,19a5.443,5.443,0,1,0,0,9.376A5.418,5.418,0,0,1,27.693,23.693Z" transform="translate(28.324 25.069)" fill="#d5dbe1"/>
    <path id="Path_14523" data-name="Path 14523" d="M30.031,25.75H24.588a4.837,4.837,0,0,0-4.838,4.838v3.629h5.443V30.588A4.837,4.837,0,0,1,30.031,25.75Z" transform="translate(24.776 35.711)" fill="#d5dbe1"/>
    <path id="Path_14524" data-name="Path 14524" d="M12.193,27.312V11.588A4.852,4.852,0,0,1,17.031,6.75H11.588A4.852,4.852,0,0,0,6.75,11.588V27.312a4.852,4.852,0,0,0,4.838,4.838h5.443A4.852,4.852,0,0,1,12.193,27.312Z" transform="translate(6.329 8.75)" fill="#0080c5"/>
    <path id="Path_14525" data-name="Path 14525" d="M19.443,17.25H14l7.862,7.257V19.483Z" transform="translate(16.617 23.65)" fill="#0080c5"/>
    <path id="Path_14526" data-name="Path 14526" d="M17.031,26.75H11.588A4.837,4.837,0,0,0,6.75,31.588V32.8h5.443v-1.21A4.837,4.837,0,0,1,17.031,26.75Z" transform="translate(6.329 37.13)" fill="#d5dbe1"/>
    <path id="Path_14527" data-name="Path 14527" d="M28.757,32.014a7.257,7.257,0,1,1,7.257-7.257A7.266,7.266,0,0,1,28.757,32.014Zm0-10.886a3.629,3.629,0,1,0,3.629,3.629A3.633,3.633,0,0,0,28.757,21.129Z" transform="translate(27.26 24.004)"/>
    <path id="Path_14528" data-name="Path 14528" d="M43.8,37.1a1.815,1.815,0,0,1-1.814-1.814V31.652a3.028,3.028,0,0,0-3.024-3.024h-13.3a3.028,3.028,0,0,0-3.024,3.024v3.629a1.814,1.814,0,1,1-3.629,0V31.652A6.658,6.658,0,0,1,25.652,25h13.3a6.658,6.658,0,0,1,6.652,6.652v3.629A1.815,1.815,0,0,1,43.8,37.1Z" transform="translate(23.712 34.647)"/>
    <path id="Path_14529" data-name="Path 14529" d="M33.214,42.285a1.812,1.812,0,0,1-1.231-.481l-7.339-6.776H12.652A6.658,6.658,0,0,1,6,28.376V12.652A6.658,6.658,0,0,1,12.652,6h25.4A6.658,6.658,0,0,1,44.7,12.652V28.376a6.658,6.658,0,0,1-6.652,6.652H35.028v5.443a1.824,1.824,0,0,1-1.086,1.664A1.869,1.869,0,0,1,33.214,42.285ZM12.652,9.629a3.028,3.028,0,0,0-3.024,3.024V28.376A3.028,3.028,0,0,0,12.652,31.4h12.7a1.819,1.819,0,0,1,1.231.481L31.4,36.327V33.214A1.815,1.815,0,0,1,33.214,31.4h4.838a3.028,3.028,0,0,0,3.024-3.024V12.652a3.028,3.028,0,0,0-3.024-3.024Z" transform="translate(5.265 7.685)"/>
    <path id="Path_14530" data-name="Path 14530" d="M12.838,30.676a4.838,4.838,0,1,1,4.838-4.838A4.843,4.843,0,0,1,12.838,30.676Zm0-6.048a1.21,1.21,0,1,0,1.21,1.21A1.213,1.213,0,0,0,12.838,24.629Z" transform="translate(8.103 28.971)"/>
    <path id="Path_14531" data-name="Path 14531" d="M23.538,35.676a1.815,1.815,0,0,1-1.814-1.814v-1.21A3.028,3.028,0,0,0,18.7,29.629H12.652a3.028,3.028,0,0,0-3.024,3.024v1.21a1.814,1.814,0,1,1-3.629,0v-1.21A6.658,6.658,0,0,1,12.652,26H18.7a6.658,6.658,0,0,1,6.652,6.652v1.21A1.815,1.815,0,0,1,23.538,35.676Z" transform="translate(5.265 36.066)"/>
  </g>
</svg>
