<svg id="check" xmlns="http://www.w3.org/2000/svg" width="42.168" height="42.168" viewBox="0 0 42.168 42.168">
  <path id="Path_14437" data-name="Path 14437" d="M108.49,75.607h0a1.518,1.518,0,0,1-1.165-.53l-8-8.688a1.575,1.575,0,1,1,2.331-2.119l6.887,7.469,19.071-19.018a1.536,1.536,0,0,1,2.225,0,1.582,1.582,0,0,1,0,2.225L109.6,75.13A1.443,1.443,0,0,1,108.49,75.607Z" transform="translate(-88.889 -46.948)" fill="#00adee"/>
  <path id="Path_14438" data-name="Path 14438" d="M21.084,42.168A21.084,21.084,0,1,1,21.084,0a1.561,1.561,0,0,1,1.589,1.589,1.561,1.561,0,0,1-1.589,1.589A17.905,17.905,0,1,0,38.989,21.084a1.589,1.589,0,0,1,3.178,0A21.139,21.139,0,0,1,21.084,42.168Z" fill="#706f73"/>
</svg>
