<svg xmlns="http://www.w3.org/2000/svg" width="78.12" height="72.445" viewBox="0 0 78.12 72.445">
  <g id="hourglass" transform="translate(-7.704 -3.852)">
    <path id="Path_14658" data-name="Path 14658" d="M36.188,32.817a5.373,5.373,0,0,0,0,7.959l4.514,4.06a13.321,13.321,0,0,1,4.433,9.935V66.842H11.75V54.77a13.321,13.321,0,0,1,4.433-9.935l4.514-4.06a5.373,5.373,0,0,0,0-7.959l-4.514-4.06a13.321,13.321,0,0,1-4.433-9.935V6.75H45.135V18.822A13.321,13.321,0,0,1,40.7,28.757Z" transform="translate(18.656 7.452)" fill="#f3f3f1"/>
    <path id="Path_14659" data-name="Path 14659" d="M17.759,59.164A18.6,18.6,0,0,1,22.193,46.8l4.514-5.053a7.836,7.836,0,0,0,0-9.9l-4.514-5.053a18.6,18.6,0,0,1-4.433-12.363V6.75H11.75V18.822a13.321,13.321,0,0,0,4.433,9.935l4.514,4.06a5.373,5.373,0,0,1,0,7.959l-4.514,4.06A13.321,13.321,0,0,0,11.75,54.77V66.842h6.009Z" transform="translate(18.656 7.452)" fill="#d5dbe1"/>
    <path id="Path_14660" data-name="Path 14660" d="M30.545,27.865,23.43,20.75l-7.115,7.115a5.343,5.343,0,0,0-1.565,3.776v11.81H32.11V31.641A5.343,5.343,0,0,0,30.545,27.865Z" transform="translate(23.668 30.842)" fill="#00adee"/>
    <path id="Path_14661" data-name="Path 14661" d="M22.324,27.865l4.11-4.11-3-3-7.115,7.115a5.343,5.343,0,0,0-1.565,3.776v11.81h6.009V31.641A5.343,5.343,0,0,1,22.324,27.865Z" transform="translate(23.668 30.842)" fill="#0080c5"/>
    <g id="Group_15465" data-name="Group 15465" transform="translate(7.704 3.852)">
      <path id="Path_14662" data-name="Path 14662" d="M3.25,6.125H8.592V8.8H3.25Z" transform="translate(-3.25 2.555)" fill="#a4afc1"/>
      <path id="Path_14663" data-name="Path 14663" d="M6.5,8.625H9.171v5.342H6.5Z" transform="translate(2.18 6.732)" fill="#a4afc1"/>
      <path id="Path_14664" data-name="Path 14664" d="M6.5,2.875H9.171V8.217H6.5Z" transform="translate(2.18 -2.875)" fill="#a4afc1"/>
      <path id="Path_14665" data-name="Path 14665" d="M33.506,16.512a4.006,4.006,0,1,1,4.006-4.006A4.011,4.011,0,0,1,33.506,16.512Zm0-5.342a1.335,1.335,0,1,0,1.335,1.335A1.339,1.339,0,0,0,33.506,11.171Z" transform="translate(40.608 6.523)" fill="#a4afc1"/>
    </g>
    <path id="Path_14666" data-name="Path 14666" d="M35.366,44.7H31.36V32.892a3.372,3.372,0,0,0-.977-2.361l-5.7-5.7-5.7,5.7a3.367,3.367,0,0,0-.978,2.361v11.81H14V32.9A7.289,7.289,0,0,1,16.153,27.7l7.115-7.115a2,2,0,0,1,2.834,0L33.216,27.7A7.293,7.293,0,0,1,35.369,32.9V44.7Z" transform="translate(22.415 29.591)"/>
    <path id="Path_14667" data-name="Path 14667" d="M9.75,6H53.818v4.006H9.75Z" transform="translate(15.314 6.199)"/>
    <path id="Path_14668" data-name="Path 14668" d="M9.75,28.5H53.818v4.006H9.75Z" transform="translate(15.314 43.791)"/>
    <path id="Path_14669" data-name="Path 14669" d="M15.006,66.842H11V54.762A15.368,15.368,0,0,1,16.082,43.35L20.6,39.28a3.337,3.337,0,0,0,0-4.962l-4.522-4.07A15.389,15.389,0,0,1,11,18.83V6.75h4.006V18.83a11.364,11.364,0,0,0,3.758,8.434l4.522,4.07a7.346,7.346,0,0,1,0,10.918l-4.522,4.07a11.358,11.358,0,0,0-3.758,8.434Z" transform="translate(17.403 7.452)"/>
    <path id="Path_14670" data-name="Path 14670" d="M34.206,66.842H30.2V54.762a11.364,11.364,0,0,0-3.758-8.434l-4.522-4.07a7.346,7.346,0,0,1,0-10.918l4.522-4.07A11.358,11.358,0,0,0,30.2,18.835V6.75h4.006V18.83a15.369,15.369,0,0,1-5.082,11.412L24.6,34.312a3.337,3.337,0,0,0,0,4.962l4.522,4.07a15.389,15.389,0,0,1,5.082,11.418Z" transform="translate(31.588 7.452)"/>
  </g>
</svg>
